%TF.GenerationSoftware,KiCad,Pcbnew,8.0.7*%
%TF.CreationDate,2025-02-08T15:19:53+05:30*%
%TF.ProjectId,Bread_Board_Power_supply,42726561-645f-4426-9f61-72645f506f77,rev?*%
%TF.SameCoordinates,Original*%
%TF.FileFunction,Copper,L2,Bot*%
%TF.FilePolarity,Positive*%
%FSLAX46Y46*%
G04 Gerber Fmt 4.6, Leading zero omitted, Abs format (unit mm)*
G04 Created by KiCad (PCBNEW 8.0.7) date 2025-02-08 15:19:53*
%MOMM*%
%LPD*%
G01*
G04 APERTURE LIST*
G04 Aperture macros list*
%AMRoundRect*
0 Rectangle with rounded corners*
0 $1 Rounding radius*
0 $2 $3 $4 $5 $6 $7 $8 $9 X,Y pos of 4 corners*
0 Add a 4 corners polygon primitive as box body*
4,1,4,$2,$3,$4,$5,$6,$7,$8,$9,$2,$3,0*
0 Add four circle primitives for the rounded corners*
1,1,$1+$1,$2,$3*
1,1,$1+$1,$4,$5*
1,1,$1+$1,$6,$7*
1,1,$1+$1,$8,$9*
0 Add four rect primitives between the rounded corners*
20,1,$1+$1,$2,$3,$4,$5,0*
20,1,$1+$1,$4,$5,$6,$7,0*
20,1,$1+$1,$6,$7,$8,$9,0*
20,1,$1+$1,$8,$9,$2,$3,0*%
G04 Aperture macros list end*
%TA.AperFunction,ComponentPad*%
%ADD10R,1.700000X1.700000*%
%TD*%
%TA.AperFunction,ComponentPad*%
%ADD11O,1.700000X1.700000*%
%TD*%
%TA.AperFunction,ComponentPad*%
%ADD12C,1.400000*%
%TD*%
%TA.AperFunction,ComponentPad*%
%ADD13O,1.400000X1.400000*%
%TD*%
%TA.AperFunction,ComponentPad*%
%ADD14R,2.600000X2.600000*%
%TD*%
%TA.AperFunction,ComponentPad*%
%ADD15C,2.600000*%
%TD*%
%TA.AperFunction,ComponentPad*%
%ADD16R,3.500000X3.500000*%
%TD*%
%TA.AperFunction,ComponentPad*%
%ADD17RoundRect,0.750000X-0.750000X-1.000000X0.750000X-1.000000X0.750000X1.000000X-0.750000X1.000000X0*%
%TD*%
%TA.AperFunction,ComponentPad*%
%ADD18RoundRect,0.875000X-0.875000X-0.875000X0.875000X-0.875000X0.875000X0.875000X-0.875000X0.875000X0*%
%TD*%
%TA.AperFunction,ComponentPad*%
%ADD19R,2.000000X1.905000*%
%TD*%
%TA.AperFunction,ComponentPad*%
%ADD20O,2.000000X1.905000*%
%TD*%
%TA.AperFunction,ComponentPad*%
%ADD21C,1.200000*%
%TD*%
%TA.AperFunction,ComponentPad*%
%ADD22R,1.500000X1.500000*%
%TD*%
%TA.AperFunction,ComponentPad*%
%ADD23C,1.600000*%
%TD*%
%TA.AperFunction,ViaPad*%
%ADD24C,0.600000*%
%TD*%
%TA.AperFunction,ViaPad*%
%ADD25C,0.500000*%
%TD*%
%TA.AperFunction,Conductor*%
%ADD26C,0.800000*%
%TD*%
G04 APERTURE END LIST*
D10*
%TO.P,J6,1,Pin_1*%
%TO.N,GND*%
X100000000Y-143250000D03*
D11*
%TO.P,J6,2,Pin_2*%
%TO.N,/Power_output*%
X100000000Y-145790000D03*
%TD*%
D10*
%TO.P,J7,1,Pin_1*%
%TO.N,/3.3v*%
X84025000Y-145000000D03*
D11*
%TO.P,J7,2,Pin_2*%
%TO.N,/Power_output*%
X81485000Y-145000000D03*
%TO.P,J7,3,Pin_3*%
%TO.N,/5v*%
X78945000Y-145000000D03*
%TD*%
D12*
%TO.P,R1,1*%
%TO.N,Net-(D1-A)*%
X86790000Y-111750000D03*
D13*
%TO.P,R1,2*%
%TO.N,/12v*%
X81710000Y-111750000D03*
%TD*%
D12*
%TO.P,R3,1*%
%TO.N,GND*%
X81540000Y-136950000D03*
D13*
%TO.P,R3,2*%
%TO.N,Net-(U2-ADJ)*%
X76460000Y-136950000D03*
%TD*%
D10*
%TO.P,J2,1,Pin_1*%
%TO.N,/3.3v*%
X78867000Y-100711000D03*
D11*
%TO.P,J2,2,Pin_2*%
%TO.N,/Power_output*%
X81407000Y-100711000D03*
%TO.P,J2,3,Pin_3*%
%TO.N,/5v*%
X83947000Y-100711000D03*
%TD*%
D14*
%TO.P,J5,1,Pin_1*%
%TO.N,GND*%
X89403000Y-142545000D03*
D15*
%TO.P,J5,2,Pin_2*%
%TO.N,/Power_output*%
X94483000Y-142545000D03*
%TD*%
D12*
%TO.P,R2,1*%
%TO.N,Net-(U2-ADJ)*%
X76460000Y-139950000D03*
D13*
%TO.P,R2,2*%
%TO.N,/3.3v*%
X81540000Y-139950000D03*
%TD*%
D16*
%TO.P,J1,1*%
%TO.N,/Power_Input*%
X82804000Y-124841000D03*
D17*
%TO.P,J1,2*%
%TO.N,GND*%
X76804000Y-124841000D03*
D18*
%TO.P,J1,3*%
X79804000Y-129541000D03*
%TD*%
D10*
%TO.P,J3,1,Pin_1*%
%TO.N,GND*%
X100000000Y-100000000D03*
D11*
%TO.P,J3,2,Pin_2*%
%TO.N,/Power_output*%
X100000000Y-102540000D03*
%TD*%
D19*
%TO.P,U1,1,VI*%
%TO.N,/12v*%
X72195000Y-106040000D03*
D20*
%TO.P,U1,2,GND*%
%TO.N,GND*%
X72195000Y-103500000D03*
%TO.P,U1,3,VO*%
%TO.N,/5v*%
X72195000Y-100960000D03*
%TD*%
D21*
%TO.P,C1,1*%
%TO.N,GND*%
X78000000Y-107250000D03*
%TO.P,C1,2*%
%TO.N,/12v*%
X78000000Y-109250000D03*
%TD*%
D14*
%TO.P,J4,1,Pin_1*%
%TO.N,GND*%
X94493000Y-103073000D03*
D15*
%TO.P,J4,2,Pin_2*%
%TO.N,/Power_output*%
X89413000Y-103073000D03*
%TD*%
D22*
%TO.P,SW1,1,A*%
%TO.N,/12v*%
X74000000Y-114450000D03*
D23*
%TO.P,SW1,2,B*%
%TO.N,/Power_Input*%
X76540000Y-114450000D03*
%TO.P,SW1,3,C*%
%TO.N,unconnected-(SW1-C-Pad3)*%
X71460000Y-114450000D03*
%TD*%
D19*
%TO.P,U2,1,ADJ*%
%TO.N,Net-(U2-ADJ)*%
X72250000Y-145000000D03*
D20*
%TO.P,U2,2,VO*%
%TO.N,/3.3v*%
X72250000Y-142460000D03*
%TO.P,U2,3,VI*%
%TO.N,/12v*%
X72250000Y-139920000D03*
%TD*%
D24*
%TO.N,GND*%
X84000000Y-136375000D03*
X93075000Y-127775000D03*
D25*
X83947000Y-108254800D03*
D24*
%TO.N,/3.3v*%
X90050000Y-133050000D03*
X74750000Y-142550000D03*
%TO.N,Net-(D1-A)*%
X92710000Y-120142000D03*
X87750000Y-118500000D03*
%TD*%
D26*
%TO.N,Net-(D1-A)*%
X92268000Y-119700000D02*
X88950000Y-119700000D01*
X92710000Y-120142000D02*
X92268000Y-119700000D01*
X88950000Y-119700000D02*
X87750000Y-118500000D01*
%TO.N,/3.3v*%
X78841600Y-105257600D02*
X78841600Y-100736400D01*
X74750000Y-142550000D02*
X76750000Y-142550000D01*
X90050000Y-131550000D02*
X87050000Y-128550000D01*
X87050000Y-120832000D02*
X84328000Y-118110000D01*
X90050000Y-133050000D02*
X90050000Y-131550000D01*
X76750000Y-142550000D02*
X79350000Y-139950000D01*
X78841600Y-100736400D02*
X78867000Y-100711000D01*
X87050000Y-128550000D02*
X87050000Y-120832000D01*
X84328000Y-118110000D02*
X84328000Y-110744000D01*
X79350000Y-139950000D02*
X81540000Y-139950000D01*
X84328000Y-110744000D02*
X78841600Y-105257600D01*
%TD*%
%TA.AperFunction,Conductor*%
%TO.N,GND*%
G36*
X101756061Y-97501097D02*
G01*
X101766635Y-97502138D01*
X101884069Y-97513704D01*
X101907897Y-97518443D01*
X102025140Y-97554008D01*
X102047589Y-97563308D01*
X102155630Y-97621057D01*
X102175840Y-97634561D01*
X102270535Y-97712274D01*
X102287725Y-97729464D01*
X102365438Y-97824159D01*
X102378942Y-97844369D01*
X102436690Y-97952407D01*
X102445993Y-97974865D01*
X102481554Y-98092093D01*
X102486296Y-98115935D01*
X102498903Y-98243938D01*
X102499500Y-98256092D01*
X102499500Y-104243907D01*
X102498903Y-104256061D01*
X102486296Y-104384064D01*
X102481554Y-104407906D01*
X102445993Y-104525134D01*
X102436690Y-104547592D01*
X102378942Y-104655630D01*
X102365438Y-104675840D01*
X102287725Y-104770535D01*
X102270535Y-104787725D01*
X102175840Y-104865438D01*
X102155630Y-104878942D01*
X102047592Y-104936690D01*
X102025134Y-104945993D01*
X101907906Y-104981554D01*
X101884064Y-104986296D01*
X101756062Y-104998903D01*
X101743908Y-104999500D01*
X100065892Y-104999500D01*
X100000000Y-104999500D01*
X99874802Y-104999500D01*
X99839167Y-105004623D01*
X99626955Y-105035135D01*
X99626951Y-105035136D01*
X99386708Y-105105676D01*
X99386702Y-105105678D01*
X99158938Y-105209695D01*
X99158920Y-105209705D01*
X98948291Y-105345068D01*
X98948285Y-105345072D01*
X98759047Y-105509047D01*
X98595072Y-105698285D01*
X98595068Y-105698291D01*
X98459705Y-105908920D01*
X98459695Y-105908938D01*
X98355678Y-106136702D01*
X98355676Y-106136708D01*
X98285136Y-106376951D01*
X98285135Y-106376955D01*
X98265730Y-106511922D01*
X98249500Y-106624802D01*
X98249500Y-106684108D01*
X98249500Y-138934108D01*
X98249500Y-139000000D01*
X98249500Y-139125198D01*
X98251307Y-139137764D01*
X98285135Y-139373044D01*
X98285136Y-139373048D01*
X98355676Y-139613291D01*
X98355678Y-139613297D01*
X98459695Y-139841061D01*
X98459705Y-139841079D01*
X98595068Y-140051708D01*
X98595072Y-140051714D01*
X98759047Y-140240952D01*
X98948285Y-140404927D01*
X98948291Y-140404931D01*
X99158920Y-140540294D01*
X99158928Y-140540298D01*
X99158932Y-140540301D01*
X99158935Y-140540302D01*
X99158938Y-140540304D01*
X99386702Y-140644321D01*
X99386708Y-140644323D01*
X99529594Y-140686277D01*
X99626954Y-140714864D01*
X99874802Y-140750500D01*
X99934108Y-140750500D01*
X101684108Y-140750500D01*
X101743908Y-140750500D01*
X101756061Y-140751097D01*
X101766635Y-140752138D01*
X101884069Y-140763704D01*
X101907897Y-140768443D01*
X102025140Y-140804008D01*
X102047589Y-140813308D01*
X102154223Y-140870305D01*
X102155630Y-140871057D01*
X102175839Y-140884560D01*
X102241564Y-140938499D01*
X102270535Y-140962274D01*
X102287725Y-140979464D01*
X102365438Y-141074159D01*
X102378942Y-141094369D01*
X102436690Y-141202407D01*
X102445992Y-141224864D01*
X102479622Y-141335726D01*
X102481554Y-141342093D01*
X102486296Y-141365935D01*
X102498903Y-141493938D01*
X102499500Y-141506092D01*
X102499500Y-147243907D01*
X102498903Y-147256061D01*
X102486296Y-147384064D01*
X102481554Y-147407906D01*
X102445993Y-147525134D01*
X102436690Y-147547592D01*
X102378942Y-147655630D01*
X102365438Y-147675840D01*
X102287725Y-147770535D01*
X102270535Y-147787725D01*
X102175840Y-147865438D01*
X102155630Y-147878942D01*
X102047592Y-147936690D01*
X102025134Y-147945993D01*
X101907906Y-147981554D01*
X101884064Y-147986296D01*
X101756062Y-147998903D01*
X101743908Y-147999500D01*
X68756092Y-147999500D01*
X68743938Y-147998903D01*
X68615935Y-147986296D01*
X68592095Y-147981554D01*
X68474864Y-147945992D01*
X68452407Y-147936690D01*
X68344369Y-147878942D01*
X68324159Y-147865438D01*
X68229464Y-147787725D01*
X68212274Y-147770535D01*
X68134561Y-147675840D01*
X68121057Y-147655630D01*
X68063308Y-147547589D01*
X68054008Y-147525140D01*
X68018443Y-147407897D01*
X68013704Y-147384069D01*
X68001097Y-147256060D01*
X68000500Y-147243907D01*
X68000500Y-146750500D01*
X68998500Y-146750500D01*
X69750500Y-146750500D01*
X75748500Y-146750500D01*
X77250500Y-146750500D01*
X86072752Y-146750500D01*
X87250500Y-146750500D01*
X87250500Y-145343000D01*
X88248500Y-145343000D01*
X88248500Y-146750500D01*
X89750500Y-146750500D01*
X89750500Y-145343000D01*
X90748500Y-145343000D01*
X90748500Y-146750500D01*
X92250500Y-146750500D01*
X93248500Y-146750500D01*
X94750500Y-146750500D01*
X95748500Y-146750500D01*
X97250500Y-146750500D01*
X97250500Y-145789999D01*
X98644341Y-145789999D01*
X98644341Y-145790000D01*
X98664936Y-146025403D01*
X98664938Y-146025413D01*
X98726094Y-146253655D01*
X98726096Y-146253659D01*
X98726097Y-146253663D01*
X98771253Y-146350500D01*
X98825965Y-146467830D01*
X98825967Y-146467834D01*
X98919858Y-146601923D01*
X98961505Y-146661401D01*
X99128599Y-146828495D01*
X99225384Y-146896265D01*
X99322165Y-146964032D01*
X99322167Y-146964033D01*
X99322170Y-146964035D01*
X99536337Y-147063903D01*
X99764592Y-147125063D01*
X99952918Y-147141539D01*
X99999999Y-147145659D01*
X100000000Y-147145659D01*
X100000001Y-147145659D01*
X100039234Y-147142226D01*
X100235408Y-147125063D01*
X100463663Y-147063903D01*
X100677830Y-146964035D01*
X100871401Y-146828495D01*
X101038495Y-146661401D01*
X101174035Y-146467830D01*
X101273903Y-146253663D01*
X101335063Y-146025408D01*
X101355659Y-145790000D01*
X101335063Y-145554592D01*
X101278502Y-145343500D01*
X101273905Y-145326344D01*
X101273904Y-145326343D01*
X101273903Y-145326337D01*
X101174035Y-145112171D01*
X101095492Y-145000000D01*
X101038496Y-144918600D01*
X101038495Y-144918599D01*
X100916179Y-144796283D01*
X100882696Y-144734963D01*
X100887680Y-144665271D01*
X100929551Y-144609337D01*
X100960529Y-144592422D01*
X101092086Y-144543354D01*
X101092093Y-144543350D01*
X101207187Y-144457190D01*
X101207190Y-144457187D01*
X101293350Y-144342093D01*
X101293354Y-144342086D01*
X101343596Y-144207379D01*
X101343598Y-144207372D01*
X101349999Y-144147844D01*
X101350000Y-144147827D01*
X101350000Y-143500000D01*
X100433012Y-143500000D01*
X100465925Y-143442993D01*
X100500000Y-143315826D01*
X100500000Y-143184174D01*
X100465925Y-143057007D01*
X100433012Y-143000000D01*
X101350000Y-143000000D01*
X101350000Y-142352172D01*
X101349999Y-142352155D01*
X101343598Y-142292627D01*
X101343596Y-142292620D01*
X101293354Y-142157913D01*
X101293350Y-142157906D01*
X101207190Y-142042812D01*
X101207187Y-142042809D01*
X101092093Y-141956649D01*
X101092086Y-141956645D01*
X100957379Y-141906403D01*
X100957372Y-141906401D01*
X100897844Y-141900000D01*
X100250000Y-141900000D01*
X100250000Y-142816988D01*
X100192993Y-142784075D01*
X100065826Y-142750000D01*
X99934174Y-142750000D01*
X99807007Y-142784075D01*
X99750000Y-142816988D01*
X99750000Y-141900000D01*
X99102155Y-141900000D01*
X99042627Y-141906401D01*
X99042620Y-141906403D01*
X98907913Y-141956645D01*
X98907906Y-141956649D01*
X98792812Y-142042809D01*
X98792809Y-142042812D01*
X98706649Y-142157906D01*
X98706645Y-142157913D01*
X98656403Y-142292620D01*
X98656401Y-142292627D01*
X98650000Y-142352155D01*
X98650000Y-143000000D01*
X99566988Y-143000000D01*
X99534075Y-143057007D01*
X99500000Y-143184174D01*
X99500000Y-143315826D01*
X99534075Y-143442993D01*
X99566988Y-143500000D01*
X98650000Y-143500000D01*
X98650000Y-144147844D01*
X98656401Y-144207372D01*
X98656403Y-144207379D01*
X98706645Y-144342086D01*
X98706649Y-144342093D01*
X98792809Y-144457187D01*
X98792812Y-144457190D01*
X98907906Y-144543350D01*
X98907913Y-144543354D01*
X99039470Y-144592421D01*
X99095403Y-144634292D01*
X99119821Y-144699756D01*
X99104970Y-144768029D01*
X99083819Y-144796284D01*
X98961503Y-144918600D01*
X98825965Y-145112169D01*
X98825964Y-145112171D01*
X98726098Y-145326335D01*
X98726094Y-145326344D01*
X98664938Y-145554586D01*
X98664936Y-145554596D01*
X98644341Y-145789999D01*
X97250500Y-145789999D01*
X97250500Y-145248500D01*
X95748500Y-145248500D01*
X95748500Y-146750500D01*
X94750500Y-146750500D01*
X94750500Y-145334791D01*
X94748207Y-145335137D01*
X94743605Y-145335743D01*
X94715712Y-145338885D01*
X94711092Y-145339318D01*
X94673864Y-145342106D01*
X94669239Y-145342365D01*
X94641222Y-145343413D01*
X94636587Y-145343500D01*
X94329413Y-145343500D01*
X94324778Y-145343413D01*
X94296761Y-145342365D01*
X94292136Y-145342106D01*
X94254908Y-145339318D01*
X94250288Y-145338885D01*
X94222395Y-145335743D01*
X94217794Y-145335137D01*
X93914025Y-145289351D01*
X93909453Y-145288574D01*
X93881886Y-145283358D01*
X93877345Y-145282411D01*
X93840947Y-145274103D01*
X93836448Y-145272987D01*
X93809353Y-145265727D01*
X93804896Y-145264443D01*
X93753211Y-145248500D01*
X93248500Y-145248500D01*
X93248500Y-146750500D01*
X92250500Y-146750500D01*
X92250500Y-145248500D01*
X91226638Y-145248500D01*
X91129904Y-145284579D01*
X91122564Y-145287058D01*
X91077695Y-145300668D01*
X91070212Y-145302685D01*
X91009501Y-145317028D01*
X91001916Y-145318572D01*
X90955738Y-145326478D01*
X90948069Y-145327545D01*
X90844217Y-145338711D01*
X90840905Y-145339023D01*
X90820856Y-145340636D01*
X90817542Y-145340858D01*
X90790855Y-145342287D01*
X90787539Y-145342420D01*
X90767491Y-145342956D01*
X90764177Y-145343000D01*
X90748500Y-145343000D01*
X89750500Y-145343000D01*
X89452454Y-145343000D01*
X89405000Y-145333561D01*
X89403000Y-145332732D01*
X89401000Y-145333561D01*
X89353546Y-145343000D01*
X88248500Y-145343000D01*
X87250500Y-145343000D01*
X87250500Y-145248500D01*
X86373500Y-145248500D01*
X86373500Y-145911248D01*
X86373455Y-145914572D01*
X86372916Y-145934673D01*
X86372783Y-145937993D01*
X86371351Y-145964680D01*
X86371129Y-145967989D01*
X86369519Y-145987982D01*
X86369208Y-145991285D01*
X86358038Y-146095175D01*
X86356971Y-146102843D01*
X86349064Y-146149029D01*
X86347519Y-146156619D01*
X86333174Y-146217330D01*
X86331158Y-146224809D01*
X86317550Y-146269672D01*
X86315071Y-146277012D01*
X86241413Y-146474502D01*
X86238025Y-146482682D01*
X86215767Y-146531419D01*
X86211805Y-146539333D01*
X86177628Y-146601923D01*
X86173110Y-146609537D01*
X86144146Y-146654604D01*
X86139098Y-146661874D01*
X86072752Y-146750500D01*
X77250500Y-146750500D01*
X77250500Y-146626781D01*
X77185419Y-146561700D01*
X77181677Y-146557792D01*
X77159577Y-146533674D01*
X77156014Y-146529611D01*
X77128013Y-146496244D01*
X77124625Y-146492022D01*
X77104689Y-146466042D01*
X77101488Y-146461678D01*
X76940956Y-146232415D01*
X76937950Y-146227916D01*
X76920358Y-146200302D01*
X76917549Y-146195673D01*
X76895771Y-146157949D01*
X76893171Y-146153209D01*
X76878064Y-146124188D01*
X76875672Y-146119337D01*
X76757402Y-145865708D01*
X76755223Y-145860756D01*
X76742705Y-145830535D01*
X76740747Y-145825500D01*
X76725846Y-145784568D01*
X76724105Y-145779440D01*
X76714256Y-145748205D01*
X76712741Y-145743008D01*
X76640305Y-145472666D01*
X76639019Y-145467412D01*
X76631934Y-145435454D01*
X76630879Y-145430146D01*
X76623316Y-145387251D01*
X76622493Y-145381904D01*
X76618222Y-145349461D01*
X76617633Y-145344085D01*
X76609270Y-145248500D01*
X75748500Y-145248500D01*
X75748500Y-146750500D01*
X69750500Y-146750500D01*
X69750500Y-145248500D01*
X68998500Y-145248500D01*
X68998500Y-146750500D01*
X68000500Y-146750500D01*
X68000500Y-144250500D01*
X68998500Y-144250500D01*
X69750500Y-144250500D01*
X69750500Y-142748500D01*
X68998500Y-142748500D01*
X68998500Y-144250500D01*
X68000500Y-144250500D01*
X68000500Y-141750500D01*
X68998500Y-141750500D01*
X69750500Y-141750500D01*
X69750500Y-140248500D01*
X68998500Y-140248500D01*
X68998500Y-141750500D01*
X68000500Y-141750500D01*
X68000500Y-139805646D01*
X70749500Y-139805646D01*
X70749500Y-140034353D01*
X70785278Y-140260246D01*
X70785278Y-140260249D01*
X70855950Y-140477755D01*
X70918878Y-140601258D01*
X70959783Y-140681538D01*
X71094214Y-140866566D01*
X71255934Y-141028286D01*
X71293051Y-141055253D01*
X71340438Y-141089682D01*
X71383103Y-141145013D01*
X71389082Y-141214626D01*
X71356476Y-141276421D01*
X71340438Y-141290318D01*
X71255932Y-141351715D01*
X71094216Y-141513431D01*
X71094216Y-141513432D01*
X71094214Y-141513434D01*
X71036480Y-141592896D01*
X70959783Y-141698461D01*
X70855950Y-141902244D01*
X70785278Y-142119750D01*
X70785278Y-142119753D01*
X70760547Y-142275897D01*
X70749500Y-142345646D01*
X70749500Y-142574354D01*
X70759690Y-142638691D01*
X70785278Y-142800246D01*
X70785278Y-142800249D01*
X70855950Y-143017755D01*
X70910102Y-143124034D01*
X70959783Y-143221538D01*
X71092525Y-143404242D01*
X71116005Y-143470046D01*
X71100180Y-143538100D01*
X71050074Y-143586795D01*
X71035541Y-143593308D01*
X71007670Y-143603703D01*
X71007664Y-143603706D01*
X70892455Y-143689952D01*
X70892452Y-143689955D01*
X70806206Y-143805164D01*
X70806202Y-143805171D01*
X70755908Y-143940017D01*
X70749501Y-143999616D01*
X70749501Y-143999623D01*
X70749500Y-143999635D01*
X70749500Y-146000370D01*
X70749501Y-146000376D01*
X70755908Y-146059983D01*
X70806202Y-146194828D01*
X70806206Y-146194835D01*
X70892452Y-146310044D01*
X70892455Y-146310047D01*
X71007664Y-146396293D01*
X71007671Y-146396297D01*
X71142517Y-146446591D01*
X71142516Y-146446591D01*
X71149444Y-146447335D01*
X71202127Y-146453000D01*
X73297872Y-146452999D01*
X73357483Y-146446591D01*
X73492331Y-146396296D01*
X73607546Y-146310046D01*
X73693796Y-146194831D01*
X73744091Y-146059983D01*
X73750500Y-146000373D01*
X73750499Y-144999999D01*
X77589341Y-144999999D01*
X77589341Y-145000000D01*
X77609936Y-145235403D01*
X77609938Y-145235413D01*
X77671094Y-145463655D01*
X77671096Y-145463659D01*
X77671097Y-145463663D01*
X77713498Y-145554592D01*
X77770965Y-145677830D01*
X77770967Y-145677834D01*
X77849507Y-145790000D01*
X77906505Y-145871401D01*
X78073599Y-146038495D01*
X78154546Y-146095175D01*
X78267165Y-146174032D01*
X78267167Y-146174033D01*
X78267170Y-146174035D01*
X78481337Y-146273903D01*
X78709592Y-146335063D01*
X78886034Y-146350500D01*
X78944999Y-146355659D01*
X78945000Y-146355659D01*
X78945001Y-146355659D01*
X79003966Y-146350500D01*
X79180408Y-146335063D01*
X79408663Y-146273903D01*
X79622830Y-146174035D01*
X79816401Y-146038495D01*
X79983495Y-145871401D01*
X80113425Y-145685842D01*
X80168002Y-145642217D01*
X80237500Y-145635023D01*
X80299855Y-145666546D01*
X80316575Y-145685842D01*
X80446500Y-145871395D01*
X80446505Y-145871401D01*
X80613599Y-146038495D01*
X80694546Y-146095175D01*
X80807165Y-146174032D01*
X80807167Y-146174033D01*
X80807170Y-146174035D01*
X81021337Y-146273903D01*
X81249592Y-146335063D01*
X81426034Y-146350500D01*
X81484999Y-146355659D01*
X81485000Y-146355659D01*
X81485001Y-146355659D01*
X81543966Y-146350500D01*
X81720408Y-146335063D01*
X81948663Y-146273903D01*
X82162830Y-146174035D01*
X82356401Y-146038495D01*
X82478329Y-145916566D01*
X82539648Y-145883084D01*
X82609340Y-145888068D01*
X82665274Y-145929939D01*
X82682189Y-145960917D01*
X82731202Y-146092328D01*
X82731206Y-146092335D01*
X82817452Y-146207544D01*
X82817455Y-146207547D01*
X82932664Y-146293793D01*
X82932671Y-146293797D01*
X83067517Y-146344091D01*
X83067516Y-146344091D01*
X83074444Y-146344835D01*
X83127127Y-146350500D01*
X84922872Y-146350499D01*
X84982483Y-146344091D01*
X85117331Y-146293796D01*
X85232546Y-146207546D01*
X85318796Y-146092331D01*
X85369091Y-145957483D01*
X85375500Y-145897873D01*
X85375499Y-144102128D01*
X85369091Y-144042517D01*
X85367810Y-144039083D01*
X85318797Y-143907671D01*
X85318793Y-143907664D01*
X85232547Y-143792455D01*
X85232544Y-143792452D01*
X85117335Y-143706206D01*
X85117328Y-143706202D01*
X84982482Y-143655908D01*
X84982483Y-143655908D01*
X84922883Y-143649501D01*
X84922881Y-143649500D01*
X84922873Y-143649500D01*
X84922864Y-143649500D01*
X83127129Y-143649500D01*
X83127123Y-143649501D01*
X83067516Y-143655908D01*
X82932671Y-143706202D01*
X82932664Y-143706206D01*
X82817455Y-143792452D01*
X82817452Y-143792455D01*
X82731206Y-143907664D01*
X82731203Y-143907669D01*
X82682189Y-144039083D01*
X82640317Y-144095016D01*
X82574853Y-144119433D01*
X82506580Y-144104581D01*
X82478326Y-144083430D01*
X82356402Y-143961506D01*
X82356395Y-143961501D01*
X82353597Y-143959542D01*
X82310749Y-143929539D01*
X82162834Y-143825967D01*
X82162830Y-143825965D01*
X82118222Y-143805164D01*
X81948663Y-143726097D01*
X81948659Y-143726096D01*
X81948655Y-143726094D01*
X81720413Y-143664938D01*
X81720403Y-143664936D01*
X81485001Y-143644341D01*
X81484999Y-143644341D01*
X81249596Y-143664936D01*
X81249586Y-143664938D01*
X81021344Y-143726094D01*
X81021335Y-143726098D01*
X80807171Y-143825964D01*
X80807169Y-143825965D01*
X80613597Y-143961505D01*
X80446505Y-144128597D01*
X80316575Y-144314158D01*
X80261998Y-144357783D01*
X80192500Y-144364977D01*
X80130145Y-144333454D01*
X80113425Y-144314158D01*
X79983494Y-144128597D01*
X79816402Y-143961506D01*
X79816395Y-143961501D01*
X79813597Y-143959542D01*
X79770749Y-143929539D01*
X79622834Y-143825967D01*
X79622830Y-143825965D01*
X79578222Y-143805164D01*
X79408663Y-143726097D01*
X79408659Y-143726096D01*
X79408655Y-143726094D01*
X79180413Y-143664938D01*
X79180403Y-143664936D01*
X78945001Y-143644341D01*
X78944999Y-143644341D01*
X78709596Y-143664936D01*
X78709586Y-143664938D01*
X78481344Y-143726094D01*
X78481335Y-143726098D01*
X78267171Y-143825964D01*
X78267169Y-143825965D01*
X78073597Y-143961505D01*
X77906505Y-144128597D01*
X77770965Y-144322169D01*
X77770964Y-144322171D01*
X77671098Y-144536335D01*
X77671094Y-144536344D01*
X77609938Y-144764586D01*
X77609936Y-144764596D01*
X77589341Y-144999999D01*
X73750499Y-144999999D01*
X73750499Y-143999628D01*
X73744091Y-143940017D01*
X73730968Y-143904833D01*
X73693797Y-143805171D01*
X73693793Y-143805164D01*
X73607547Y-143689955D01*
X73607544Y-143689952D01*
X73492335Y-143603706D01*
X73492328Y-143603702D01*
X73464459Y-143593308D01*
X73408525Y-143551437D01*
X73384108Y-143485973D01*
X73398960Y-143417700D01*
X73407460Y-143404260D01*
X73540217Y-143221538D01*
X73644048Y-143017758D01*
X73657438Y-142976547D01*
X73683055Y-142897707D01*
X73722492Y-142840032D01*
X73786851Y-142812833D01*
X73855697Y-142824747D01*
X73907173Y-142871991D01*
X73915547Y-142888573D01*
X73951983Y-142976540D01*
X73951990Y-142976553D01*
X74050535Y-143124034D01*
X74050538Y-143124038D01*
X74175961Y-143249461D01*
X74175965Y-143249464D01*
X74323446Y-143348009D01*
X74323459Y-143348016D01*
X74425937Y-143390463D01*
X74487334Y-143415894D01*
X74487336Y-143415894D01*
X74487341Y-143415896D01*
X74661304Y-143450499D01*
X74661307Y-143450500D01*
X74661309Y-143450500D01*
X76838693Y-143450500D01*
X76838694Y-143450499D01*
X77012666Y-143415895D01*
X77094606Y-143381953D01*
X77176547Y-143348013D01*
X77284637Y-143275789D01*
X77324036Y-143249464D01*
X77641465Y-142932035D01*
X85748500Y-142932035D01*
X85859173Y-143014886D01*
X85866064Y-143020439D01*
X85906549Y-143055519D01*
X85913028Y-143061551D01*
X85963449Y-143111972D01*
X85969481Y-143118451D01*
X86004561Y-143158936D01*
X86010114Y-143165827D01*
X86139098Y-143338126D01*
X86144146Y-143345396D01*
X86173110Y-143390463D01*
X86177628Y-143398077D01*
X86211805Y-143460667D01*
X86215767Y-143468581D01*
X86238025Y-143517318D01*
X86241413Y-143525498D01*
X86315069Y-143722982D01*
X86317548Y-143730321D01*
X86331153Y-143775172D01*
X86333168Y-143782648D01*
X86347516Y-143843363D01*
X86349061Y-143850955D01*
X86356972Y-143897160D01*
X86358041Y-143904833D01*
X86369212Y-144008755D01*
X86369523Y-144012064D01*
X86371135Y-144032101D01*
X86371357Y-144035413D01*
X86372786Y-144062095D01*
X86372919Y-144065413D01*
X86373455Y-144085464D01*
X86373499Y-144088778D01*
X86373499Y-144250500D01*
X86656676Y-144250500D01*
X86647332Y-144219695D01*
X86645315Y-144212212D01*
X86630972Y-144151501D01*
X86629428Y-144143916D01*
X86621522Y-144097738D01*
X86620455Y-144090069D01*
X86609289Y-143986217D01*
X86608977Y-143982905D01*
X86607364Y-143962856D01*
X86607142Y-143959542D01*
X86605713Y-143932855D01*
X86605580Y-143929539D01*
X86605044Y-143909491D01*
X86605000Y-143906177D01*
X86605000Y-142748500D01*
X85748500Y-142748500D01*
X85748500Y-142932035D01*
X77641465Y-142932035D01*
X79237772Y-141335726D01*
X83248500Y-141335726D01*
X83248500Y-141750500D01*
X84750500Y-141750500D01*
X85748500Y-141750500D01*
X86605000Y-141750500D01*
X86605000Y-141197155D01*
X87603000Y-141197155D01*
X87603000Y-142295000D01*
X88802999Y-142295000D01*
X88777979Y-142355402D01*
X88753000Y-142480981D01*
X88753000Y-142609019D01*
X88777979Y-142734598D01*
X88802999Y-142795000D01*
X87603000Y-142795000D01*
X87603000Y-143892844D01*
X87609401Y-143952372D01*
X87609403Y-143952379D01*
X87659645Y-144087086D01*
X87659649Y-144087093D01*
X87745809Y-144202187D01*
X87745812Y-144202190D01*
X87860906Y-144288350D01*
X87860913Y-144288354D01*
X87995620Y-144338596D01*
X87995627Y-144338598D01*
X88055155Y-144344999D01*
X88055172Y-144345000D01*
X89153000Y-144345000D01*
X89153000Y-143145001D01*
X89213402Y-143170021D01*
X89338981Y-143195000D01*
X89467019Y-143195000D01*
X89592598Y-143170021D01*
X89653000Y-143145001D01*
X89653000Y-144345000D01*
X90750828Y-144345000D01*
X90750844Y-144344999D01*
X90810372Y-144338598D01*
X90810379Y-144338596D01*
X90945086Y-144288354D01*
X90945093Y-144288350D01*
X91060187Y-144202190D01*
X91060190Y-144202187D01*
X91146350Y-144087093D01*
X91146354Y-144087086D01*
X91196596Y-143952379D01*
X91196598Y-143952372D01*
X91202999Y-143892844D01*
X91203000Y-143892827D01*
X91203000Y-142795000D01*
X90003001Y-142795000D01*
X90028021Y-142734598D01*
X90053000Y-142609019D01*
X90053000Y-142544995D01*
X92677451Y-142544995D01*
X92677451Y-142545004D01*
X92697616Y-142814101D01*
X92757664Y-143077188D01*
X92757666Y-143077195D01*
X92835609Y-143275790D01*
X92856257Y-143328398D01*
X92991185Y-143562102D01*
X93093144Y-143689954D01*
X93159442Y-143773089D01*
X93304486Y-143907669D01*
X93357259Y-143956635D01*
X93580226Y-144108651D01*
X93823359Y-144225738D01*
X94081228Y-144305280D01*
X94081229Y-144305280D01*
X94081232Y-144305281D01*
X94348063Y-144345499D01*
X94348068Y-144345499D01*
X94348071Y-144345500D01*
X94348072Y-144345500D01*
X94617928Y-144345500D01*
X94617929Y-144345500D01*
X94617936Y-144345499D01*
X94884767Y-144305281D01*
X94884768Y-144305280D01*
X94884772Y-144305280D01*
X95142641Y-144225738D01*
X95334765Y-144133216D01*
X95385767Y-144108655D01*
X95385767Y-144108654D01*
X95385775Y-144108651D01*
X95608741Y-143956635D01*
X95762259Y-143814190D01*
X95806557Y-143773089D01*
X95806557Y-143773087D01*
X95806561Y-143773085D01*
X95974815Y-143562102D01*
X96109743Y-143328398D01*
X96208334Y-143077195D01*
X96268383Y-142814103D01*
X96283752Y-142609019D01*
X96288549Y-142545004D01*
X96288549Y-142544995D01*
X96271744Y-142320747D01*
X96268383Y-142275897D01*
X96208334Y-142012805D01*
X96109743Y-141761602D01*
X95974815Y-141527898D01*
X95806561Y-141316915D01*
X95806560Y-141316914D01*
X95806557Y-141316910D01*
X95608741Y-141133365D01*
X95599338Y-141126954D01*
X95385775Y-140981349D01*
X95385769Y-140981346D01*
X95385768Y-140981345D01*
X95385767Y-140981344D01*
X95142643Y-140864263D01*
X95142645Y-140864263D01*
X94884773Y-140784720D01*
X94884767Y-140784718D01*
X94617936Y-140744500D01*
X94617929Y-140744500D01*
X94348071Y-140744500D01*
X94348063Y-140744500D01*
X94081232Y-140784718D01*
X94081226Y-140784720D01*
X93823358Y-140864262D01*
X93580230Y-140981346D01*
X93357258Y-141133365D01*
X93159442Y-141316910D01*
X92991185Y-141527898D01*
X92856258Y-141761599D01*
X92856256Y-141761603D01*
X92757666Y-142012804D01*
X92757664Y-142012811D01*
X92697616Y-142275898D01*
X92677451Y-142544995D01*
X90053000Y-142544995D01*
X90053000Y-142480981D01*
X90028021Y-142355402D01*
X90003001Y-142295000D01*
X91203000Y-142295000D01*
X91203000Y-141197172D01*
X91202999Y-141197155D01*
X91196598Y-141137627D01*
X91196596Y-141137620D01*
X91146354Y-141002913D01*
X91146350Y-141002906D01*
X91060190Y-140887812D01*
X91060187Y-140887809D01*
X90945093Y-140801649D01*
X90945086Y-140801645D01*
X90810379Y-140751403D01*
X90810372Y-140751401D01*
X90750844Y-140745000D01*
X89653000Y-140745000D01*
X89653000Y-141944998D01*
X89592598Y-141919979D01*
X89467019Y-141895000D01*
X89338981Y-141895000D01*
X89213402Y-141919979D01*
X89153000Y-141944998D01*
X89153000Y-140745000D01*
X88055155Y-140745000D01*
X87995627Y-140751401D01*
X87995620Y-140751403D01*
X87860913Y-140801645D01*
X87860906Y-140801649D01*
X87745812Y-140887809D01*
X87745809Y-140887812D01*
X87659649Y-141002906D01*
X87659645Y-141002913D01*
X87609403Y-141137620D01*
X87609401Y-141137627D01*
X87603000Y-141197155D01*
X86605000Y-141197155D01*
X86605000Y-141183823D01*
X86605044Y-141180509D01*
X86605580Y-141160461D01*
X86605713Y-141157145D01*
X86607142Y-141130458D01*
X86607364Y-141127144D01*
X86608977Y-141107095D01*
X86609289Y-141103783D01*
X86620455Y-140999931D01*
X86621522Y-140992262D01*
X86629428Y-140946084D01*
X86630972Y-140938499D01*
X86645315Y-140877788D01*
X86647332Y-140870305D01*
X86660942Y-140825436D01*
X86663421Y-140818096D01*
X86737030Y-140620739D01*
X86740419Y-140612559D01*
X86762677Y-140563823D01*
X86766638Y-140555909D01*
X86800815Y-140493319D01*
X86805333Y-140485705D01*
X86834297Y-140440638D01*
X86839345Y-140433368D01*
X86968243Y-140261184D01*
X86973796Y-140254293D01*
X86978816Y-140248500D01*
X96082522Y-140248500D01*
X96186361Y-140319296D01*
X96190146Y-140321982D01*
X96212725Y-140338647D01*
X96216404Y-140341470D01*
X96245591Y-140364747D01*
X96249161Y-140367705D01*
X96270416Y-140385997D01*
X96273872Y-140389085D01*
X96499069Y-140598036D01*
X96502414Y-140601258D01*
X96522277Y-140621123D01*
X96525497Y-140624467D01*
X96550887Y-140651836D01*
X96553974Y-140655291D01*
X96572247Y-140676527D01*
X96575201Y-140680092D01*
X96766723Y-140920251D01*
X96769548Y-140923933D01*
X96786212Y-140946513D01*
X96788895Y-140950295D01*
X96809925Y-140981142D01*
X96812464Y-140985020D01*
X96827385Y-141008767D01*
X96829778Y-141012738D01*
X96983370Y-141278768D01*
X96985614Y-141282827D01*
X96998721Y-141307627D01*
X97000809Y-141311764D01*
X97017007Y-141345398D01*
X97018942Y-141349617D01*
X97030160Y-141375330D01*
X97031934Y-141379612D01*
X97144160Y-141665557D01*
X97145773Y-141669903D01*
X97155032Y-141696362D01*
X97156479Y-141700760D01*
X97167486Y-141736434D01*
X97168772Y-141740897D01*
X97171345Y-141750500D01*
X97250500Y-141750500D01*
X97250500Y-140248500D01*
X96082522Y-140248500D01*
X86978816Y-140248500D01*
X85748500Y-140248500D01*
X85748500Y-141750500D01*
X84750500Y-141750500D01*
X84750500Y-140248500D01*
X83720258Y-140248500D01*
X83716729Y-140286587D01*
X83716069Y-140292276D01*
X83711280Y-140326609D01*
X83710357Y-140332266D01*
X83701881Y-140377602D01*
X83700699Y-140383205D01*
X83692766Y-140416933D01*
X83691326Y-140422476D01*
X83617824Y-140680808D01*
X83616131Y-140686277D01*
X83605129Y-140719105D01*
X83603187Y-140724485D01*
X83586530Y-140767494D01*
X83584336Y-140772792D01*
X83570325Y-140804528D01*
X83567888Y-140809719D01*
X83448149Y-141050185D01*
X83445477Y-141055253D01*
X83428609Y-141085536D01*
X83425707Y-141090475D01*
X83401427Y-141129687D01*
X83398300Y-141134486D01*
X83378719Y-141163070D01*
X83375374Y-141167719D01*
X83248500Y-141335726D01*
X79237772Y-141335726D01*
X79686680Y-140886818D01*
X79748003Y-140853334D01*
X79774361Y-140850500D01*
X80697802Y-140850500D01*
X80764841Y-140870185D01*
X80781336Y-140882859D01*
X80813438Y-140912124D01*
X80813440Y-140912125D01*
X80813441Y-140912126D01*
X81002595Y-141029245D01*
X81002596Y-141029245D01*
X81002599Y-141029247D01*
X81210060Y-141109618D01*
X81428757Y-141150500D01*
X81428759Y-141150500D01*
X81651241Y-141150500D01*
X81651243Y-141150500D01*
X81869940Y-141109618D01*
X82077401Y-141029247D01*
X82266562Y-140912124D01*
X82430981Y-140762236D01*
X82565058Y-140584689D01*
X82664229Y-140385528D01*
X82725115Y-140171536D01*
X82745643Y-139950000D01*
X82735548Y-139841061D01*
X82725115Y-139728464D01*
X82725114Y-139728462D01*
X82714867Y-139692448D01*
X82664229Y-139514472D01*
X82593806Y-139373044D01*
X82565061Y-139315316D01*
X82565056Y-139315308D01*
X82430979Y-139137761D01*
X82266562Y-138987876D01*
X82266560Y-138987874D01*
X82077404Y-138870754D01*
X82077398Y-138870752D01*
X81869940Y-138790382D01*
X81651243Y-138749500D01*
X81428757Y-138749500D01*
X81210060Y-138790382D01*
X81078864Y-138841207D01*
X81002601Y-138870752D01*
X81002595Y-138870754D01*
X80813441Y-138987873D01*
X80813438Y-138987876D01*
X80781339Y-139017137D01*
X80718536Y-139047754D01*
X80697802Y-139049500D01*
X79261306Y-139049500D01*
X79178901Y-139065892D01*
X79178900Y-139065892D01*
X79087341Y-139084103D01*
X79087332Y-139084106D01*
X78923459Y-139151983D01*
X78923446Y-139151990D01*
X78776286Y-139250320D01*
X78776287Y-139250321D01*
X78775964Y-139250536D01*
X78775962Y-139250538D01*
X77866522Y-140159977D01*
X77805199Y-140193462D01*
X77735507Y-140188478D01*
X77679574Y-140146606D01*
X77655157Y-140081142D01*
X77655369Y-140060866D01*
X77665643Y-139950000D01*
X77655548Y-139841061D01*
X77645115Y-139728464D01*
X77645114Y-139728462D01*
X77634867Y-139692448D01*
X77584229Y-139514472D01*
X77513806Y-139373044D01*
X77485061Y-139315316D01*
X77485056Y-139315308D01*
X77350979Y-139137761D01*
X77186562Y-138987876D01*
X77186560Y-138987874D01*
X76997404Y-138870754D01*
X76997398Y-138870752D01*
X76789940Y-138790382D01*
X76571243Y-138749500D01*
X76348757Y-138749500D01*
X76130060Y-138790382D01*
X75998864Y-138841207D01*
X75922601Y-138870752D01*
X75922595Y-138870754D01*
X75733439Y-138987874D01*
X75733437Y-138987876D01*
X75569020Y-139137761D01*
X75434943Y-139315308D01*
X75434938Y-139315316D01*
X75335775Y-139514461D01*
X75335769Y-139514476D01*
X75274885Y-139728462D01*
X75274884Y-139728464D01*
X75254357Y-139949999D01*
X75254357Y-139950000D01*
X75274884Y-140171535D01*
X75274885Y-140171537D01*
X75335769Y-140385523D01*
X75335775Y-140385538D01*
X75434938Y-140584683D01*
X75434943Y-140584691D01*
X75569020Y-140762238D01*
X75733437Y-140912123D01*
X75733439Y-140912125D01*
X75922595Y-141029245D01*
X75922596Y-141029245D01*
X75922599Y-141029247D01*
X76130060Y-141109618D01*
X76348757Y-141150500D01*
X76348759Y-141150500D01*
X76576638Y-141150500D01*
X76643677Y-141170185D01*
X76689432Y-141222989D01*
X76699376Y-141292147D01*
X76670351Y-141355703D01*
X76664319Y-141362181D01*
X76413319Y-141613181D01*
X76351996Y-141646666D01*
X76325638Y-141649500D01*
X74661306Y-141649500D01*
X74487341Y-141684103D01*
X74487332Y-141684106D01*
X74323459Y-141751983D01*
X74323446Y-141751990D01*
X74175965Y-141850535D01*
X74175961Y-141850538D01*
X74050538Y-141975961D01*
X74050535Y-141975965D01*
X73951990Y-142123446D01*
X73951982Y-142123461D01*
X73948320Y-142132303D01*
X73904477Y-142186705D01*
X73838182Y-142208767D01*
X73770483Y-142191485D01*
X73722875Y-142140346D01*
X73715830Y-142123164D01*
X73644049Y-141902244D01*
X73640358Y-141895000D01*
X73540217Y-141698462D01*
X73405786Y-141513434D01*
X73244066Y-141351714D01*
X73159559Y-141290316D01*
X73116896Y-141234988D01*
X73110917Y-141165375D01*
X73143523Y-141103580D01*
X73159556Y-141089685D01*
X73244066Y-141028286D01*
X73405786Y-140866566D01*
X73540217Y-140681538D01*
X73644048Y-140477758D01*
X73667712Y-140404927D01*
X73714721Y-140260249D01*
X73714721Y-140260248D01*
X73714722Y-140260245D01*
X73750500Y-140034354D01*
X73750500Y-139805646D01*
X73714722Y-139579755D01*
X73714721Y-139579751D01*
X73714721Y-139579750D01*
X73644049Y-139362244D01*
X73587132Y-139250538D01*
X73540217Y-139158462D01*
X73405786Y-138973434D01*
X73244066Y-138811714D01*
X73059038Y-138677283D01*
X73012807Y-138653727D01*
X72855255Y-138573450D01*
X72637748Y-138502778D01*
X72468326Y-138475944D01*
X72411854Y-138467000D01*
X72088146Y-138467000D01*
X72012849Y-138478926D01*
X71862253Y-138502778D01*
X71862250Y-138502778D01*
X71644744Y-138573450D01*
X71440961Y-138677283D01*
X71365264Y-138732281D01*
X71255934Y-138811714D01*
X71255932Y-138811716D01*
X71255931Y-138811716D01*
X71094216Y-138973431D01*
X71094216Y-138973432D01*
X71094214Y-138973434D01*
X71074913Y-139000000D01*
X70959783Y-139158461D01*
X70855950Y-139362244D01*
X70785278Y-139579750D01*
X70785278Y-139579753D01*
X70749500Y-139805646D01*
X68000500Y-139805646D01*
X68000500Y-139250500D01*
X68998500Y-139250500D01*
X69750500Y-139250500D01*
X69750500Y-137748500D01*
X73434483Y-137748500D01*
X73529583Y-137796956D01*
X73533876Y-137799251D01*
X73559572Y-137813641D01*
X73563773Y-137816103D01*
X73597197Y-137836585D01*
X73601298Y-137839210D01*
X73625795Y-137855578D01*
X73629791Y-137858363D01*
X73846536Y-138015838D01*
X73850419Y-138018778D01*
X73873553Y-138037016D01*
X73877316Y-138040104D01*
X73907123Y-138065562D01*
X73910763Y-138068797D01*
X73932391Y-138088790D01*
X73935900Y-138092164D01*
X74125336Y-138281600D01*
X74128710Y-138285109D01*
X74148703Y-138306737D01*
X74151938Y-138310377D01*
X74177396Y-138340184D01*
X74180484Y-138343947D01*
X74198722Y-138367081D01*
X74201662Y-138370964D01*
X74359137Y-138587709D01*
X74361922Y-138591705D01*
X74378290Y-138616202D01*
X74380915Y-138620303D01*
X74401397Y-138653727D01*
X74403859Y-138657928D01*
X74418249Y-138683624D01*
X74420544Y-138687917D01*
X74527723Y-138898268D01*
X74551851Y-138849815D01*
X74554523Y-138844747D01*
X74571391Y-138814464D01*
X74574293Y-138809525D01*
X74598573Y-138770313D01*
X74601700Y-138765514D01*
X74621281Y-138736930D01*
X74624626Y-138732281D01*
X74750500Y-138565596D01*
X74750500Y-138334402D01*
X74671499Y-138229789D01*
X78248500Y-138229789D01*
X78248500Y-138402691D01*
X78349979Y-138334885D01*
X83248500Y-138334885D01*
X83248500Y-138564272D01*
X83375374Y-138732281D01*
X83378719Y-138736930D01*
X83398300Y-138765514D01*
X83401427Y-138770313D01*
X83425707Y-138809525D01*
X83428609Y-138814464D01*
X83445477Y-138844747D01*
X83448149Y-138849815D01*
X83567888Y-139090281D01*
X83570325Y-139095472D01*
X83584336Y-139127208D01*
X83586530Y-139132506D01*
X83603187Y-139175515D01*
X83605129Y-139180895D01*
X83616131Y-139213723D01*
X83617824Y-139219192D01*
X83626732Y-139250500D01*
X84750500Y-139250500D01*
X85748500Y-139250500D01*
X87250500Y-139250500D01*
X88248500Y-139250500D01*
X89750500Y-139250500D01*
X90748500Y-139250500D01*
X92250500Y-139250500D01*
X93248500Y-139250500D01*
X94750500Y-139250500D01*
X95748500Y-139250500D01*
X97250500Y-139250500D01*
X97250500Y-137748500D01*
X95748500Y-137748500D01*
X95748500Y-139250500D01*
X94750500Y-139250500D01*
X94750500Y-137748500D01*
X93248500Y-137748500D01*
X93248500Y-139250500D01*
X92250500Y-139250500D01*
X92250500Y-137748500D01*
X90748500Y-137748500D01*
X90748500Y-139250500D01*
X89750500Y-139250500D01*
X89750500Y-137748500D01*
X88248500Y-137748500D01*
X88248500Y-139250500D01*
X87250500Y-139250500D01*
X87250500Y-137748500D01*
X85748500Y-137748500D01*
X85748500Y-139250500D01*
X84750500Y-139250500D01*
X84750500Y-137748500D01*
X83593348Y-137748500D01*
X83586039Y-137767366D01*
X83583847Y-137772658D01*
X83569847Y-137804365D01*
X83567413Y-137809551D01*
X83447721Y-138049924D01*
X83445050Y-138054990D01*
X83428181Y-138085276D01*
X83425277Y-138090219D01*
X83400990Y-138129441D01*
X83397862Y-138134241D01*
X83378273Y-138162835D01*
X83374927Y-138167485D01*
X83248500Y-138334885D01*
X78349979Y-138334885D01*
X78389368Y-138308566D01*
X78394512Y-138305309D01*
X78426106Y-138286373D01*
X78431401Y-138283373D01*
X78474623Y-138260271D01*
X78480062Y-138257534D01*
X78513344Y-138241794D01*
X78518905Y-138239329D01*
X78728051Y-138152699D01*
X78733728Y-138150509D01*
X78768380Y-138138110D01*
X78774155Y-138136202D01*
X78821048Y-138121975D01*
X78826914Y-138120351D01*
X78862651Y-138111398D01*
X78868594Y-138110064D01*
X78984193Y-138087070D01*
X79090638Y-138065896D01*
X79096636Y-138064855D01*
X79133069Y-138059451D01*
X79139111Y-138058706D01*
X79187884Y-138053903D01*
X79193953Y-138053455D01*
X79230725Y-138051649D01*
X79236808Y-138051500D01*
X79633109Y-138051500D01*
X79632279Y-138049925D01*
X79585948Y-137956880D01*
X80886671Y-137956880D01*
X81002823Y-138028798D01*
X81002824Y-138028799D01*
X81210195Y-138109134D01*
X81428807Y-138150000D01*
X81651193Y-138150000D01*
X81869804Y-138109134D01*
X82077177Y-138028798D01*
X82077178Y-138028797D01*
X82193327Y-137956880D01*
X81540001Y-137303554D01*
X81540000Y-137303554D01*
X80886671Y-137956880D01*
X79585948Y-137956880D01*
X79512586Y-137809550D01*
X79510151Y-137804363D01*
X79496152Y-137772657D01*
X79493961Y-137767366D01*
X79486652Y-137748500D01*
X78513886Y-137748500D01*
X78506530Y-137767494D01*
X78504336Y-137772792D01*
X78490325Y-137804528D01*
X78487888Y-137809719D01*
X78368149Y-138050185D01*
X78365477Y-138055253D01*
X78348609Y-138085536D01*
X78345707Y-138090475D01*
X78321427Y-138129687D01*
X78318300Y-138134486D01*
X78298719Y-138163070D01*
X78295374Y-138167719D01*
X78248500Y-138229789D01*
X74671499Y-138229789D01*
X74624626Y-138167719D01*
X74621281Y-138163070D01*
X74601700Y-138134486D01*
X74598573Y-138129687D01*
X74574293Y-138090475D01*
X74571391Y-138085536D01*
X74554523Y-138055253D01*
X74551851Y-138050185D01*
X74432112Y-137809719D01*
X74429675Y-137804528D01*
X74415664Y-137772792D01*
X74413470Y-137767494D01*
X74406114Y-137748500D01*
X73434483Y-137748500D01*
X69750500Y-137748500D01*
X68998500Y-137748500D01*
X68998500Y-139250500D01*
X68000500Y-139250500D01*
X68000500Y-136949999D01*
X75254357Y-136949999D01*
X75254357Y-136950000D01*
X75274884Y-137171535D01*
X75274885Y-137171537D01*
X75335769Y-137385523D01*
X75335775Y-137385538D01*
X75434938Y-137584683D01*
X75434943Y-137584691D01*
X75569020Y-137762238D01*
X75733437Y-137912123D01*
X75733439Y-137912125D01*
X75922595Y-138029245D01*
X75922596Y-138029245D01*
X75922599Y-138029247D01*
X76130060Y-138109618D01*
X76348757Y-138150500D01*
X76348759Y-138150500D01*
X76571241Y-138150500D01*
X76571243Y-138150500D01*
X76789940Y-138109618D01*
X76997401Y-138029247D01*
X77186562Y-137912124D01*
X77350981Y-137762236D01*
X77485058Y-137584689D01*
X77584229Y-137385528D01*
X77645115Y-137171536D01*
X77665643Y-136950000D01*
X77665643Y-136949999D01*
X80334859Y-136949999D01*
X80334859Y-136950000D01*
X80355378Y-137171439D01*
X80416240Y-137385350D01*
X80515364Y-137584419D01*
X80515366Y-137584421D01*
X80531138Y-137605306D01*
X81186446Y-136950000D01*
X81186446Y-136949999D01*
X81140369Y-136903922D01*
X81190000Y-136903922D01*
X81190000Y-136996078D01*
X81213852Y-137085095D01*
X81259930Y-137164905D01*
X81325095Y-137230070D01*
X81404905Y-137276148D01*
X81493922Y-137300000D01*
X81586078Y-137300000D01*
X81675095Y-137276148D01*
X81754905Y-137230070D01*
X81820070Y-137164905D01*
X81866148Y-137085095D01*
X81890000Y-136996078D01*
X81890000Y-136949999D01*
X81893554Y-136949999D01*
X81893554Y-136950000D01*
X82548860Y-137605306D01*
X82548861Y-137605306D01*
X82564631Y-137584425D01*
X82564632Y-137584422D01*
X82663759Y-137385350D01*
X82724621Y-137171439D01*
X82745141Y-136950000D01*
X82745141Y-136949999D01*
X82726654Y-136750500D01*
X85748500Y-136750500D01*
X87250500Y-136750500D01*
X88248500Y-136750500D01*
X89750500Y-136750500D01*
X90748500Y-136750500D01*
X92250500Y-136750500D01*
X93248500Y-136750500D01*
X94750500Y-136750500D01*
X95748500Y-136750500D01*
X97250500Y-136750500D01*
X97250500Y-135248500D01*
X95748500Y-135248500D01*
X95748500Y-136750500D01*
X94750500Y-136750500D01*
X94750500Y-135248500D01*
X93248500Y-135248500D01*
X93248500Y-136750500D01*
X92250500Y-136750500D01*
X92250500Y-135248500D01*
X90748500Y-135248500D01*
X90748500Y-136750500D01*
X89750500Y-136750500D01*
X89750500Y-135248500D01*
X88248500Y-135248500D01*
X88248500Y-136750500D01*
X87250500Y-136750500D01*
X87250500Y-135248500D01*
X85748500Y-135248500D01*
X85748500Y-136750500D01*
X82726654Y-136750500D01*
X82724621Y-136728560D01*
X82663759Y-136514649D01*
X82564633Y-136315577D01*
X82564631Y-136315574D01*
X82548860Y-136294691D01*
X81893554Y-136949999D01*
X81890000Y-136949999D01*
X81890000Y-136903922D01*
X81866148Y-136814905D01*
X81820070Y-136735095D01*
X81754905Y-136669930D01*
X81675095Y-136623852D01*
X81586078Y-136600000D01*
X81493922Y-136600000D01*
X81404905Y-136623852D01*
X81325095Y-136669930D01*
X81259930Y-136735095D01*
X81213852Y-136814905D01*
X81190000Y-136903922D01*
X81140369Y-136903922D01*
X80531138Y-136294691D01*
X80531137Y-136294691D01*
X80515369Y-136315571D01*
X80416240Y-136514649D01*
X80355378Y-136728560D01*
X80334859Y-136949999D01*
X77665643Y-136949999D01*
X77645115Y-136728464D01*
X77584229Y-136514472D01*
X77584224Y-136514461D01*
X77485061Y-136315316D01*
X77485056Y-136315308D01*
X77350979Y-136137761D01*
X77186562Y-135987876D01*
X77186560Y-135987874D01*
X76997404Y-135870754D01*
X76997398Y-135870752D01*
X76789940Y-135790382D01*
X76571243Y-135749500D01*
X76348757Y-135749500D01*
X76130060Y-135790382D01*
X75998864Y-135841207D01*
X75922601Y-135870752D01*
X75922595Y-135870754D01*
X75733439Y-135987874D01*
X75733437Y-135987876D01*
X75569020Y-136137761D01*
X75434943Y-136315308D01*
X75434938Y-136315316D01*
X75335775Y-136514461D01*
X75335769Y-136514476D01*
X75274885Y-136728462D01*
X75274884Y-136728464D01*
X75254357Y-136949999D01*
X68000500Y-136949999D01*
X68000500Y-136750500D01*
X68998500Y-136750500D01*
X69750500Y-136750500D01*
X70748500Y-136750500D01*
X72250500Y-136750500D01*
X73248500Y-136750500D01*
X74270567Y-136750500D01*
X74283271Y-136613413D01*
X74283931Y-136607724D01*
X74288720Y-136573391D01*
X74289643Y-136567734D01*
X74298119Y-136522398D01*
X74299301Y-136516795D01*
X74307234Y-136483067D01*
X74308674Y-136477524D01*
X74382176Y-136219192D01*
X74383869Y-136213723D01*
X74394871Y-136180895D01*
X74396813Y-136175515D01*
X74413470Y-136132506D01*
X74415664Y-136127208D01*
X74429675Y-136095472D01*
X74432112Y-136090281D01*
X74551851Y-135849815D01*
X74554523Y-135844747D01*
X74571391Y-135814464D01*
X74574293Y-135809525D01*
X74598573Y-135770313D01*
X74601700Y-135765514D01*
X74621281Y-135736930D01*
X74624626Y-135732281D01*
X74671500Y-135670210D01*
X78248500Y-135670210D01*
X78295374Y-135732282D01*
X78298719Y-135736930D01*
X78318300Y-135765514D01*
X78321427Y-135770313D01*
X78345707Y-135809525D01*
X78348609Y-135814464D01*
X78365477Y-135844747D01*
X78368149Y-135849815D01*
X78487888Y-136090281D01*
X78490325Y-136095472D01*
X78504336Y-136127208D01*
X78506530Y-136132506D01*
X78523187Y-136175515D01*
X78525129Y-136180895D01*
X78536131Y-136213723D01*
X78537824Y-136219192D01*
X78611326Y-136477524D01*
X78612766Y-136483067D01*
X78620699Y-136516795D01*
X78621881Y-136522398D01*
X78630357Y-136567734D01*
X78631280Y-136573391D01*
X78636069Y-136607724D01*
X78636729Y-136613413D01*
X78649433Y-136750500D01*
X79351070Y-136750500D01*
X79363765Y-136613505D01*
X79364425Y-136607815D01*
X79369214Y-136573483D01*
X79370137Y-136567825D01*
X79378613Y-136522490D01*
X79379795Y-136516889D01*
X79387727Y-136483164D01*
X79389166Y-136477621D01*
X79462645Y-136219363D01*
X79464340Y-136213891D01*
X79475353Y-136181032D01*
X79477299Y-136175643D01*
X79493961Y-136132634D01*
X79496153Y-136127342D01*
X79510153Y-136095635D01*
X79512587Y-136090449D01*
X79585949Y-135943118D01*
X80886671Y-135943118D01*
X81540000Y-136596446D01*
X81540001Y-136596446D01*
X82193327Y-135943118D01*
X82193326Y-135943117D01*
X82077181Y-135871203D01*
X82077175Y-135871200D01*
X81869804Y-135790865D01*
X81651193Y-135750000D01*
X81428807Y-135750000D01*
X81210195Y-135790865D01*
X81002824Y-135871200D01*
X81002818Y-135871204D01*
X80886672Y-135943117D01*
X80886671Y-135943118D01*
X79585949Y-135943118D01*
X79632273Y-135850088D01*
X79634944Y-135845021D01*
X79651803Y-135814753D01*
X79654702Y-135809819D01*
X79678980Y-135770605D01*
X79682110Y-135765802D01*
X79701699Y-135737205D01*
X79705044Y-135732555D01*
X79750500Y-135672360D01*
X79750500Y-135248500D01*
X78248500Y-135248500D01*
X78248500Y-135670210D01*
X74671500Y-135670210D01*
X74750500Y-135565596D01*
X74750500Y-135248500D01*
X73248500Y-135248500D01*
X73248500Y-136750500D01*
X72250500Y-136750500D01*
X72250500Y-135248500D01*
X70748500Y-135248500D01*
X70748500Y-136750500D01*
X69750500Y-136750500D01*
X69750500Y-135248500D01*
X68998500Y-135248500D01*
X68998500Y-136750500D01*
X68000500Y-136750500D01*
X68000500Y-134250500D01*
X68998500Y-134250500D01*
X69750500Y-134250500D01*
X70748500Y-134250500D01*
X72250500Y-134250500D01*
X73248500Y-134250500D01*
X74750500Y-134250500D01*
X75748500Y-134250500D01*
X77250500Y-134250500D01*
X78248500Y-134250500D01*
X79750500Y-134250500D01*
X79750500Y-132788999D01*
X80748500Y-132788999D01*
X80748500Y-134250500D01*
X82250500Y-134250500D01*
X83248500Y-134250500D01*
X84750500Y-134250500D01*
X85748500Y-134250500D01*
X87250500Y-134250500D01*
X91526394Y-134250500D01*
X92250500Y-134250500D01*
X93248500Y-134250500D01*
X94750500Y-134250500D01*
X95748500Y-134250500D01*
X97250500Y-134250500D01*
X97250500Y-132748500D01*
X95748500Y-132748500D01*
X95748500Y-134250500D01*
X94750500Y-134250500D01*
X94750500Y-132748500D01*
X93248500Y-132748500D01*
X93248500Y-134250500D01*
X92250500Y-134250500D01*
X92250500Y-132748500D01*
X91948500Y-132748500D01*
X91948500Y-133163191D01*
X91948351Y-133169274D01*
X91946545Y-133206046D01*
X91946097Y-133212116D01*
X91941294Y-133260888D01*
X91940549Y-133266929D01*
X91935145Y-133303360D01*
X91934104Y-133309357D01*
X91889935Y-133531408D01*
X91888601Y-133537349D01*
X91879649Y-133573084D01*
X91878025Y-133578952D01*
X91863798Y-133625845D01*
X91861890Y-133631620D01*
X91849491Y-133666272D01*
X91847301Y-133671949D01*
X91760671Y-133881095D01*
X91758206Y-133886656D01*
X91742466Y-133919938D01*
X91739729Y-133925377D01*
X91716627Y-133968599D01*
X91713627Y-133973894D01*
X91694691Y-134005488D01*
X91691434Y-134010632D01*
X91565657Y-134198869D01*
X91562153Y-134203845D01*
X91540221Y-134233417D01*
X91536476Y-134238215D01*
X91526394Y-134250500D01*
X87250500Y-134250500D01*
X87250500Y-132748500D01*
X85748500Y-132748500D01*
X85748500Y-134250500D01*
X84750500Y-134250500D01*
X84750500Y-132748500D01*
X83248500Y-132748500D01*
X83248500Y-134250500D01*
X82250500Y-134250500D01*
X82250500Y-132748500D01*
X81115772Y-132748500D01*
X80997786Y-132771319D01*
X80993573Y-132772059D01*
X80968009Y-132776094D01*
X80963771Y-132776688D01*
X80929591Y-132780880D01*
X80925337Y-132781327D01*
X80899562Y-132783589D01*
X80895296Y-132783890D01*
X80813901Y-132788212D01*
X80810605Y-132788343D01*
X80787431Y-132788956D01*
X80784152Y-132788999D01*
X80748500Y-132788999D01*
X79750500Y-132788999D01*
X78823851Y-132789000D01*
X78820574Y-132788957D01*
X78797385Y-132788344D01*
X78794083Y-132788212D01*
X78712696Y-132783888D01*
X78708435Y-132783588D01*
X78682705Y-132781330D01*
X78678461Y-132780884D01*
X78644288Y-132776696D01*
X78640044Y-132776101D01*
X78614448Y-132772062D01*
X78610230Y-132771322D01*
X78492228Y-132748500D01*
X78248500Y-132748500D01*
X78248500Y-134250500D01*
X77250500Y-134250500D01*
X77250500Y-132748500D01*
X75748500Y-132748500D01*
X75748500Y-134250500D01*
X74750500Y-134250500D01*
X74750500Y-132748500D01*
X73248500Y-132748500D01*
X73248500Y-134250500D01*
X72250500Y-134250500D01*
X72250500Y-132748500D01*
X70748500Y-132748500D01*
X70748500Y-134250500D01*
X69750500Y-134250500D01*
X69750500Y-132748500D01*
X68998500Y-132748500D01*
X68998500Y-134250500D01*
X68000500Y-134250500D01*
X68000500Y-131750500D01*
X68998500Y-131750500D01*
X69750500Y-131750500D01*
X70748500Y-131750500D01*
X72250500Y-131750500D01*
X73248500Y-131750500D01*
X74750500Y-131750500D01*
X75748500Y-131750500D01*
X76961406Y-131750500D01*
X76955083Y-131740703D01*
X76952322Y-131736219D01*
X76812414Y-131497802D01*
X76809848Y-131493208D01*
X76794912Y-131465086D01*
X76792542Y-131460386D01*
X76774269Y-131422147D01*
X76772099Y-131417348D01*
X76759600Y-131388055D01*
X76757638Y-131383172D01*
X76660031Y-131124531D01*
X76658277Y-131119566D01*
X76648305Y-131089312D01*
X76646764Y-131084278D01*
X76635218Y-131043502D01*
X76633891Y-131038407D01*
X76626526Y-131007436D01*
X76625418Y-131002294D01*
X76573681Y-130734786D01*
X76572941Y-130730573D01*
X76568906Y-130705009D01*
X76568312Y-130700771D01*
X76564120Y-130666591D01*
X76563673Y-130662337D01*
X76561411Y-130636562D01*
X76561110Y-130632296D01*
X76556788Y-130550901D01*
X76556657Y-130547605D01*
X76556044Y-130524431D01*
X76556001Y-130521152D01*
X76556001Y-130248500D01*
X75748500Y-130248500D01*
X75748500Y-131750500D01*
X74750500Y-131750500D01*
X74750500Y-130248500D01*
X73248500Y-130248500D01*
X73248500Y-131750500D01*
X72250500Y-131750500D01*
X72250500Y-130248500D01*
X70748500Y-130248500D01*
X70748500Y-131750500D01*
X69750500Y-131750500D01*
X69750500Y-130248500D01*
X68998500Y-130248500D01*
X68998500Y-131750500D01*
X68000500Y-131750500D01*
X68000500Y-129250500D01*
X68998500Y-129250500D01*
X69750500Y-129250500D01*
X70748500Y-129250500D01*
X72250500Y-129250500D01*
X73248500Y-129250500D01*
X74750500Y-129250500D01*
X75748500Y-129250500D01*
X76556000Y-129250500D01*
X76556000Y-128572421D01*
X77554000Y-128572421D01*
X77554000Y-129291000D01*
X78370988Y-129291000D01*
X78338075Y-129348007D01*
X78304000Y-129475174D01*
X78304000Y-129606826D01*
X78338075Y-129733993D01*
X78370988Y-129791000D01*
X77554001Y-129791000D01*
X77554001Y-130509588D01*
X77556794Y-130562191D01*
X77601237Y-130791987D01*
X77683879Y-131010975D01*
X77802339Y-131212841D01*
X77802344Y-131212848D01*
X77953211Y-131391786D01*
X77953213Y-131391788D01*
X78132151Y-131542655D01*
X78132158Y-131542660D01*
X78334024Y-131661120D01*
X78553012Y-131743762D01*
X78782809Y-131788205D01*
X78835382Y-131790998D01*
X78835421Y-131790999D01*
X79553999Y-131790999D01*
X79554000Y-131790998D01*
X79554000Y-130041000D01*
X80054000Y-130041000D01*
X80054000Y-131790999D01*
X80772576Y-131790999D01*
X80772588Y-131790998D01*
X80825191Y-131788205D01*
X81020148Y-131750500D01*
X83248500Y-131750500D01*
X84750500Y-131750500D01*
X85748500Y-131750500D01*
X87250500Y-131750500D01*
X87250500Y-131435383D01*
X86063616Y-130248500D01*
X85748500Y-130248500D01*
X85748500Y-131750500D01*
X84750500Y-131750500D01*
X84750500Y-130248500D01*
X83248500Y-130248500D01*
X83248500Y-131750500D01*
X81020148Y-131750500D01*
X81054987Y-131743762D01*
X81273975Y-131661120D01*
X81475841Y-131542660D01*
X81475848Y-131542655D01*
X81654786Y-131391788D01*
X81654788Y-131391786D01*
X81805655Y-131212848D01*
X81805660Y-131212841D01*
X81924120Y-131010975D01*
X82006762Y-130791987D01*
X82051205Y-130562191D01*
X82051205Y-130562190D01*
X82053998Y-130509617D01*
X82054000Y-130509578D01*
X82054000Y-129791000D01*
X81237012Y-129791000D01*
X81269925Y-129733993D01*
X81304000Y-129606826D01*
X81304000Y-129475174D01*
X81269925Y-129348007D01*
X81237012Y-129291000D01*
X82053999Y-129291000D01*
X82053999Y-128572423D01*
X82053998Y-128572411D01*
X82051205Y-128519808D01*
X82006762Y-128290012D01*
X81931092Y-128089499D01*
X83248500Y-128089499D01*
X83248500Y-129250500D01*
X84750500Y-129250500D01*
X84750500Y-128079272D01*
X84695244Y-128085212D01*
X84691939Y-128085522D01*
X84671899Y-128087135D01*
X84668578Y-128087358D01*
X84641895Y-128088786D01*
X84638582Y-128088919D01*
X84618534Y-128089455D01*
X84615220Y-128089499D01*
X83248500Y-128089499D01*
X81931092Y-128089499D01*
X81924120Y-128071024D01*
X81805660Y-127869158D01*
X81805655Y-127869151D01*
X81654788Y-127690213D01*
X81654786Y-127690211D01*
X81475848Y-127539344D01*
X81475841Y-127539339D01*
X81273975Y-127420879D01*
X81054984Y-127338236D01*
X81049840Y-127337241D01*
X80987760Y-127305180D01*
X80952869Y-127244646D01*
X80956244Y-127174858D01*
X80996814Y-127117973D01*
X81061697Y-127092052D01*
X81073374Y-127091499D01*
X84601872Y-127091499D01*
X84661483Y-127085091D01*
X84796331Y-127034796D01*
X84911546Y-126948546D01*
X84997796Y-126833331D01*
X85048091Y-126698483D01*
X85054500Y-126638873D01*
X85054499Y-123043128D01*
X85048091Y-122983517D01*
X85008571Y-122877559D01*
X84997797Y-122848671D01*
X84997793Y-122848664D01*
X84911547Y-122733455D01*
X84911544Y-122733452D01*
X84796335Y-122647206D01*
X84796328Y-122647202D01*
X84661482Y-122596908D01*
X84661483Y-122596908D01*
X84601883Y-122590501D01*
X84601881Y-122590500D01*
X84601873Y-122590500D01*
X84601864Y-122590500D01*
X81006129Y-122590500D01*
X81006123Y-122590501D01*
X80946516Y-122596908D01*
X80811671Y-122647202D01*
X80811664Y-122647206D01*
X80696455Y-122733452D01*
X80696452Y-122733455D01*
X80610206Y-122848664D01*
X80610202Y-122848671D01*
X80559908Y-122983517D01*
X80553916Y-123039258D01*
X80553501Y-123043123D01*
X80553500Y-123043135D01*
X80553500Y-126638870D01*
X80553501Y-126638876D01*
X80559908Y-126698483D01*
X80610202Y-126833328D01*
X80610206Y-126833335D01*
X80696452Y-126948544D01*
X80696455Y-126948547D01*
X80811664Y-127034793D01*
X80811673Y-127034798D01*
X80860506Y-127053011D01*
X80916440Y-127094881D01*
X80940858Y-127160345D01*
X80926007Y-127228618D01*
X80876603Y-127278024D01*
X80810598Y-127293018D01*
X80772625Y-127291001D01*
X80772579Y-127291000D01*
X80054000Y-127291000D01*
X80054000Y-129041000D01*
X79554000Y-129041000D01*
X79554000Y-127291000D01*
X78835423Y-127291000D01*
X78835411Y-127291001D01*
X78782808Y-127293794D01*
X78553012Y-127338237D01*
X78334024Y-127420879D01*
X78132158Y-127539339D01*
X78132151Y-127539344D01*
X77953213Y-127690211D01*
X77953211Y-127690213D01*
X77802344Y-127869151D01*
X77802339Y-127869158D01*
X77683879Y-128071024D01*
X77601237Y-128290012D01*
X77556794Y-128519808D01*
X77556794Y-128519809D01*
X77554001Y-128572382D01*
X77554000Y-128572421D01*
X76556000Y-128572421D01*
X76556000Y-128560850D01*
X76556043Y-128557573D01*
X76556656Y-128534385D01*
X76556788Y-128531083D01*
X76561112Y-128449696D01*
X76561412Y-128445435D01*
X76563670Y-128419705D01*
X76564116Y-128415461D01*
X76568304Y-128381288D01*
X76568899Y-128377044D01*
X76572938Y-128351448D01*
X76573678Y-128347230D01*
X76623620Y-128088999D01*
X75972661Y-128089000D01*
X75967799Y-128088905D01*
X75933497Y-128087559D01*
X75928629Y-128087272D01*
X75758428Y-128073876D01*
X75753237Y-128073357D01*
X75748500Y-128072782D01*
X75748500Y-129250500D01*
X74750500Y-129250500D01*
X74750500Y-127748500D01*
X73248500Y-127748500D01*
X73248500Y-129250500D01*
X72250500Y-129250500D01*
X72250500Y-127748500D01*
X70748500Y-127748500D01*
X70748500Y-129250500D01*
X69750500Y-129250500D01*
X69750500Y-127748500D01*
X68998500Y-127748500D01*
X68998500Y-129250500D01*
X68000500Y-129250500D01*
X68000500Y-126750500D01*
X68998500Y-126750500D01*
X69750500Y-126750500D01*
X70748500Y-126750500D01*
X72250500Y-126750500D01*
X73248500Y-126750500D01*
X73998081Y-126750500D01*
X73951459Y-126647858D01*
X73949272Y-126642742D01*
X73936742Y-126611506D01*
X73934787Y-126606298D01*
X73919988Y-126564008D01*
X73918268Y-126558714D01*
X73908582Y-126526459D01*
X73907101Y-126521094D01*
X73841517Y-126260816D01*
X73840349Y-126255731D01*
X73833931Y-126224826D01*
X73832978Y-126219697D01*
X73826175Y-126178250D01*
X73825438Y-126173082D01*
X73821642Y-126141754D01*
X73821124Y-126136567D01*
X73807729Y-125966366D01*
X73807442Y-125961500D01*
X73806096Y-125927202D01*
X73806001Y-125922339D01*
X73806001Y-125248500D01*
X73248500Y-125248500D01*
X73248500Y-126750500D01*
X72250500Y-126750500D01*
X72250500Y-125248500D01*
X70748500Y-125248500D01*
X70748500Y-126750500D01*
X69750500Y-126750500D01*
X69750500Y-125248500D01*
X68998500Y-125248500D01*
X68998500Y-126750500D01*
X68000500Y-126750500D01*
X68000500Y-124250500D01*
X68998500Y-124250500D01*
X69750500Y-124250500D01*
X70748500Y-124250500D01*
X72250500Y-124250500D01*
X73248500Y-124250500D01*
X73806000Y-124250500D01*
X73806000Y-123776803D01*
X74804000Y-123776803D01*
X74804000Y-124591000D01*
X76304000Y-124591000D01*
X76304000Y-125091000D01*
X74804001Y-125091000D01*
X74804001Y-125905197D01*
X74814400Y-126037332D01*
X74869377Y-126255519D01*
X74962428Y-126460374D01*
X74962431Y-126460380D01*
X75090559Y-126645323D01*
X75090569Y-126645335D01*
X75249664Y-126804430D01*
X75249676Y-126804440D01*
X75434619Y-126932568D01*
X75434625Y-126932571D01*
X75639480Y-127025622D01*
X75857667Y-127080599D01*
X75989810Y-127090999D01*
X76553999Y-127090999D01*
X76554000Y-127090998D01*
X76554000Y-126274012D01*
X76611007Y-126306925D01*
X76738174Y-126341000D01*
X76869826Y-126341000D01*
X76996993Y-126306925D01*
X77054000Y-126274012D01*
X77054000Y-127090999D01*
X77618182Y-127090999D01*
X77618197Y-127090998D01*
X77750332Y-127080599D01*
X77968519Y-127025622D01*
X78173374Y-126932571D01*
X78173380Y-126932568D01*
X78358323Y-126804440D01*
X78358335Y-126804430D01*
X78517430Y-126645335D01*
X78517440Y-126645323D01*
X78645568Y-126460380D01*
X78645571Y-126460374D01*
X78738622Y-126255519D01*
X78793599Y-126037332D01*
X78803999Y-125905196D01*
X78804000Y-125905184D01*
X78804000Y-125091000D01*
X77304000Y-125091000D01*
X77304000Y-124591000D01*
X78803999Y-124591000D01*
X78803999Y-123776817D01*
X78803998Y-123776802D01*
X78793599Y-123644667D01*
X78738622Y-123426480D01*
X78645571Y-123221625D01*
X78645568Y-123221619D01*
X78517440Y-123036676D01*
X78517430Y-123036664D01*
X78358335Y-122877569D01*
X78358323Y-122877559D01*
X78173380Y-122749431D01*
X78173374Y-122749428D01*
X77968519Y-122656377D01*
X77750332Y-122601400D01*
X77618196Y-122591000D01*
X77054000Y-122591000D01*
X77054000Y-123407988D01*
X76996993Y-123375075D01*
X76869826Y-123341000D01*
X76738174Y-123341000D01*
X76611007Y-123375075D01*
X76554000Y-123407988D01*
X76554000Y-122591000D01*
X75989817Y-122591000D01*
X75989802Y-122591001D01*
X75857667Y-122601400D01*
X75639480Y-122656377D01*
X75434625Y-122749428D01*
X75434619Y-122749431D01*
X75249676Y-122877559D01*
X75249664Y-122877569D01*
X75090569Y-123036664D01*
X75090559Y-123036676D01*
X74962431Y-123221619D01*
X74962428Y-123221625D01*
X74869377Y-123426480D01*
X74814400Y-123644667D01*
X74804000Y-123776803D01*
X73806000Y-123776803D01*
X73806000Y-123759663D01*
X73806095Y-123754801D01*
X73807441Y-123720499D01*
X73807728Y-123715632D01*
X73821124Y-123545429D01*
X73821643Y-123540237D01*
X73825440Y-123508912D01*
X73826176Y-123503751D01*
X73832978Y-123462305D01*
X73833931Y-123457174D01*
X73840349Y-123426269D01*
X73841517Y-123421184D01*
X73907101Y-123160906D01*
X73908582Y-123155541D01*
X73918268Y-123123286D01*
X73919988Y-123117992D01*
X73934787Y-123075702D01*
X73936742Y-123070494D01*
X73949272Y-123039258D01*
X73951459Y-123034142D01*
X74063038Y-122788494D01*
X74065453Y-122783478D01*
X74080737Y-122753483D01*
X74083372Y-122748587D01*
X74083421Y-122748500D01*
X73248500Y-122748500D01*
X73248500Y-124250500D01*
X72250500Y-124250500D01*
X72250500Y-122748500D01*
X70748500Y-122748500D01*
X70748500Y-124250500D01*
X69750500Y-124250500D01*
X69750500Y-122748500D01*
X68998500Y-122748500D01*
X68998500Y-124250500D01*
X68000500Y-124250500D01*
X68000500Y-121750500D01*
X68998500Y-121750500D01*
X69750500Y-121750500D01*
X70748500Y-121750500D01*
X72250500Y-121750500D01*
X73248500Y-121750500D01*
X74750500Y-121750500D01*
X74750500Y-121698296D01*
X78248500Y-121698296D01*
X78271714Y-121705268D01*
X78277008Y-121706988D01*
X78319298Y-121721787D01*
X78324506Y-121723742D01*
X78355742Y-121736272D01*
X78360858Y-121738459D01*
X78387367Y-121750500D01*
X79750500Y-121750500D01*
X79750500Y-121618252D01*
X80748500Y-121618252D01*
X80754955Y-121616939D01*
X80801160Y-121609028D01*
X80808833Y-121607959D01*
X80912756Y-121596788D01*
X80916061Y-121596478D01*
X80936101Y-121594865D01*
X80939422Y-121594642D01*
X80966105Y-121593214D01*
X80969418Y-121593081D01*
X80989466Y-121592545D01*
X80992780Y-121592501D01*
X82250500Y-121592500D01*
X83248500Y-121592500D01*
X84615248Y-121592500D01*
X84618572Y-121592545D01*
X84638674Y-121593084D01*
X84641994Y-121593217D01*
X84668680Y-121594649D01*
X84671989Y-121594871D01*
X84691982Y-121596481D01*
X84695285Y-121596792D01*
X84750500Y-121602728D01*
X84750500Y-121217383D01*
X83781616Y-120248500D01*
X83248500Y-120248500D01*
X83248500Y-121592500D01*
X82250500Y-121592500D01*
X82250500Y-120248500D01*
X80748500Y-120248500D01*
X80748500Y-121618252D01*
X79750500Y-121618252D01*
X79750500Y-120248500D01*
X78248500Y-120248500D01*
X78248500Y-121698296D01*
X74750500Y-121698296D01*
X74750500Y-121609217D01*
X75748500Y-121609217D01*
X75753246Y-121608642D01*
X75758433Y-121608124D01*
X75928634Y-121594729D01*
X75933500Y-121594442D01*
X75967798Y-121593096D01*
X75972661Y-121593001D01*
X76754544Y-121593000D01*
X76801995Y-121602438D01*
X76803999Y-121603268D01*
X76806003Y-121602438D01*
X76853454Y-121593000D01*
X77250500Y-121593000D01*
X77250500Y-120248500D01*
X75748500Y-120248500D01*
X75748500Y-121609217D01*
X74750500Y-121609217D01*
X74750500Y-120248500D01*
X73248500Y-120248500D01*
X73248500Y-121750500D01*
X72250500Y-121750500D01*
X72250500Y-120248500D01*
X70748500Y-120248500D01*
X70748500Y-121750500D01*
X69750500Y-121750500D01*
X69750500Y-120248500D01*
X68998500Y-120248500D01*
X68998500Y-121750500D01*
X68000500Y-121750500D01*
X68000500Y-119250500D01*
X68998500Y-119250500D01*
X69750500Y-119250500D01*
X70748500Y-119250500D01*
X72250500Y-119250500D01*
X73248500Y-119250500D01*
X74750500Y-119250500D01*
X75748500Y-119250500D01*
X77250500Y-119250500D01*
X78248500Y-119250500D01*
X79750500Y-119250500D01*
X80748500Y-119250500D01*
X82250500Y-119250500D01*
X82250500Y-117748500D01*
X80748500Y-117748500D01*
X80748500Y-119250500D01*
X79750500Y-119250500D01*
X79750500Y-117748500D01*
X78248500Y-117748500D01*
X78248500Y-119250500D01*
X77250500Y-119250500D01*
X77250500Y-117748500D01*
X75748500Y-117748500D01*
X75748500Y-119250500D01*
X74750500Y-119250500D01*
X74750500Y-117748500D01*
X73248500Y-117748500D01*
X73248500Y-119250500D01*
X72250500Y-119250500D01*
X72250500Y-117748500D01*
X70748500Y-117748500D01*
X70748500Y-119250500D01*
X69750500Y-119250500D01*
X69750500Y-117748500D01*
X68998500Y-117748500D01*
X68998500Y-119250500D01*
X68000500Y-119250500D01*
X68000500Y-116750500D01*
X68998500Y-116750500D01*
X69750500Y-116750500D01*
X69750500Y-115992071D01*
X78248500Y-115992071D01*
X78248500Y-116750500D01*
X79750500Y-116750500D01*
X80748500Y-116750500D01*
X82250500Y-116750500D01*
X82250500Y-115248500D01*
X80748500Y-115248500D01*
X80748500Y-116750500D01*
X79750500Y-116750500D01*
X79750500Y-115248500D01*
X78700669Y-115248500D01*
X78697089Y-115258333D01*
X78695130Y-115263371D01*
X78682611Y-115293592D01*
X78680433Y-115298541D01*
X78565857Y-115544249D01*
X78563463Y-115549103D01*
X78548347Y-115578139D01*
X78545746Y-115582880D01*
X78523968Y-115620601D01*
X78521160Y-115625228D01*
X78503578Y-115652825D01*
X78500574Y-115657321D01*
X78345074Y-115879401D01*
X78341877Y-115883761D01*
X78321957Y-115909723D01*
X78318570Y-115913944D01*
X78290571Y-115947313D01*
X78287003Y-115951381D01*
X78264885Y-115975519D01*
X78261143Y-115979428D01*
X78248500Y-115992071D01*
X69750500Y-115992071D01*
X69750500Y-115991071D01*
X69738857Y-115979428D01*
X69735115Y-115975519D01*
X69712997Y-115951381D01*
X69709429Y-115947313D01*
X69681430Y-115913944D01*
X69678043Y-115909723D01*
X69658123Y-115883761D01*
X69654926Y-115879401D01*
X69499426Y-115657321D01*
X69496422Y-115652825D01*
X69478840Y-115625228D01*
X69476032Y-115620601D01*
X69454254Y-115582880D01*
X69451653Y-115578139D01*
X69436537Y-115549103D01*
X69434143Y-115544249D01*
X69319567Y-115298541D01*
X69317389Y-115293592D01*
X69304870Y-115263371D01*
X69302911Y-115258333D01*
X69299331Y-115248500D01*
X68998500Y-115248500D01*
X68998500Y-116750500D01*
X68000500Y-116750500D01*
X68000500Y-114449998D01*
X70154532Y-114449998D01*
X70154532Y-114450001D01*
X70174364Y-114676686D01*
X70174366Y-114676697D01*
X70233258Y-114896488D01*
X70233261Y-114896497D01*
X70329431Y-115102732D01*
X70329432Y-115102734D01*
X70459954Y-115289141D01*
X70620858Y-115450045D01*
X70620861Y-115450047D01*
X70807266Y-115580568D01*
X71013504Y-115676739D01*
X71233308Y-115735635D01*
X71395230Y-115749801D01*
X71459998Y-115755468D01*
X71460000Y-115755468D01*
X71460002Y-115755468D01*
X71516673Y-115750509D01*
X71686692Y-115735635D01*
X71906496Y-115676739D01*
X72112734Y-115580568D01*
X72299139Y-115450047D01*
X72460047Y-115289139D01*
X72525278Y-115195977D01*
X72579854Y-115152353D01*
X72649352Y-115145159D01*
X72711707Y-115176681D01*
X72747122Y-115236911D01*
X72750143Y-115253847D01*
X72755909Y-115307483D01*
X72806202Y-115442328D01*
X72806206Y-115442335D01*
X72892452Y-115557544D01*
X72892455Y-115557547D01*
X73007664Y-115643793D01*
X73007671Y-115643797D01*
X73142517Y-115694091D01*
X73142516Y-115694091D01*
X73149444Y-115694835D01*
X73202127Y-115700500D01*
X74797872Y-115700499D01*
X74857483Y-115694091D01*
X74992331Y-115643796D01*
X75107546Y-115557546D01*
X75193796Y-115442331D01*
X75244091Y-115307483D01*
X75249858Y-115253842D01*
X75276593Y-115189296D01*
X75333985Y-115149447D01*
X75403810Y-115146952D01*
X75463900Y-115182604D01*
X75474721Y-115195978D01*
X75539954Y-115289141D01*
X75700858Y-115450045D01*
X75700861Y-115450047D01*
X75887266Y-115580568D01*
X76093504Y-115676739D01*
X76313308Y-115735635D01*
X76475230Y-115749801D01*
X76539998Y-115755468D01*
X76540000Y-115755468D01*
X76540002Y-115755468D01*
X76596673Y-115750509D01*
X76766692Y-115735635D01*
X76986496Y-115676739D01*
X77192734Y-115580568D01*
X77379139Y-115450047D01*
X77540047Y-115289139D01*
X77670568Y-115102734D01*
X77766739Y-114896496D01*
X77825635Y-114676692D01*
X77845468Y-114450000D01*
X77825635Y-114223308D01*
X77766739Y-114003504D01*
X77670568Y-113797266D01*
X77540047Y-113610861D01*
X77540045Y-113610858D01*
X77379141Y-113449954D01*
X77192734Y-113319432D01*
X77192732Y-113319431D01*
X76986497Y-113223261D01*
X76986488Y-113223258D01*
X76766697Y-113164366D01*
X76766693Y-113164365D01*
X76766692Y-113164365D01*
X76766691Y-113164364D01*
X76766686Y-113164364D01*
X76540002Y-113144532D01*
X76539998Y-113144532D01*
X76313313Y-113164364D01*
X76313302Y-113164366D01*
X76093511Y-113223258D01*
X76093502Y-113223261D01*
X75887267Y-113319431D01*
X75887265Y-113319432D01*
X75700858Y-113449954D01*
X75539956Y-113610856D01*
X75474721Y-113704022D01*
X75420144Y-113747646D01*
X75350645Y-113754839D01*
X75288291Y-113723317D01*
X75252877Y-113663087D01*
X75249856Y-113646150D01*
X75244091Y-113592516D01*
X75193797Y-113457671D01*
X75193793Y-113457664D01*
X75107547Y-113342455D01*
X75107544Y-113342452D01*
X74992335Y-113256206D01*
X74992328Y-113256202D01*
X74857482Y-113205908D01*
X74857483Y-113205908D01*
X74797883Y-113199501D01*
X74797881Y-113199500D01*
X74797873Y-113199500D01*
X74797864Y-113199500D01*
X73202129Y-113199500D01*
X73202123Y-113199501D01*
X73142516Y-113205908D01*
X73007671Y-113256202D01*
X73007664Y-113256206D01*
X72892455Y-113342452D01*
X72892452Y-113342455D01*
X72806206Y-113457664D01*
X72806202Y-113457671D01*
X72755908Y-113592516D01*
X72750142Y-113646154D01*
X72723404Y-113710705D01*
X72666012Y-113750553D01*
X72596186Y-113753046D01*
X72536098Y-113717393D01*
X72525278Y-113704021D01*
X72460045Y-113610858D01*
X72299141Y-113449954D01*
X72112734Y-113319432D01*
X72112732Y-113319431D01*
X71906497Y-113223261D01*
X71906488Y-113223258D01*
X71686697Y-113164366D01*
X71686693Y-113164365D01*
X71686692Y-113164365D01*
X71686691Y-113164364D01*
X71686686Y-113164364D01*
X71460002Y-113144532D01*
X71459998Y-113144532D01*
X71233313Y-113164364D01*
X71233302Y-113164366D01*
X71013511Y-113223258D01*
X71013502Y-113223261D01*
X70807267Y-113319431D01*
X70807265Y-113319432D01*
X70620858Y-113449954D01*
X70459954Y-113610858D01*
X70329432Y-113797265D01*
X70329431Y-113797267D01*
X70233261Y-114003502D01*
X70233258Y-114003511D01*
X70174366Y-114223302D01*
X70174364Y-114223313D01*
X70154532Y-114449998D01*
X68000500Y-114449998D01*
X68000500Y-114250500D01*
X68998500Y-114250500D01*
X69170174Y-114250500D01*
X69182061Y-114114633D01*
X69182650Y-114109256D01*
X69186921Y-114076812D01*
X69187744Y-114071465D01*
X69195307Y-114028570D01*
X69196362Y-114023263D01*
X69203447Y-113991304D01*
X69204733Y-113986049D01*
X69274905Y-113724159D01*
X69276420Y-113718962D01*
X69286269Y-113687727D01*
X69288010Y-113682599D01*
X69302911Y-113641667D01*
X69304870Y-113636629D01*
X69317389Y-113606408D01*
X69319567Y-113601459D01*
X69434143Y-113355751D01*
X69436537Y-113350897D01*
X69451653Y-113321861D01*
X69454254Y-113317120D01*
X69476032Y-113279399D01*
X69478840Y-113274772D01*
X69496422Y-113247175D01*
X69499426Y-113242679D01*
X69654926Y-113020599D01*
X69658123Y-113016239D01*
X69678043Y-112990277D01*
X69681430Y-112986056D01*
X69709429Y-112952687D01*
X69712997Y-112948619D01*
X69735115Y-112924481D01*
X69738857Y-112920572D01*
X69750500Y-112908929D01*
X69750500Y-112907929D01*
X78248500Y-112907929D01*
X78261143Y-112920572D01*
X78264885Y-112924481D01*
X78287003Y-112948619D01*
X78290571Y-112952687D01*
X78318570Y-112986056D01*
X78321957Y-112990277D01*
X78341877Y-113016239D01*
X78345074Y-113020599D01*
X78500574Y-113242679D01*
X78503578Y-113247175D01*
X78521160Y-113274772D01*
X78523968Y-113279399D01*
X78545746Y-113317120D01*
X78548347Y-113321861D01*
X78563463Y-113350897D01*
X78565857Y-113355751D01*
X78680433Y-113601459D01*
X78682611Y-113606408D01*
X78695130Y-113636629D01*
X78697089Y-113641667D01*
X78711990Y-113682599D01*
X78713731Y-113687727D01*
X78723580Y-113718962D01*
X78725095Y-113724159D01*
X78795267Y-113986049D01*
X78796553Y-113991304D01*
X78803638Y-114023263D01*
X78804693Y-114028570D01*
X78812256Y-114071465D01*
X78813079Y-114076812D01*
X78817350Y-114109256D01*
X78817939Y-114114633D01*
X78829826Y-114250500D01*
X79750500Y-114250500D01*
X80748500Y-114250500D01*
X82250500Y-114250500D01*
X82250500Y-113885436D01*
X82245996Y-113886387D01*
X81981960Y-113935744D01*
X81976307Y-113936666D01*
X81941984Y-113941454D01*
X81936294Y-113942114D01*
X81890368Y-113946370D01*
X81884654Y-113946767D01*
X81850033Y-113948368D01*
X81844305Y-113948500D01*
X81575695Y-113948500D01*
X81569967Y-113948368D01*
X81535346Y-113946767D01*
X81529632Y-113946370D01*
X81483706Y-113942114D01*
X81478016Y-113941454D01*
X81443693Y-113936666D01*
X81438040Y-113935744D01*
X81174004Y-113886387D01*
X81168396Y-113885204D01*
X81134654Y-113877267D01*
X81129112Y-113875827D01*
X81084752Y-113863205D01*
X81079278Y-113861510D01*
X81046428Y-113850499D01*
X81041043Y-113848555D01*
X80790569Y-113751522D01*
X80785274Y-113749328D01*
X80753553Y-113735321D01*
X80748500Y-113732949D01*
X80748500Y-114250500D01*
X79750500Y-114250500D01*
X79750500Y-112748500D01*
X78248500Y-112748500D01*
X78248500Y-112907929D01*
X69750500Y-112907929D01*
X69750500Y-112748500D01*
X68998500Y-112748500D01*
X68998500Y-114250500D01*
X68000500Y-114250500D01*
X68000500Y-111750500D01*
X68998500Y-111750500D01*
X69750500Y-111750500D01*
X70748500Y-111750500D01*
X72250500Y-111750500D01*
X73248500Y-111750500D01*
X74750500Y-111750500D01*
X75748500Y-111750500D01*
X77250500Y-111750500D01*
X77250500Y-111337857D01*
X78248500Y-111337857D01*
X78248500Y-111750500D01*
X79506357Y-111750500D01*
X79506357Y-111749999D01*
X80504357Y-111749999D01*
X80504357Y-111750000D01*
X80524884Y-111971535D01*
X80524885Y-111971537D01*
X80585769Y-112185523D01*
X80585775Y-112185538D01*
X80684938Y-112384683D01*
X80684943Y-112384691D01*
X80819020Y-112562238D01*
X80983437Y-112712123D01*
X80983439Y-112712125D01*
X81172595Y-112829245D01*
X81172596Y-112829245D01*
X81172599Y-112829247D01*
X81380060Y-112909618D01*
X81598757Y-112950500D01*
X81598759Y-112950500D01*
X81821241Y-112950500D01*
X81821243Y-112950500D01*
X82039940Y-112909618D01*
X82247401Y-112829247D01*
X82436562Y-112712124D01*
X82600981Y-112562236D01*
X82735058Y-112384689D01*
X82834229Y-112185528D01*
X82895115Y-111971536D01*
X82915643Y-111750000D01*
X82895115Y-111528464D01*
X82834229Y-111314472D01*
X82821942Y-111289796D01*
X82735061Y-111115316D01*
X82735056Y-111115308D01*
X82600979Y-110937761D01*
X82436562Y-110787876D01*
X82436560Y-110787874D01*
X82247404Y-110670754D01*
X82247398Y-110670752D01*
X82039940Y-110590382D01*
X81821243Y-110549500D01*
X81598757Y-110549500D01*
X81380060Y-110590382D01*
X81306447Y-110618900D01*
X81172601Y-110670752D01*
X81172595Y-110670754D01*
X80983439Y-110787874D01*
X80983437Y-110787876D01*
X80819020Y-110937761D01*
X80684943Y-111115308D01*
X80684938Y-111115316D01*
X80585775Y-111314461D01*
X80585769Y-111314476D01*
X80524885Y-111528462D01*
X80524884Y-111528464D01*
X80504357Y-111749999D01*
X79506357Y-111749999D01*
X79506357Y-111726939D01*
X79506489Y-111721214D01*
X79508089Y-111686596D01*
X79508486Y-111680879D01*
X79533271Y-111413413D01*
X79533931Y-111407724D01*
X79538720Y-111373391D01*
X79539643Y-111367734D01*
X79548119Y-111322398D01*
X79549301Y-111316795D01*
X79557234Y-111283067D01*
X79558674Y-111277524D01*
X79632176Y-111019192D01*
X79633869Y-111013723D01*
X79644871Y-110980895D01*
X79646813Y-110975515D01*
X79663470Y-110932506D01*
X79665664Y-110927208D01*
X79679675Y-110895472D01*
X79682112Y-110890281D01*
X79750500Y-110752940D01*
X79750500Y-110414140D01*
X79749994Y-110414844D01*
X79599288Y-110614411D01*
X79595732Y-110618900D01*
X79573595Y-110645559D01*
X79569835Y-110649880D01*
X79538764Y-110683964D01*
X79534807Y-110688108D01*
X79510298Y-110712617D01*
X79506155Y-110716573D01*
X79321349Y-110885046D01*
X79317029Y-110888806D01*
X79290372Y-110910942D01*
X79285881Y-110914499D01*
X79249075Y-110942294D01*
X79244426Y-110945639D01*
X79215829Y-110965229D01*
X79211028Y-110968357D01*
X78998409Y-111100004D01*
X78993473Y-111102905D01*
X78963201Y-111119767D01*
X78958134Y-111122438D01*
X78916848Y-111142997D01*
X78911660Y-111145432D01*
X78879953Y-111159432D01*
X78874661Y-111161625D01*
X78641460Y-111251967D01*
X78636069Y-111253913D01*
X78603187Y-111264933D01*
X78597711Y-111266628D01*
X78553350Y-111279247D01*
X78547809Y-111280686D01*
X78514096Y-111288614D01*
X78508495Y-111289796D01*
X78262691Y-111335745D01*
X78257035Y-111336667D01*
X78248500Y-111337857D01*
X77250500Y-111337857D01*
X77250500Y-111210111D01*
X77125340Y-111161625D01*
X77120047Y-111159432D01*
X77088340Y-111145432D01*
X77083152Y-111142997D01*
X77041866Y-111122438D01*
X77036799Y-111119767D01*
X77006527Y-111102905D01*
X77001591Y-111100004D01*
X76788972Y-110968357D01*
X76784171Y-110965229D01*
X76755574Y-110945639D01*
X76750925Y-110942294D01*
X76714119Y-110914499D01*
X76709628Y-110910942D01*
X76682971Y-110888806D01*
X76678651Y-110885046D01*
X76493845Y-110716573D01*
X76489702Y-110712617D01*
X76465193Y-110688108D01*
X76461236Y-110683964D01*
X76430165Y-110649880D01*
X76426405Y-110645559D01*
X76404268Y-110618900D01*
X76400712Y-110614411D01*
X76250006Y-110414844D01*
X76246659Y-110410192D01*
X76227069Y-110381593D01*
X76223943Y-110376795D01*
X76199663Y-110337581D01*
X76196760Y-110332641D01*
X76179901Y-110302372D01*
X76177231Y-110297306D01*
X76152929Y-110248500D01*
X75748500Y-110248500D01*
X75748500Y-111750500D01*
X74750500Y-111750500D01*
X74750500Y-110248500D01*
X73248500Y-110248500D01*
X73248500Y-111750500D01*
X72250500Y-111750500D01*
X72250500Y-110248500D01*
X70748500Y-110248500D01*
X70748500Y-111750500D01*
X69750500Y-111750500D01*
X69750500Y-110248500D01*
X68998500Y-110248500D01*
X68998500Y-111750500D01*
X68000500Y-111750500D01*
X68000500Y-109250500D01*
X68998500Y-109250500D01*
X69750500Y-109250500D01*
X70748500Y-109250500D01*
X72250500Y-109250500D01*
X72250500Y-108490999D01*
X73248500Y-108490999D01*
X73248500Y-109250500D01*
X74750500Y-109250500D01*
X74750500Y-109249999D01*
X76894785Y-109249999D01*
X76894785Y-109250000D01*
X76913602Y-109453082D01*
X76969417Y-109649247D01*
X76969422Y-109649260D01*
X77060327Y-109831821D01*
X77183237Y-109994581D01*
X77333958Y-110131980D01*
X77333960Y-110131982D01*
X77395305Y-110169965D01*
X77507363Y-110239348D01*
X77697544Y-110313024D01*
X77898024Y-110350500D01*
X77898026Y-110350500D01*
X78101974Y-110350500D01*
X78101976Y-110350500D01*
X78302456Y-110313024D01*
X78492637Y-110239348D01*
X78666041Y-110131981D01*
X78816764Y-109994579D01*
X78939673Y-109831821D01*
X79030582Y-109649250D01*
X79086397Y-109453083D01*
X79105215Y-109250000D01*
X79086397Y-109046917D01*
X79030582Y-108850750D01*
X78939673Y-108668179D01*
X78816764Y-108505421D01*
X78816762Y-108505418D01*
X78666042Y-108368020D01*
X78666041Y-108368019D01*
X78633488Y-108347863D01*
X78586853Y-108295835D01*
X78575592Y-108228145D01*
X78580685Y-108184239D01*
X78000001Y-107603553D01*
X78000000Y-107603553D01*
X77419311Y-108184240D01*
X77424405Y-108228148D01*
X77412577Y-108297009D01*
X77366511Y-108347863D01*
X77333956Y-108368020D01*
X77183237Y-108505418D01*
X77060327Y-108668178D01*
X76969422Y-108850739D01*
X76969417Y-108850752D01*
X76913602Y-109046917D01*
X76894785Y-109249999D01*
X74750500Y-109249999D01*
X74750500Y-107748500D01*
X74495209Y-107748500D01*
X74493110Y-107752037D01*
X74464146Y-107797104D01*
X74459098Y-107804374D01*
X74330114Y-107976673D01*
X74324561Y-107983564D01*
X74289481Y-108024049D01*
X74283449Y-108030528D01*
X74233028Y-108080949D01*
X74226549Y-108086981D01*
X74186064Y-108122061D01*
X74179173Y-108127614D01*
X74006874Y-108256598D01*
X73999604Y-108261646D01*
X73954537Y-108290610D01*
X73946923Y-108295128D01*
X73884333Y-108329305D01*
X73876419Y-108333267D01*
X73827682Y-108355525D01*
X73819502Y-108358913D01*
X73622018Y-108432569D01*
X73614679Y-108435048D01*
X73569828Y-108448653D01*
X73562352Y-108450668D01*
X73501637Y-108465016D01*
X73494045Y-108466561D01*
X73447840Y-108474472D01*
X73440167Y-108475541D01*
X73336244Y-108486712D01*
X73332939Y-108487022D01*
X73312899Y-108488635D01*
X73309578Y-108488858D01*
X73282895Y-108490286D01*
X73279582Y-108490419D01*
X73259534Y-108490955D01*
X73256220Y-108490999D01*
X73248500Y-108490999D01*
X72250500Y-108490999D01*
X71133752Y-108491000D01*
X71130428Y-108490955D01*
X71110326Y-108490416D01*
X71107006Y-108490283D01*
X71080320Y-108488851D01*
X71077011Y-108488629D01*
X71057018Y-108487019D01*
X71053715Y-108486708D01*
X70949825Y-108475538D01*
X70942157Y-108474471D01*
X70895971Y-108466564D01*
X70888381Y-108465019D01*
X70827670Y-108450674D01*
X70820191Y-108448658D01*
X70775328Y-108435050D01*
X70767988Y-108432571D01*
X70748500Y-108425302D01*
X70748500Y-109250500D01*
X69750500Y-109250500D01*
X69750500Y-107748500D01*
X68998500Y-107748500D01*
X68998500Y-109250500D01*
X68000500Y-109250500D01*
X68000500Y-106750500D01*
X68998500Y-106750500D01*
X69696501Y-106750500D01*
X69696500Y-105248500D01*
X68998500Y-105248500D01*
X68998500Y-106750500D01*
X68000500Y-106750500D01*
X68000500Y-104250500D01*
X68998500Y-104250500D01*
X69750500Y-104250500D01*
X69750500Y-104028062D01*
X69748973Y-104020385D01*
X69748118Y-104015597D01*
X69696093Y-103687135D01*
X69699221Y-103634078D01*
X69737034Y-103500000D01*
X69699221Y-103365922D01*
X69696093Y-103312865D01*
X69748118Y-102984403D01*
X69748973Y-102979616D01*
X69750500Y-102971937D01*
X69750500Y-102748500D01*
X68998500Y-102748500D01*
X68998500Y-104250500D01*
X68000500Y-104250500D01*
X68000500Y-101750500D01*
X68998500Y-101750500D01*
X69750500Y-101750500D01*
X69750500Y-101490632D01*
X69748485Y-101480501D01*
X69747630Y-101475712D01*
X69705723Y-101211127D01*
X69705055Y-101206303D01*
X69701595Y-101177069D01*
X69701119Y-101172232D01*
X69698041Y-101133153D01*
X69697754Y-101128288D01*
X69696596Y-101098836D01*
X69696500Y-101093964D01*
X69696500Y-100845646D01*
X70694500Y-100845646D01*
X70694500Y-101074354D01*
X70697267Y-101091823D01*
X70730278Y-101300246D01*
X70730278Y-101300249D01*
X70800950Y-101517755D01*
X70856903Y-101627569D01*
X70904783Y-101721538D01*
X71039214Y-101906566D01*
X71200934Y-102068286D01*
X71285864Y-102129991D01*
X71328529Y-102185321D01*
X71334508Y-102254935D01*
X71301902Y-102316730D01*
X71285864Y-102330627D01*
X71201257Y-102392097D01*
X71039597Y-102553757D01*
X70905211Y-102738723D01*
X70801417Y-102942429D01*
X70730765Y-103159871D01*
X70716491Y-103250000D01*
X71704252Y-103250000D01*
X71682482Y-103287708D01*
X71645000Y-103427591D01*
X71645000Y-103572409D01*
X71682482Y-103712292D01*
X71704252Y-103750000D01*
X70716491Y-103750000D01*
X70730765Y-103840128D01*
X70801417Y-104057570D01*
X70905213Y-104261279D01*
X71038011Y-104444060D01*
X71061491Y-104509866D01*
X71045666Y-104577920D01*
X70995560Y-104626615D01*
X70981026Y-104633127D01*
X70952671Y-104643702D01*
X70952664Y-104643706D01*
X70837455Y-104729952D01*
X70837452Y-104729955D01*
X70751206Y-104845164D01*
X70751202Y-104845171D01*
X70700908Y-104980017D01*
X70698878Y-104998903D01*
X70694501Y-105039623D01*
X70694500Y-105039635D01*
X70694500Y-107040370D01*
X70694501Y-107040376D01*
X70700908Y-107099983D01*
X70751202Y-107234828D01*
X70751206Y-107234835D01*
X70837452Y-107350044D01*
X70837455Y-107350047D01*
X70952664Y-107436293D01*
X70952671Y-107436297D01*
X71087517Y-107486591D01*
X71087516Y-107486591D01*
X71094444Y-107487335D01*
X71147127Y-107493000D01*
X73242872Y-107492999D01*
X73302483Y-107486591D01*
X73437331Y-107436296D01*
X73552546Y-107350046D01*
X73627441Y-107249999D01*
X76895287Y-107249999D01*
X76895287Y-107250000D01*
X76914096Y-107452989D01*
X76914097Y-107452992D01*
X76969883Y-107649063D01*
X76969886Y-107649069D01*
X77060751Y-107831551D01*
X77062533Y-107833911D01*
X77646446Y-107250000D01*
X77062533Y-106666087D01*
X77060755Y-106668442D01*
X77060754Y-106668443D01*
X76969886Y-106850930D01*
X76969883Y-106850936D01*
X76914097Y-107047007D01*
X76914096Y-107047010D01*
X76895287Y-107249999D01*
X73627441Y-107249999D01*
X73638796Y-107234831D01*
X73689091Y-107099983D01*
X73695500Y-107040373D01*
X73695500Y-106750500D01*
X75748500Y-106750500D01*
X75960852Y-106750500D01*
X76016294Y-106555639D01*
X76017987Y-106550169D01*
X76028999Y-106517312D01*
X76030946Y-106511922D01*
X76047608Y-106468913D01*
X76049799Y-106463622D01*
X76063799Y-106431914D01*
X76066234Y-106426727D01*
X76121490Y-106315758D01*
X77419311Y-106315758D01*
X78058699Y-106955145D01*
X78039496Y-106950000D01*
X77960504Y-106950000D01*
X77884204Y-106970444D01*
X77815795Y-107009940D01*
X77759940Y-107065795D01*
X77720444Y-107134204D01*
X77700000Y-107210504D01*
X77700000Y-107289496D01*
X77720444Y-107365796D01*
X77759940Y-107434205D01*
X77815795Y-107490060D01*
X77884204Y-107529556D01*
X77960504Y-107550000D01*
X78039496Y-107550000D01*
X78115796Y-107529556D01*
X78184205Y-107490060D01*
X78240060Y-107434205D01*
X78279556Y-107365796D01*
X78300000Y-107289496D01*
X78300000Y-107210504D01*
X78294854Y-107191300D01*
X78937465Y-107833912D01*
X78939247Y-107831553D01*
X78939248Y-107831551D01*
X79030113Y-107649069D01*
X79030116Y-107649063D01*
X79085902Y-107452992D01*
X79085903Y-107452989D01*
X79104713Y-107250000D01*
X79104713Y-107249999D01*
X79089852Y-107089625D01*
X79103267Y-107021056D01*
X79151624Y-106970624D01*
X79219570Y-106954341D01*
X79285533Y-106977378D01*
X79300998Y-106990498D01*
X80784972Y-108474471D01*
X83391181Y-111080680D01*
X83424666Y-111142003D01*
X83427500Y-111168361D01*
X83427500Y-118198696D01*
X83462103Y-118372658D01*
X83462105Y-118372666D01*
X83496046Y-118454606D01*
X83496046Y-118454607D01*
X83529984Y-118536542D01*
X83529985Y-118536544D01*
X83589063Y-118624960D01*
X83589064Y-118624961D01*
X83628534Y-118684034D01*
X83628535Y-118684035D01*
X86113181Y-121168680D01*
X86146666Y-121230003D01*
X86149500Y-121256361D01*
X86149500Y-128638696D01*
X86184103Y-128812658D01*
X86184105Y-128812666D01*
X86218046Y-128894606D01*
X86218046Y-128894607D01*
X86251984Y-128976542D01*
X86251985Y-128976544D01*
X86311063Y-129064960D01*
X86311064Y-129064961D01*
X86350534Y-129124034D01*
X86350535Y-129124035D01*
X86350536Y-129124036D01*
X87747652Y-130521152D01*
X89113181Y-131886680D01*
X89146666Y-131948003D01*
X89149500Y-131974361D01*
X89149500Y-133138695D01*
X89184103Y-133312658D01*
X89184106Y-133312667D01*
X89251983Y-133476540D01*
X89251990Y-133476553D01*
X89350535Y-133624034D01*
X89350538Y-133624038D01*
X89475961Y-133749461D01*
X89475965Y-133749464D01*
X89623446Y-133848009D01*
X89623459Y-133848016D01*
X89716746Y-133886656D01*
X89787334Y-133915894D01*
X89787336Y-133915894D01*
X89787341Y-133915896D01*
X89961304Y-133950499D01*
X89961307Y-133950500D01*
X89961309Y-133950500D01*
X90138693Y-133950500D01*
X90138694Y-133950499D01*
X90196682Y-133938964D01*
X90312658Y-133915896D01*
X90312661Y-133915894D01*
X90312666Y-133915894D01*
X90476547Y-133848013D01*
X90624035Y-133749464D01*
X90749464Y-133624035D01*
X90848013Y-133476547D01*
X90915894Y-133312666D01*
X90916553Y-133309357D01*
X90944417Y-133169274D01*
X90950500Y-133138691D01*
X90950500Y-131461309D01*
X90915895Y-131287334D01*
X90850339Y-131129071D01*
X90848695Y-131124474D01*
X90825200Y-131089312D01*
X90772857Y-131010975D01*
X90749465Y-130975966D01*
X90701545Y-130928046D01*
X90624035Y-130850536D01*
X90021999Y-130248500D01*
X91433385Y-130248500D01*
X91472483Y-130287597D01*
X91476681Y-130292006D01*
X91501413Y-130319294D01*
X91505388Y-130323903D01*
X91536477Y-130361786D01*
X91540222Y-130366585D01*
X91562155Y-130396159D01*
X91565658Y-130401133D01*
X91718779Y-130630294D01*
X91727773Y-130646171D01*
X91775086Y-130746212D01*
X91781653Y-130763240D01*
X91788810Y-130786840D01*
X91847301Y-130928046D01*
X91849491Y-130933726D01*
X91861894Y-130968390D01*
X91863802Y-130974165D01*
X91878030Y-131021063D01*
X91879655Y-131026931D01*
X91888605Y-131062660D01*
X91889938Y-131068600D01*
X91934105Y-131290646D01*
X91935146Y-131296643D01*
X91940549Y-131333069D01*
X91941294Y-131339110D01*
X91946097Y-131387879D01*
X91946545Y-131393950D01*
X91948351Y-131430725D01*
X91948500Y-131436807D01*
X91948500Y-131750500D01*
X92250500Y-131750500D01*
X93248500Y-131750500D01*
X94750500Y-131750500D01*
X95748500Y-131750500D01*
X97250500Y-131750500D01*
X97250500Y-130248500D01*
X95748500Y-130248500D01*
X95748500Y-131750500D01*
X94750500Y-131750500D01*
X94750500Y-130248500D01*
X93248500Y-130248500D01*
X93248500Y-131750500D01*
X92250500Y-131750500D01*
X92250500Y-130248500D01*
X91433385Y-130248500D01*
X90021999Y-130248500D01*
X89024000Y-129250500D01*
X90748500Y-129250500D01*
X92250500Y-129250500D01*
X92250500Y-129038635D01*
X93248500Y-129038635D01*
X93248500Y-129250500D01*
X94750500Y-129250500D01*
X95748500Y-129250500D01*
X97250500Y-129250500D01*
X97250500Y-127748500D01*
X95748500Y-127748500D01*
X95748500Y-129250500D01*
X94750500Y-129250500D01*
X94750500Y-127748500D01*
X94352003Y-127748500D01*
X94353398Y-127763559D01*
X94353398Y-127786441D01*
X94333733Y-127998658D01*
X94329528Y-128021151D01*
X94271203Y-128226142D01*
X94262937Y-128247479D01*
X94167939Y-128438262D01*
X94155893Y-128457718D01*
X94027455Y-128627796D01*
X94012040Y-128644706D01*
X93854538Y-128788289D01*
X93836276Y-128802079D01*
X93655072Y-128914275D01*
X93634589Y-128924475D01*
X93435855Y-129001465D01*
X93413846Y-129007727D01*
X93248500Y-129038635D01*
X92250500Y-129038635D01*
X92250500Y-128747298D01*
X92137961Y-128644706D01*
X92122545Y-128627796D01*
X91994107Y-128457718D01*
X91982061Y-128438262D01*
X91887063Y-128247479D01*
X91878797Y-128226142D01*
X91820472Y-128021151D01*
X91816267Y-127998658D01*
X91796602Y-127786441D01*
X91796602Y-127763559D01*
X91797997Y-127748500D01*
X90748500Y-127748500D01*
X90748500Y-129250500D01*
X89024000Y-129250500D01*
X87986819Y-128213319D01*
X87953334Y-128151996D01*
X87950500Y-128125638D01*
X87950500Y-126750500D01*
X88948500Y-126750500D01*
X89750500Y-126750500D01*
X90748500Y-126750500D01*
X92250500Y-126750500D01*
X92250500Y-126511364D01*
X93248500Y-126511364D01*
X93413846Y-126542273D01*
X93435855Y-126548535D01*
X93634589Y-126625525D01*
X93655072Y-126635725D01*
X93836276Y-126747921D01*
X93839691Y-126750500D01*
X94750500Y-126750500D01*
X95748500Y-126750500D01*
X97250500Y-126750500D01*
X97250500Y-125248500D01*
X95748500Y-125248500D01*
X95748500Y-126750500D01*
X94750500Y-126750500D01*
X94750500Y-125248500D01*
X93248500Y-125248500D01*
X93248500Y-126511364D01*
X92250500Y-126511364D01*
X92250500Y-125248500D01*
X90748500Y-125248500D01*
X90748500Y-126750500D01*
X89750500Y-126750500D01*
X89750500Y-125248500D01*
X88948500Y-125248500D01*
X88948500Y-126750500D01*
X87950500Y-126750500D01*
X87950500Y-124250500D01*
X88948500Y-124250500D01*
X89750500Y-124250500D01*
X90748500Y-124250500D01*
X92250500Y-124250500D01*
X93248500Y-124250500D01*
X94750500Y-124250500D01*
X95748500Y-124250500D01*
X97250500Y-124250500D01*
X97250500Y-122748500D01*
X95748500Y-122748500D01*
X95748500Y-124250500D01*
X94750500Y-124250500D01*
X94750500Y-122748500D01*
X93248500Y-122748500D01*
X93248500Y-124250500D01*
X92250500Y-124250500D01*
X92250500Y-122748500D01*
X90748500Y-122748500D01*
X90748500Y-124250500D01*
X89750500Y-124250500D01*
X89750500Y-122748500D01*
X88948500Y-122748500D01*
X88948500Y-124250500D01*
X87950500Y-124250500D01*
X87950500Y-121750500D01*
X93719918Y-121750500D01*
X94750500Y-121750500D01*
X95748500Y-121750500D01*
X97250500Y-121750500D01*
X97250500Y-120248500D01*
X95748500Y-120248500D01*
X95748500Y-121750500D01*
X94750500Y-121750500D01*
X94750500Y-120248500D01*
X94608499Y-120248500D01*
X94608499Y-120255193D01*
X94608350Y-120261275D01*
X94606544Y-120298050D01*
X94606096Y-120304121D01*
X94601293Y-120352890D01*
X94600548Y-120358931D01*
X94595145Y-120395357D01*
X94594104Y-120401354D01*
X94549937Y-120623400D01*
X94548604Y-120629340D01*
X94539654Y-120665069D01*
X94538030Y-120670936D01*
X94523803Y-120717833D01*
X94521894Y-120723610D01*
X94509491Y-120758273D01*
X94507301Y-120763951D01*
X94420668Y-120973099D01*
X94418203Y-120978659D01*
X94402464Y-121011939D01*
X94399727Y-121017378D01*
X94376626Y-121060598D01*
X94373626Y-121065893D01*
X94354691Y-121097485D01*
X94351434Y-121102629D01*
X94225657Y-121290867D01*
X94222154Y-121295841D01*
X94200221Y-121325415D01*
X94196475Y-121330215D01*
X94165386Y-121368097D01*
X94161412Y-121372704D01*
X94136681Y-121399991D01*
X94132483Y-121404400D01*
X93972400Y-121564483D01*
X93967991Y-121568681D01*
X93940704Y-121593412D01*
X93936097Y-121597386D01*
X93898215Y-121628475D01*
X93893415Y-121632221D01*
X93863841Y-121654154D01*
X93858867Y-121657657D01*
X93719918Y-121750500D01*
X87950500Y-121750500D01*
X87950500Y-120743306D01*
X87950499Y-120743304D01*
X87915896Y-120569341D01*
X87915893Y-120569332D01*
X87915567Y-120568546D01*
X87898923Y-120528363D01*
X87848016Y-120405459D01*
X87848009Y-120405446D01*
X87749465Y-120257966D01*
X87722190Y-120230691D01*
X87624035Y-120132536D01*
X85902803Y-118411303D01*
X86849500Y-118411303D01*
X86849500Y-118588696D01*
X86884103Y-118762658D01*
X86884105Y-118762666D01*
X86951988Y-118926548D01*
X87050534Y-119074034D01*
X87050540Y-119074041D01*
X88250536Y-120274035D01*
X88329391Y-120352890D01*
X88375966Y-120399465D01*
X88523446Y-120498009D01*
X88523459Y-120498016D01*
X88646363Y-120548923D01*
X88687334Y-120565894D01*
X88729935Y-120574368D01*
X88861305Y-120600500D01*
X88861308Y-120600500D01*
X88861309Y-120600500D01*
X91843639Y-120600500D01*
X91910678Y-120620185D01*
X91931320Y-120636819D01*
X92135960Y-120841460D01*
X92135964Y-120841463D01*
X92283446Y-120940008D01*
X92283452Y-120940011D01*
X92283453Y-120940012D01*
X92447334Y-121007894D01*
X92621303Y-121042498D01*
X92621307Y-121042499D01*
X92621308Y-121042499D01*
X92798692Y-121042499D01*
X92798693Y-121042498D01*
X92972666Y-121007894D01*
X93136546Y-120940012D01*
X93284035Y-120841463D01*
X93409463Y-120716035D01*
X93508012Y-120568546D01*
X93575894Y-120404666D01*
X93610499Y-120230691D01*
X93610499Y-120053308D01*
X93575894Y-119879334D01*
X93508012Y-119715453D01*
X93508011Y-119715452D01*
X93508008Y-119715446D01*
X93409463Y-119567964D01*
X93409460Y-119567960D01*
X92842041Y-119000540D01*
X92842040Y-119000539D01*
X92842036Y-119000536D01*
X92782959Y-118961063D01*
X92782958Y-118961061D01*
X92694544Y-118901985D01*
X92694542Y-118901984D01*
X92612607Y-118868046D01*
X92612606Y-118868046D01*
X92530666Y-118834105D01*
X92530658Y-118834103D01*
X92356696Y-118799500D01*
X92356692Y-118799500D01*
X92356691Y-118799500D01*
X89374361Y-118799500D01*
X89307322Y-118779815D01*
X89286680Y-118763181D01*
X88595342Y-118071842D01*
X93248500Y-118071842D01*
X93799915Y-118440286D01*
X93844720Y-118493898D01*
X93853427Y-118563223D01*
X93849684Y-118579385D01*
X93845630Y-118592745D01*
X94132484Y-118879599D01*
X94136683Y-118884009D01*
X94161413Y-118911296D01*
X94165386Y-118915902D01*
X94196475Y-118953784D01*
X94200221Y-118958584D01*
X94222154Y-118988158D01*
X94225657Y-118993132D01*
X94351434Y-119181370D01*
X94354691Y-119186514D01*
X94373626Y-119218106D01*
X94376626Y-119223402D01*
X94391109Y-119250500D01*
X94750500Y-119250500D01*
X95748500Y-119250500D01*
X97250500Y-119250500D01*
X97250500Y-117748500D01*
X95748500Y-117748500D01*
X95748500Y-119250500D01*
X94750500Y-119250500D01*
X94750500Y-117748500D01*
X93248500Y-117748500D01*
X93248500Y-118071842D01*
X88595342Y-118071842D01*
X88324041Y-117800540D01*
X88324034Y-117800534D01*
X88176548Y-117701988D01*
X88012666Y-117634105D01*
X88012658Y-117634103D01*
X87838696Y-117599500D01*
X87838692Y-117599500D01*
X87661308Y-117599500D01*
X87661303Y-117599500D01*
X87487341Y-117634103D01*
X87487333Y-117634105D01*
X87323451Y-117701988D01*
X87175965Y-117800534D01*
X87175958Y-117800540D01*
X87050540Y-117925958D01*
X87050534Y-117925965D01*
X86951988Y-118073451D01*
X86884105Y-118237333D01*
X86884103Y-118237341D01*
X86849500Y-118411303D01*
X85902803Y-118411303D01*
X85264819Y-117773319D01*
X85231334Y-117711996D01*
X85228500Y-117685638D01*
X85228500Y-116750500D01*
X86226500Y-116750500D01*
X87012647Y-116750500D01*
X87128047Y-116702699D01*
X87133726Y-116700509D01*
X87168390Y-116688106D01*
X87174165Y-116686198D01*
X87221063Y-116671970D01*
X87226931Y-116670346D01*
X87250500Y-116664441D01*
X87250500Y-116664191D01*
X88248500Y-116664191D01*
X88273069Y-116670346D01*
X88278937Y-116671970D01*
X88325835Y-116686198D01*
X88331610Y-116688106D01*
X88366274Y-116700509D01*
X88371953Y-116702699D01*
X88487353Y-116750500D01*
X89750500Y-116750500D01*
X90748500Y-116750500D01*
X92250500Y-116750500D01*
X93248500Y-116750500D01*
X94750500Y-116750500D01*
X95748500Y-116750500D01*
X97250500Y-116750500D01*
X97250500Y-115248500D01*
X95748500Y-115248500D01*
X95748500Y-116750500D01*
X94750500Y-116750500D01*
X94750500Y-115248500D01*
X93248500Y-115248500D01*
X93248500Y-116750500D01*
X92250500Y-116750500D01*
X92250500Y-115248500D01*
X90748500Y-115248500D01*
X90748500Y-116750500D01*
X89750500Y-116750500D01*
X89750500Y-115248500D01*
X88248500Y-115248500D01*
X88248500Y-116664191D01*
X87250500Y-116664191D01*
X87250500Y-115248500D01*
X86226500Y-115248500D01*
X86226500Y-116750500D01*
X85228500Y-116750500D01*
X85228500Y-113395330D01*
X88248500Y-113395330D01*
X88248500Y-114250500D01*
X89750500Y-114250500D01*
X90748500Y-114250500D01*
X92250500Y-114250500D01*
X93248500Y-114250500D01*
X94750500Y-114250500D01*
X95748500Y-114250500D01*
X97250500Y-114250500D01*
X97250500Y-112748500D01*
X95748500Y-112748500D01*
X95748500Y-114250500D01*
X94750500Y-114250500D01*
X94750500Y-112748500D01*
X93248500Y-112748500D01*
X93248500Y-114250500D01*
X92250500Y-114250500D01*
X92250500Y-112748500D01*
X90748500Y-112748500D01*
X90748500Y-114250500D01*
X89750500Y-114250500D01*
X89750500Y-112748500D01*
X88748782Y-112748500D01*
X88698149Y-112850185D01*
X88695477Y-112855253D01*
X88678609Y-112885536D01*
X88675707Y-112890475D01*
X88651427Y-112929687D01*
X88648300Y-112934486D01*
X88628719Y-112963070D01*
X88625374Y-112967719D01*
X88463506Y-113182067D01*
X88459950Y-113186557D01*
X88437812Y-113213217D01*
X88434052Y-113217537D01*
X88402981Y-113251621D01*
X88399024Y-113255765D01*
X88374516Y-113280273D01*
X88370373Y-113284229D01*
X88248500Y-113395330D01*
X85228500Y-113395330D01*
X85228500Y-111749999D01*
X85584357Y-111749999D01*
X85584357Y-111750000D01*
X85604884Y-111971535D01*
X85604885Y-111971537D01*
X85665769Y-112185523D01*
X85665775Y-112185538D01*
X85764938Y-112384683D01*
X85764943Y-112384691D01*
X85899020Y-112562238D01*
X86063437Y-112712123D01*
X86063439Y-112712125D01*
X86252595Y-112829245D01*
X86252596Y-112829245D01*
X86252599Y-112829247D01*
X86460060Y-112909618D01*
X86678757Y-112950500D01*
X86678759Y-112950500D01*
X86901241Y-112950500D01*
X86901243Y-112950500D01*
X87119940Y-112909618D01*
X87327401Y-112829247D01*
X87516562Y-112712124D01*
X87680981Y-112562236D01*
X87815058Y-112384689D01*
X87914229Y-112185528D01*
X87975115Y-111971536D01*
X87995643Y-111750000D01*
X87975115Y-111528464D01*
X87914229Y-111314472D01*
X87901942Y-111289796D01*
X87815061Y-111115316D01*
X87815056Y-111115308D01*
X87680979Y-110937761D01*
X87516562Y-110787876D01*
X87516560Y-110787874D01*
X87327404Y-110670754D01*
X87327398Y-110670752D01*
X87119940Y-110590382D01*
X86901243Y-110549500D01*
X86678757Y-110549500D01*
X86460060Y-110590382D01*
X86386447Y-110618900D01*
X86252601Y-110670752D01*
X86252595Y-110670754D01*
X86063439Y-110787874D01*
X86063437Y-110787876D01*
X85899020Y-110937761D01*
X85764943Y-111115308D01*
X85764938Y-111115316D01*
X85665775Y-111314461D01*
X85665769Y-111314476D01*
X85604885Y-111528462D01*
X85604884Y-111528464D01*
X85584357Y-111749999D01*
X85228500Y-111749999D01*
X85228500Y-110655306D01*
X85228499Y-110655304D01*
X85193896Y-110481341D01*
X85193893Y-110481332D01*
X85126016Y-110317459D01*
X85126009Y-110317446D01*
X85079940Y-110248500D01*
X88403091Y-110248500D01*
X88434052Y-110282463D01*
X88437812Y-110286783D01*
X88459950Y-110313443D01*
X88463506Y-110317933D01*
X88625374Y-110532281D01*
X88628719Y-110536930D01*
X88648300Y-110565514D01*
X88651427Y-110570313D01*
X88675707Y-110609525D01*
X88678609Y-110614464D01*
X88695477Y-110644747D01*
X88698149Y-110649815D01*
X88817888Y-110890281D01*
X88820325Y-110895472D01*
X88834336Y-110927208D01*
X88836530Y-110932506D01*
X88853187Y-110975515D01*
X88855129Y-110980895D01*
X88866131Y-111013723D01*
X88867824Y-111019192D01*
X88941326Y-111277524D01*
X88942766Y-111283067D01*
X88950699Y-111316795D01*
X88951881Y-111322398D01*
X88960357Y-111367734D01*
X88961280Y-111373391D01*
X88966069Y-111407724D01*
X88966729Y-111413413D01*
X88991514Y-111680879D01*
X88991911Y-111686596D01*
X88993511Y-111721214D01*
X88993643Y-111726939D01*
X88993643Y-111750500D01*
X89750500Y-111750500D01*
X90748500Y-111750500D01*
X92250500Y-111750500D01*
X93248500Y-111750500D01*
X94750500Y-111750500D01*
X95748500Y-111750500D01*
X97250500Y-111750500D01*
X97250500Y-110248500D01*
X95748500Y-110248500D01*
X95748500Y-111750500D01*
X94750500Y-111750500D01*
X94750500Y-110248500D01*
X93248500Y-110248500D01*
X93248500Y-111750500D01*
X92250500Y-111750500D01*
X92250500Y-110248500D01*
X90748500Y-110248500D01*
X90748500Y-111750500D01*
X89750500Y-111750500D01*
X89750500Y-110248500D01*
X88403091Y-110248500D01*
X85079940Y-110248500D01*
X85027465Y-110169966D01*
X84989479Y-110131980D01*
X84902035Y-110044536D01*
X84107999Y-109250500D01*
X85748500Y-109250500D01*
X87250500Y-109250500D01*
X88248500Y-109250500D01*
X89750500Y-109250500D01*
X90748500Y-109250500D01*
X92250500Y-109250500D01*
X93248500Y-109250500D01*
X94750500Y-109250500D01*
X95748500Y-109250500D01*
X97250500Y-109250500D01*
X97250500Y-107748500D01*
X95748500Y-107748500D01*
X95748500Y-109250500D01*
X94750500Y-109250500D01*
X94750500Y-107748500D01*
X93248500Y-107748500D01*
X93248500Y-109250500D01*
X92250500Y-109250500D01*
X92250500Y-107748500D01*
X90748500Y-107748500D01*
X90748500Y-109250500D01*
X89750500Y-109250500D01*
X89750500Y-107748500D01*
X88248500Y-107748500D01*
X88248500Y-109250500D01*
X87250500Y-109250500D01*
X87250500Y-107748500D01*
X85748500Y-107748500D01*
X85748500Y-109250500D01*
X84107999Y-109250500D01*
X81608000Y-106750500D01*
X83248500Y-106750500D01*
X84750500Y-106750500D01*
X85748500Y-106750500D01*
X87250500Y-106750500D01*
X88248500Y-106750500D01*
X89750500Y-106750500D01*
X89750500Y-105852240D01*
X89678207Y-105863137D01*
X89673605Y-105863743D01*
X89645712Y-105866885D01*
X89641092Y-105867318D01*
X89603864Y-105870106D01*
X89599239Y-105870365D01*
X89571222Y-105871413D01*
X89566587Y-105871500D01*
X89259413Y-105871500D01*
X89254778Y-105871413D01*
X89226761Y-105870365D01*
X89222136Y-105870106D01*
X89184908Y-105867318D01*
X89180288Y-105866885D01*
X89152395Y-105863743D01*
X89147794Y-105863137D01*
X88844025Y-105817351D01*
X88839453Y-105816574D01*
X88811886Y-105811358D01*
X88807345Y-105810411D01*
X88770947Y-105802103D01*
X88766448Y-105800987D01*
X88739353Y-105793727D01*
X88734896Y-105792443D01*
X88441358Y-105701898D01*
X88436955Y-105700449D01*
X88410482Y-105691186D01*
X88406132Y-105689572D01*
X88371381Y-105675933D01*
X88367100Y-105674160D01*
X88341382Y-105662940D01*
X88337165Y-105661005D01*
X88248500Y-105618306D01*
X88248500Y-106750500D01*
X87250500Y-106750500D01*
X87250500Y-105535958D01*
X90748500Y-105535958D01*
X90748500Y-106750500D01*
X92250500Y-106750500D01*
X92250500Y-105871000D01*
X93248500Y-105871000D01*
X93248500Y-106750500D01*
X94750500Y-106750500D01*
X94750500Y-105871000D01*
X95748500Y-105871000D01*
X95748500Y-106750500D01*
X97250500Y-106750500D01*
X97250500Y-105248500D01*
X97008844Y-105248500D01*
X96927757Y-105356817D01*
X96922204Y-105363707D01*
X96887124Y-105404192D01*
X96881092Y-105410671D01*
X96830671Y-105461092D01*
X96824192Y-105467124D01*
X96783707Y-105502204D01*
X96776816Y-105507757D01*
X96604632Y-105636655D01*
X96597362Y-105641703D01*
X96552295Y-105670667D01*
X96544681Y-105675185D01*
X96482091Y-105709362D01*
X96474177Y-105713323D01*
X96425441Y-105735581D01*
X96417261Y-105738970D01*
X96219904Y-105812579D01*
X96212564Y-105815058D01*
X96167695Y-105828668D01*
X96160212Y-105830685D01*
X96099501Y-105845028D01*
X96091916Y-105846572D01*
X96045738Y-105854478D01*
X96038069Y-105855545D01*
X95934217Y-105866711D01*
X95930905Y-105867023D01*
X95910856Y-105868636D01*
X95907542Y-105868858D01*
X95880855Y-105870287D01*
X95877539Y-105870420D01*
X95857491Y-105870956D01*
X95854177Y-105871000D01*
X95748500Y-105871000D01*
X94750500Y-105871000D01*
X94542454Y-105871000D01*
X94495000Y-105861561D01*
X94493000Y-105860732D01*
X94491000Y-105861561D01*
X94443546Y-105871000D01*
X93248500Y-105871000D01*
X92250500Y-105871000D01*
X92250500Y-105538687D01*
X92209184Y-105507758D01*
X92202293Y-105502204D01*
X92161808Y-105467124D01*
X92155329Y-105461092D01*
X92104908Y-105410671D01*
X92098876Y-105404192D01*
X92063796Y-105363707D01*
X92058243Y-105356817D01*
X91977156Y-105248500D01*
X91181247Y-105248500D01*
X91179161Y-105250295D01*
X91175591Y-105253253D01*
X91146404Y-105276530D01*
X91142725Y-105279353D01*
X91120146Y-105296018D01*
X91116361Y-105298704D01*
X90862551Y-105471748D01*
X90858674Y-105474287D01*
X90834933Y-105489205D01*
X90830963Y-105491597D01*
X90798632Y-105510265D01*
X90794572Y-105512509D01*
X90769757Y-105525625D01*
X90765614Y-105527717D01*
X90748500Y-105535958D01*
X87250500Y-105535958D01*
X87250500Y-105248500D01*
X85748500Y-105248500D01*
X85748500Y-106750500D01*
X84750500Y-106750500D01*
X84750500Y-105248500D01*
X83248500Y-105248500D01*
X83248500Y-106750500D01*
X81608000Y-106750500D01*
X79778419Y-104920919D01*
X79744934Y-104859596D01*
X79742100Y-104833238D01*
X79742100Y-102965902D01*
X80748500Y-102965902D01*
X80748500Y-104250500D01*
X82250500Y-104250500D01*
X82250500Y-102955184D01*
X83248500Y-102955184D01*
X83248500Y-104250500D01*
X84750500Y-104250500D01*
X85748500Y-104250500D01*
X86869256Y-104250500D01*
X86865840Y-104242670D01*
X86864066Y-104238388D01*
X86751840Y-103952443D01*
X86750227Y-103948097D01*
X86740968Y-103921638D01*
X86739521Y-103917240D01*
X86728514Y-103881566D01*
X86727228Y-103877103D01*
X86719961Y-103849984D01*
X86718844Y-103845481D01*
X86650485Y-103545980D01*
X86649538Y-103541440D01*
X86644322Y-103513873D01*
X86643545Y-103509301D01*
X86637981Y-103472385D01*
X86637376Y-103467788D01*
X86634235Y-103439912D01*
X86633802Y-103435294D01*
X86610847Y-103128964D01*
X86610587Y-103124335D01*
X86609538Y-103096303D01*
X86609451Y-103091666D01*
X86609451Y-103072995D01*
X87607451Y-103072995D01*
X87607451Y-103073004D01*
X87627616Y-103342101D01*
X87687664Y-103605188D01*
X87687666Y-103605195D01*
X87783739Y-103849984D01*
X87786257Y-103856398D01*
X87921185Y-104090102D01*
X87996153Y-104184108D01*
X88089442Y-104301089D01*
X88258035Y-104457519D01*
X88287259Y-104484635D01*
X88510226Y-104636651D01*
X88510229Y-104636652D01*
X88510230Y-104636653D01*
X88524872Y-104643704D01*
X88753359Y-104753738D01*
X89011228Y-104833280D01*
X89011229Y-104833280D01*
X89011232Y-104833281D01*
X89278063Y-104873499D01*
X89278068Y-104873499D01*
X89278071Y-104873500D01*
X89278072Y-104873500D01*
X89547928Y-104873500D01*
X89547929Y-104873500D01*
X89547936Y-104873499D01*
X89814767Y-104833281D01*
X89814768Y-104833280D01*
X89814772Y-104833280D01*
X90072641Y-104753738D01*
X90301129Y-104643704D01*
X90315767Y-104636655D01*
X90315767Y-104636654D01*
X90315775Y-104636651D01*
X90538741Y-104484635D01*
X90736561Y-104301085D01*
X90904815Y-104090102D01*
X91039743Y-103856398D01*
X91138334Y-103605195D01*
X91198383Y-103342103D01*
X91205285Y-103250000D01*
X91218549Y-103073004D01*
X91218549Y-103072995D01*
X91201744Y-102848747D01*
X91198383Y-102803897D01*
X91138334Y-102540805D01*
X91039743Y-102289602D01*
X90904815Y-102055898D01*
X90736561Y-101844915D01*
X90736560Y-101844914D01*
X90736557Y-101844910D01*
X90607491Y-101725155D01*
X92693000Y-101725155D01*
X92693000Y-102823000D01*
X93892999Y-102823000D01*
X93867979Y-102883402D01*
X93843000Y-103008981D01*
X93843000Y-103137019D01*
X93867979Y-103262598D01*
X93892999Y-103323000D01*
X92693000Y-103323000D01*
X92693000Y-104420844D01*
X92699401Y-104480372D01*
X92699403Y-104480379D01*
X92749645Y-104615086D01*
X92749649Y-104615093D01*
X92835809Y-104730187D01*
X92835812Y-104730190D01*
X92950906Y-104816350D01*
X92950913Y-104816354D01*
X93085620Y-104866596D01*
X93085627Y-104866598D01*
X93145155Y-104872999D01*
X93145172Y-104873000D01*
X94243000Y-104873000D01*
X94243000Y-103673001D01*
X94303402Y-103698021D01*
X94428981Y-103723000D01*
X94557019Y-103723000D01*
X94682598Y-103698021D01*
X94743000Y-103673001D01*
X94743000Y-104873000D01*
X95840828Y-104873000D01*
X95840844Y-104872999D01*
X95900372Y-104866598D01*
X95900379Y-104866596D01*
X96035086Y-104816354D01*
X96035093Y-104816350D01*
X96150187Y-104730190D01*
X96150190Y-104730187D01*
X96236350Y-104615093D01*
X96236354Y-104615086D01*
X96286596Y-104480379D01*
X96286598Y-104480372D01*
X96292999Y-104420844D01*
X96293000Y-104420827D01*
X96293000Y-103323000D01*
X95093001Y-103323000D01*
X95118021Y-103262598D01*
X95143000Y-103137019D01*
X95143000Y-103008981D01*
X95118021Y-102883402D01*
X95093001Y-102823000D01*
X96293000Y-102823000D01*
X96293000Y-102539999D01*
X98644341Y-102539999D01*
X98644341Y-102540000D01*
X98664936Y-102775403D01*
X98664938Y-102775413D01*
X98726094Y-103003655D01*
X98726096Y-103003659D01*
X98726097Y-103003663D01*
X98784526Y-103128964D01*
X98825965Y-103217830D01*
X98825967Y-103217834D01*
X98912982Y-103342103D01*
X98961505Y-103411401D01*
X99128599Y-103578495D01*
X99166721Y-103605188D01*
X99322165Y-103714032D01*
X99322167Y-103714033D01*
X99322170Y-103714035D01*
X99536337Y-103813903D01*
X99764592Y-103875063D01*
X99952918Y-103891539D01*
X99999999Y-103895659D01*
X100000000Y-103895659D01*
X100000001Y-103895659D01*
X100039234Y-103892226D01*
X100235408Y-103875063D01*
X100463663Y-103813903D01*
X100677830Y-103714035D01*
X100871401Y-103578495D01*
X101038495Y-103411401D01*
X101174035Y-103217830D01*
X101273903Y-103003663D01*
X101335063Y-102775408D01*
X101355659Y-102540000D01*
X101335063Y-102304592D01*
X101273903Y-102076337D01*
X101174035Y-101862171D01*
X101161952Y-101844915D01*
X101038496Y-101668600D01*
X100978766Y-101608870D01*
X100916179Y-101546283D01*
X100882696Y-101484963D01*
X100887680Y-101415271D01*
X100929551Y-101359337D01*
X100960529Y-101342422D01*
X101092086Y-101293354D01*
X101092093Y-101293350D01*
X101207187Y-101207190D01*
X101207190Y-101207187D01*
X101293350Y-101092093D01*
X101293354Y-101092086D01*
X101343596Y-100957379D01*
X101343598Y-100957372D01*
X101349999Y-100897844D01*
X101350000Y-100897827D01*
X101350000Y-100250000D01*
X100433012Y-100250000D01*
X100465925Y-100192993D01*
X100500000Y-100065826D01*
X100500000Y-99934174D01*
X100465925Y-99807007D01*
X100433012Y-99750000D01*
X101350000Y-99750000D01*
X101350000Y-99102172D01*
X101349999Y-99102155D01*
X101343598Y-99042627D01*
X101343596Y-99042620D01*
X101293354Y-98907913D01*
X101293350Y-98907906D01*
X101207190Y-98792812D01*
X101207187Y-98792809D01*
X101092093Y-98706649D01*
X101092086Y-98706645D01*
X100957379Y-98656403D01*
X100957372Y-98656401D01*
X100897844Y-98650000D01*
X100250000Y-98650000D01*
X100250000Y-99566988D01*
X100192993Y-99534075D01*
X100065826Y-99500000D01*
X99934174Y-99500000D01*
X99807007Y-99534075D01*
X99750000Y-99566988D01*
X99750000Y-98650000D01*
X99102155Y-98650000D01*
X99042627Y-98656401D01*
X99042620Y-98656403D01*
X98907913Y-98706645D01*
X98907906Y-98706649D01*
X98792812Y-98792809D01*
X98792809Y-98792812D01*
X98706649Y-98907906D01*
X98706645Y-98907913D01*
X98656403Y-99042620D01*
X98656401Y-99042627D01*
X98650000Y-99102155D01*
X98650000Y-99750000D01*
X99566988Y-99750000D01*
X99534075Y-99807007D01*
X99500000Y-99934174D01*
X99500000Y-100065826D01*
X99534075Y-100192993D01*
X99566988Y-100250000D01*
X98650000Y-100250000D01*
X98650000Y-100897844D01*
X98656401Y-100957372D01*
X98656403Y-100957379D01*
X98706645Y-101092086D01*
X98706649Y-101092093D01*
X98792809Y-101207187D01*
X98792812Y-101207190D01*
X98907906Y-101293350D01*
X98907913Y-101293354D01*
X99039470Y-101342421D01*
X99095403Y-101384292D01*
X99119821Y-101449756D01*
X99104970Y-101518029D01*
X99083819Y-101546284D01*
X98961503Y-101668600D01*
X98825965Y-101862169D01*
X98825964Y-101862171D01*
X98726098Y-102076335D01*
X98726094Y-102076344D01*
X98664938Y-102304586D01*
X98664936Y-102304596D01*
X98644341Y-102539999D01*
X96293000Y-102539999D01*
X96293000Y-101725172D01*
X96292999Y-101725155D01*
X96286598Y-101665627D01*
X96286596Y-101665620D01*
X96236354Y-101530913D01*
X96236350Y-101530906D01*
X96150190Y-101415812D01*
X96150187Y-101415809D01*
X96035093Y-101329649D01*
X96035086Y-101329645D01*
X95900379Y-101279403D01*
X95900372Y-101279401D01*
X95840844Y-101273000D01*
X94743000Y-101273000D01*
X94743000Y-102472998D01*
X94682598Y-102447979D01*
X94557019Y-102423000D01*
X94428981Y-102423000D01*
X94303402Y-102447979D01*
X94243000Y-102472998D01*
X94243000Y-101273000D01*
X93145155Y-101273000D01*
X93085627Y-101279401D01*
X93085620Y-101279403D01*
X92950913Y-101329645D01*
X92950906Y-101329649D01*
X92835812Y-101415809D01*
X92835809Y-101415812D01*
X92749649Y-101530906D01*
X92749645Y-101530913D01*
X92699403Y-101665620D01*
X92699401Y-101665627D01*
X92693000Y-101725155D01*
X90607491Y-101725155D01*
X90538741Y-101661365D01*
X90315775Y-101509349D01*
X90315769Y-101509346D01*
X90315768Y-101509345D01*
X90315767Y-101509344D01*
X90072643Y-101392263D01*
X90072645Y-101392263D01*
X89814773Y-101312720D01*
X89814767Y-101312718D01*
X89547936Y-101272500D01*
X89547929Y-101272500D01*
X89278071Y-101272500D01*
X89278063Y-101272500D01*
X89011232Y-101312718D01*
X89011226Y-101312720D01*
X88753358Y-101392262D01*
X88510230Y-101509346D01*
X88287258Y-101661365D01*
X88089442Y-101844910D01*
X87921185Y-102055898D01*
X87786258Y-102289599D01*
X87786256Y-102289603D01*
X87687666Y-102540804D01*
X87687664Y-102540811D01*
X87627616Y-102803898D01*
X87607451Y-103072995D01*
X86609451Y-103072995D01*
X86609451Y-103054334D01*
X86609538Y-103049697D01*
X86610587Y-103021665D01*
X86610847Y-103017036D01*
X86630970Y-102748500D01*
X85748500Y-102748500D01*
X85748500Y-104250500D01*
X84750500Y-104250500D01*
X84750500Y-102923261D01*
X84731568Y-102930154D01*
X84726440Y-102931895D01*
X84695205Y-102941744D01*
X84690008Y-102943259D01*
X84419666Y-103015695D01*
X84414412Y-103016981D01*
X84382454Y-103024066D01*
X84377146Y-103025121D01*
X84334251Y-103032684D01*
X84328904Y-103033507D01*
X84296461Y-103037778D01*
X84291084Y-103038367D01*
X84012287Y-103062759D01*
X84006890Y-103063113D01*
X83974190Y-103064541D01*
X83968780Y-103064659D01*
X83925220Y-103064659D01*
X83919810Y-103064541D01*
X83887110Y-103063113D01*
X83881713Y-103062759D01*
X83602916Y-103038367D01*
X83597539Y-103037778D01*
X83565096Y-103033507D01*
X83559749Y-103032684D01*
X83516854Y-103025121D01*
X83511546Y-103024066D01*
X83479588Y-103016981D01*
X83474334Y-103015695D01*
X83248500Y-102955184D01*
X82250500Y-102955184D01*
X82250500Y-102907924D01*
X82237535Y-102913295D01*
X82232500Y-102915253D01*
X82191568Y-102930154D01*
X82186440Y-102931895D01*
X82155205Y-102941744D01*
X82150008Y-102943259D01*
X81879666Y-103015695D01*
X81874412Y-103016981D01*
X81842454Y-103024066D01*
X81837146Y-103025121D01*
X81794251Y-103032684D01*
X81788904Y-103033507D01*
X81756461Y-103037778D01*
X81751084Y-103038367D01*
X81472287Y-103062759D01*
X81466890Y-103063113D01*
X81434190Y-103064541D01*
X81428780Y-103064659D01*
X81385220Y-103064659D01*
X81379810Y-103064541D01*
X81347110Y-103063113D01*
X81341713Y-103062759D01*
X81062916Y-103038367D01*
X81057539Y-103037778D01*
X81025096Y-103033507D01*
X81019749Y-103032684D01*
X80976854Y-103025121D01*
X80971546Y-103024066D01*
X80939588Y-103016981D01*
X80934334Y-103015695D01*
X80748500Y-102965902D01*
X79742100Y-102965902D01*
X79742100Y-102171913D01*
X79761785Y-102104874D01*
X79814589Y-102059119D01*
X79822767Y-102055731D01*
X79848694Y-102046061D01*
X79959331Y-102004796D01*
X80074546Y-101918546D01*
X80160796Y-101803331D01*
X80209810Y-101671916D01*
X80251681Y-101615984D01*
X80317145Y-101591566D01*
X80385418Y-101606417D01*
X80413673Y-101627569D01*
X80535599Y-101749495D01*
X80632384Y-101817265D01*
X80729165Y-101885032D01*
X80729167Y-101885033D01*
X80729170Y-101885035D01*
X80943337Y-101984903D01*
X81171592Y-102046063D01*
X81359918Y-102062539D01*
X81406999Y-102066659D01*
X81407000Y-102066659D01*
X81407001Y-102066659D01*
X81446234Y-102063226D01*
X81642408Y-102046063D01*
X81870663Y-101984903D01*
X82084830Y-101885035D01*
X82278401Y-101749495D01*
X82445495Y-101582401D01*
X82575425Y-101396842D01*
X82630002Y-101353217D01*
X82699500Y-101346023D01*
X82761855Y-101377546D01*
X82778575Y-101396842D01*
X82908500Y-101582395D01*
X82908505Y-101582401D01*
X83075599Y-101749495D01*
X83172384Y-101817265D01*
X83269165Y-101885032D01*
X83269167Y-101885033D01*
X83269170Y-101885035D01*
X83483337Y-101984903D01*
X83711592Y-102046063D01*
X83899918Y-102062539D01*
X83946999Y-102066659D01*
X83947000Y-102066659D01*
X83947001Y-102066659D01*
X83986234Y-102063226D01*
X84182408Y-102046063D01*
X84410663Y-101984903D01*
X84624830Y-101885035D01*
X84816966Y-101750500D01*
X86053557Y-101750500D01*
X86945116Y-101750500D01*
X87066222Y-101540738D01*
X87068615Y-101536767D01*
X87083536Y-101513020D01*
X87086075Y-101509142D01*
X87107105Y-101478295D01*
X87109788Y-101474513D01*
X87126452Y-101451933D01*
X87129277Y-101448251D01*
X87250500Y-101296243D01*
X87250500Y-100610041D01*
X90748500Y-100610041D01*
X90765615Y-100618284D01*
X90769757Y-100620375D01*
X90794572Y-100633491D01*
X90798632Y-100635735D01*
X90830963Y-100654403D01*
X90834933Y-100656795D01*
X90858674Y-100671713D01*
X90862551Y-100674252D01*
X91116361Y-100847296D01*
X91120146Y-100849982D01*
X91142725Y-100866647D01*
X91146404Y-100869470D01*
X91175591Y-100892747D01*
X91179161Y-100895705D01*
X91200416Y-100913997D01*
X91203872Y-100917085D01*
X91429069Y-101126036D01*
X91432414Y-101129258D01*
X91452277Y-101149123D01*
X91455497Y-101152467D01*
X91480887Y-101179836D01*
X91483974Y-101183291D01*
X91502247Y-101204527D01*
X91505201Y-101208092D01*
X91696723Y-101448251D01*
X91699548Y-101451933D01*
X91716212Y-101474513D01*
X91718743Y-101478081D01*
X91719428Y-101474084D01*
X91720972Y-101466499D01*
X91735315Y-101405788D01*
X91737332Y-101398305D01*
X91750942Y-101353436D01*
X91753421Y-101346096D01*
X91827030Y-101148739D01*
X91830419Y-101140559D01*
X91852677Y-101091823D01*
X91856638Y-101083909D01*
X91890815Y-101021319D01*
X91895333Y-101013705D01*
X91924297Y-100968638D01*
X91929345Y-100961368D01*
X92058243Y-100789184D01*
X92063796Y-100782293D01*
X92098876Y-100741808D01*
X92104908Y-100735329D01*
X92155329Y-100684908D01*
X92161808Y-100678876D01*
X92202293Y-100643796D01*
X92209184Y-100638243D01*
X92250500Y-100607313D01*
X92250500Y-100275000D01*
X95748500Y-100275000D01*
X95854177Y-100275000D01*
X95857491Y-100275044D01*
X95877539Y-100275580D01*
X95880855Y-100275713D01*
X95907542Y-100277142D01*
X95910856Y-100277364D01*
X95930905Y-100278977D01*
X95934217Y-100279289D01*
X96038069Y-100290455D01*
X96045738Y-100291522D01*
X96091916Y-100299428D01*
X96099501Y-100300972D01*
X96160212Y-100315315D01*
X96167695Y-100317332D01*
X96212564Y-100330942D01*
X96219904Y-100333421D01*
X96417261Y-100407030D01*
X96425441Y-100410419D01*
X96474177Y-100432677D01*
X96482091Y-100436638D01*
X96544681Y-100470815D01*
X96552295Y-100475333D01*
X96597362Y-100504297D01*
X96604632Y-100509345D01*
X96776816Y-100638243D01*
X96783707Y-100643796D01*
X96824192Y-100678876D01*
X96830671Y-100684908D01*
X96881092Y-100735329D01*
X96887124Y-100741808D01*
X96922204Y-100782293D01*
X96927757Y-100789184D01*
X97056655Y-100961368D01*
X97061703Y-100968638D01*
X97090667Y-101013705D01*
X97095185Y-101021319D01*
X97129362Y-101083909D01*
X97133323Y-101091823D01*
X97155581Y-101140559D01*
X97158970Y-101148739D01*
X97232579Y-101346096D01*
X97235058Y-101353436D01*
X97248668Y-101398305D01*
X97250500Y-101405101D01*
X97250500Y-100248500D01*
X95748500Y-100248500D01*
X95748500Y-100275000D01*
X92250500Y-100275000D01*
X92250500Y-100248500D01*
X90748500Y-100248500D01*
X90748500Y-100610041D01*
X87250500Y-100610041D01*
X87250500Y-100248500D01*
X86254070Y-100248500D01*
X86260066Y-100275546D01*
X86261121Y-100280854D01*
X86268684Y-100323749D01*
X86269507Y-100329096D01*
X86273778Y-100361539D01*
X86274367Y-100366916D01*
X86298759Y-100645713D01*
X86299113Y-100651110D01*
X86300541Y-100683810D01*
X86300659Y-100689220D01*
X86300659Y-100732780D01*
X86300541Y-100738190D01*
X86299113Y-100770890D01*
X86298759Y-100776287D01*
X86274367Y-101055084D01*
X86273778Y-101060461D01*
X86269507Y-101092904D01*
X86268684Y-101098251D01*
X86261121Y-101141146D01*
X86260066Y-101146454D01*
X86252981Y-101178412D01*
X86251695Y-101183666D01*
X86179259Y-101454008D01*
X86177744Y-101459205D01*
X86167895Y-101490440D01*
X86166154Y-101495568D01*
X86151253Y-101536500D01*
X86149295Y-101541535D01*
X86136777Y-101571756D01*
X86134598Y-101576708D01*
X86053557Y-101750500D01*
X84816966Y-101750500D01*
X84818401Y-101749495D01*
X84985495Y-101582401D01*
X85121035Y-101388830D01*
X85220903Y-101174663D01*
X85282063Y-100946408D01*
X85302659Y-100711000D01*
X85300753Y-100689220D01*
X85282063Y-100475596D01*
X85282063Y-100475592D01*
X85228471Y-100275580D01*
X85220905Y-100247344D01*
X85220904Y-100247343D01*
X85220903Y-100247337D01*
X85121035Y-100033171D01*
X85115425Y-100025158D01*
X84985494Y-99839597D01*
X84818402Y-99672506D01*
X84818395Y-99672501D01*
X84624834Y-99536967D01*
X84624830Y-99536965D01*
X84560570Y-99507000D01*
X84410663Y-99437097D01*
X84410659Y-99437096D01*
X84410655Y-99437094D01*
X84182413Y-99375938D01*
X84182403Y-99375936D01*
X83947001Y-99355341D01*
X83946999Y-99355341D01*
X83711596Y-99375936D01*
X83711586Y-99375938D01*
X83483344Y-99437094D01*
X83483335Y-99437098D01*
X83269171Y-99536964D01*
X83269169Y-99536965D01*
X83075597Y-99672505D01*
X82908505Y-99839597D01*
X82778575Y-100025158D01*
X82723998Y-100068783D01*
X82654500Y-100075977D01*
X82592145Y-100044454D01*
X82575425Y-100025158D01*
X82445494Y-99839597D01*
X82278402Y-99672506D01*
X82278395Y-99672501D01*
X82084834Y-99536967D01*
X82084830Y-99536965D01*
X82020570Y-99507000D01*
X81870663Y-99437097D01*
X81870659Y-99437096D01*
X81870655Y-99437094D01*
X81642413Y-99375938D01*
X81642403Y-99375936D01*
X81407001Y-99355341D01*
X81406999Y-99355341D01*
X81171596Y-99375936D01*
X81171586Y-99375938D01*
X80943344Y-99437094D01*
X80943335Y-99437098D01*
X80729171Y-99536964D01*
X80729169Y-99536965D01*
X80535600Y-99672503D01*
X80413673Y-99794430D01*
X80352350Y-99827914D01*
X80282658Y-99822930D01*
X80226725Y-99781058D01*
X80209810Y-99750081D01*
X80160797Y-99618671D01*
X80160793Y-99618664D01*
X80074547Y-99503455D01*
X80074544Y-99503452D01*
X79959335Y-99417206D01*
X79959328Y-99417202D01*
X79824482Y-99366908D01*
X79824483Y-99366908D01*
X79764883Y-99360501D01*
X79764881Y-99360500D01*
X79764873Y-99360500D01*
X79764864Y-99360500D01*
X77969129Y-99360500D01*
X77969123Y-99360501D01*
X77909516Y-99366908D01*
X77774671Y-99417202D01*
X77774664Y-99417206D01*
X77659455Y-99503452D01*
X77659452Y-99503455D01*
X77573206Y-99618664D01*
X77573202Y-99618671D01*
X77522908Y-99753517D01*
X77516501Y-99813116D01*
X77516500Y-99813135D01*
X77516500Y-101608870D01*
X77516501Y-101608876D01*
X77522908Y-101668483D01*
X77573202Y-101803328D01*
X77573206Y-101803335D01*
X77659452Y-101918544D01*
X77659455Y-101918547D01*
X77774664Y-102004793D01*
X77774671Y-102004797D01*
X77860433Y-102036784D01*
X77916367Y-102078655D01*
X77940784Y-102144119D01*
X77941100Y-102152966D01*
X77941100Y-105346296D01*
X77975703Y-105520258D01*
X77975705Y-105520266D01*
X78009646Y-105602206D01*
X78009646Y-105602207D01*
X78043584Y-105684142D01*
X78043585Y-105684144D01*
X78102663Y-105772560D01*
X78102664Y-105772561D01*
X78142134Y-105831634D01*
X78259789Y-105949289D01*
X78293274Y-106010612D01*
X78288290Y-106080304D01*
X78246418Y-106136237D01*
X78180954Y-106160654D01*
X78149325Y-106158859D01*
X78101930Y-106150000D01*
X77898072Y-106150000D01*
X77697678Y-106187460D01*
X77507588Y-106261100D01*
X77507581Y-106261104D01*
X77419312Y-106315757D01*
X77419311Y-106315758D01*
X76121490Y-106315758D01*
X76177644Y-106202987D01*
X76180310Y-106197928D01*
X76197140Y-106167707D01*
X76200037Y-106162777D01*
X76224277Y-106123614D01*
X76227398Y-106118822D01*
X76246959Y-106090252D01*
X76250302Y-106085603D01*
X76398041Y-105889863D01*
X76437909Y-105855558D01*
X76552503Y-105793423D01*
X76657467Y-105628199D01*
X76696855Y-105589263D01*
X76946949Y-105434414D01*
X76945503Y-105419722D01*
X76945055Y-105413651D01*
X76943249Y-105376876D01*
X76943100Y-105370794D01*
X76943100Y-105248500D01*
X75748500Y-105248500D01*
X75748500Y-106750500D01*
X73695500Y-106750500D01*
X73695499Y-105039628D01*
X73689091Y-104980017D01*
X73649362Y-104873499D01*
X73638797Y-104845171D01*
X73638793Y-104845164D01*
X73552547Y-104729955D01*
X73552544Y-104729952D01*
X73437335Y-104643706D01*
X73437326Y-104643701D01*
X73408974Y-104633127D01*
X73353040Y-104591257D01*
X73328622Y-104525792D01*
X73343473Y-104457519D01*
X73351988Y-104444059D01*
X73484788Y-104261276D01*
X73490279Y-104250500D01*
X75748500Y-104250500D01*
X76943100Y-104250500D01*
X76943100Y-102748500D01*
X75748500Y-102748500D01*
X75748500Y-104250500D01*
X73490279Y-104250500D01*
X73588582Y-104057570D01*
X73659234Y-103840128D01*
X73673509Y-103750000D01*
X72685748Y-103750000D01*
X72707518Y-103712292D01*
X72745000Y-103572409D01*
X72745000Y-103427591D01*
X72707518Y-103287708D01*
X72685748Y-103250000D01*
X73673509Y-103250000D01*
X73659234Y-103159871D01*
X73588582Y-102942429D01*
X73484788Y-102738723D01*
X73350402Y-102553757D01*
X73188742Y-102392097D01*
X73104135Y-102330626D01*
X73061470Y-102275296D01*
X73055491Y-102205682D01*
X73088097Y-102143887D01*
X73104125Y-102129999D01*
X73189066Y-102068286D01*
X73350786Y-101906566D01*
X73464175Y-101750500D01*
X75748500Y-101750500D01*
X76527975Y-101750500D01*
X76522788Y-101702245D01*
X76522477Y-101698936D01*
X76520865Y-101678899D01*
X76520643Y-101675587D01*
X76519214Y-101648905D01*
X76519081Y-101645587D01*
X76518545Y-101625536D01*
X76518501Y-101622222D01*
X76518500Y-100248500D01*
X75748500Y-100248500D01*
X75748500Y-101750500D01*
X73464175Y-101750500D01*
X73485217Y-101721538D01*
X73589048Y-101517758D01*
X73591782Y-101509344D01*
X73659721Y-101300249D01*
X73659721Y-101300248D01*
X73659722Y-101300245D01*
X73695500Y-101074354D01*
X73695500Y-100845646D01*
X73659722Y-100619755D01*
X73659721Y-100619751D01*
X73659721Y-100619750D01*
X73589049Y-100402244D01*
X73587956Y-100400099D01*
X73485217Y-100198462D01*
X73350786Y-100013434D01*
X73189066Y-99851714D01*
X73004038Y-99717283D01*
X72956366Y-99692993D01*
X72800255Y-99613450D01*
X72582748Y-99542778D01*
X72413326Y-99515944D01*
X72356854Y-99507000D01*
X72033146Y-99507000D01*
X71957849Y-99518926D01*
X71807253Y-99542778D01*
X71807250Y-99542778D01*
X71589744Y-99613450D01*
X71385961Y-99717283D01*
X71336090Y-99753517D01*
X71200934Y-99851714D01*
X71200932Y-99851716D01*
X71200931Y-99851716D01*
X71039216Y-100013431D01*
X71039216Y-100013432D01*
X71039214Y-100013434D01*
X71016677Y-100044454D01*
X70904783Y-100198461D01*
X70800950Y-100402244D01*
X70730278Y-100619750D01*
X70730278Y-100619753D01*
X70704534Y-100782293D01*
X70694500Y-100845646D01*
X69696500Y-100845646D01*
X69696500Y-100826036D01*
X69696596Y-100821164D01*
X69697754Y-100791712D01*
X69698041Y-100786847D01*
X69701119Y-100747768D01*
X69701595Y-100742931D01*
X69705055Y-100713697D01*
X69705723Y-100708873D01*
X69747630Y-100444288D01*
X69748485Y-100439500D01*
X69750500Y-100429367D01*
X69750500Y-100248500D01*
X68998500Y-100248500D01*
X68998500Y-101750500D01*
X68000500Y-101750500D01*
X68000500Y-99250500D01*
X68998500Y-99250500D01*
X69750500Y-99250500D01*
X69750500Y-98721760D01*
X73248500Y-98721760D01*
X73474583Y-98836956D01*
X73478876Y-98839251D01*
X73504572Y-98853641D01*
X73508773Y-98856103D01*
X73542197Y-98876585D01*
X73546298Y-98879210D01*
X73570795Y-98895578D01*
X73574791Y-98898363D01*
X73791536Y-99055838D01*
X73795419Y-99058778D01*
X73818553Y-99077016D01*
X73822316Y-99080104D01*
X73852123Y-99105562D01*
X73855763Y-99108797D01*
X73877391Y-99128790D01*
X73880900Y-99132164D01*
X73999236Y-99250500D01*
X74750500Y-99250500D01*
X75748500Y-99250500D01*
X76645365Y-99250500D01*
X76650587Y-99236498D01*
X76653975Y-99228318D01*
X76668597Y-99196300D01*
X85748500Y-99196300D01*
X85764018Y-99214795D01*
X85767403Y-99219012D01*
X85787323Y-99244973D01*
X85790521Y-99249335D01*
X85791337Y-99250500D01*
X87250500Y-99250500D01*
X88248500Y-99250500D01*
X89750500Y-99250500D01*
X90748500Y-99250500D01*
X92250500Y-99250500D01*
X93248500Y-99250500D01*
X94750500Y-99250500D01*
X95748500Y-99250500D01*
X97250500Y-99250500D01*
X97250500Y-98498500D01*
X95748500Y-98498500D01*
X95748500Y-99250500D01*
X94750500Y-99250500D01*
X94750500Y-98498500D01*
X93248500Y-98498500D01*
X93248500Y-99250500D01*
X92250500Y-99250500D01*
X92250500Y-98498500D01*
X90748500Y-98498500D01*
X90748500Y-99250500D01*
X89750500Y-99250500D01*
X89750500Y-98498500D01*
X88248500Y-98498500D01*
X88248500Y-99250500D01*
X87250500Y-99250500D01*
X87250500Y-98498500D01*
X85748500Y-98498500D01*
X85748500Y-99196300D01*
X76668597Y-99196300D01*
X76676233Y-99179581D01*
X76680195Y-99171667D01*
X76714372Y-99109077D01*
X76718890Y-99101463D01*
X76747854Y-99056396D01*
X76752902Y-99049126D01*
X76881886Y-98876827D01*
X76887439Y-98869936D01*
X76922519Y-98829451D01*
X76928551Y-98822972D01*
X76978972Y-98772551D01*
X76985451Y-98766519D01*
X77025936Y-98731439D01*
X77032827Y-98725886D01*
X77205126Y-98596902D01*
X77212396Y-98591854D01*
X77250500Y-98567365D01*
X77250500Y-98498500D01*
X75748500Y-98498500D01*
X75748500Y-99250500D01*
X74750500Y-99250500D01*
X74750500Y-98498500D01*
X73248500Y-98498500D01*
X73248500Y-98721760D01*
X69750500Y-98721760D01*
X69750500Y-98498500D01*
X68998500Y-98498500D01*
X68998500Y-99250500D01*
X68000500Y-99250500D01*
X68000500Y-98256092D01*
X68001097Y-98243939D01*
X68002015Y-98234614D01*
X68013704Y-98115928D01*
X68018442Y-98092104D01*
X68054010Y-97974855D01*
X68063306Y-97952413D01*
X68121061Y-97844363D01*
X68134556Y-97824165D01*
X68212279Y-97729458D01*
X68229458Y-97712279D01*
X68324165Y-97634556D01*
X68344363Y-97621061D01*
X68452413Y-97563306D01*
X68474855Y-97554010D01*
X68592104Y-97518442D01*
X68615928Y-97513704D01*
X68734614Y-97502015D01*
X68743939Y-97501097D01*
X68756092Y-97500500D01*
X68815892Y-97500500D01*
X101684108Y-97500500D01*
X101743908Y-97500500D01*
X101756061Y-97501097D01*
G37*
%TD.AperFunction*%
%TD*%
M02*
