M48
; DRILL file {KiCad 8.0.7} date 2025-02-08T15:20:00+0530
; FORMAT={-:-/ absolute / inch / decimal}
; #@! TF.CreationDate,2025-02-08T15:20:00+05:30
; #@! TF.GenerationSoftware,Kicad,Pcbnew,8.0.7
; #@! TF.FileFunction,Plated,1,2,PTH
FMAT,2
INCH
; #@! TA.AperFunction,Plated,PTH,ViaDrill
T1C0.0118
; #@! TA.AperFunction,Plated,PTH,ComponentDrill
T2C0.0236
; #@! TA.AperFunction,Plated,PTH,ComponentDrill
T3C0.0276
; #@! TA.AperFunction,Plated,PTH,ComponentDrill
T4C0.0315
; #@! TA.AperFunction,Plated,PTH,ComponentDrill
T5C0.0394
; #@! TA.AperFunction,Plated,PTH,ComponentDrill
T6C0.0433
; #@! TA.AperFunction,Plated,PTH,ComponentDrill
T7C0.0512
%
G90
G05
T1
X2.9429Y-5.6122
X3.305Y-4.262
X3.3071Y-5.3691
X3.4547Y-4.6654
X3.5453Y-5.2382
X3.65Y-4.73
X3.6644Y-5.0305
T2
X3.0709Y-4.2224
X3.0709Y-4.3012
T3
X3.0102Y-5.3917
X3.0102Y-5.5098
X3.2102Y-5.3917
X3.2102Y-5.5098
X3.2169Y-4.3996
X3.4169Y-4.3996
T4
X2.8134Y-4.5059
X2.9134Y-4.5059
X3.0134Y-4.5059
T5
X3.105Y-3.965
X3.1081Y-5.7087
X3.205Y-3.965
X3.2081Y-5.7087
X3.305Y-3.965
X3.3081Y-5.7087
X3.937Y-3.937
X3.937Y-4.037
X3.937Y-5.6398
X3.937Y-5.7398
T6
X2.8423Y-3.9748
X2.8423Y-4.0748
X2.8423Y-4.1748
X2.8445Y-5.5087
X2.8445Y-5.6087
X2.8445Y-5.7087
T7
X3.5198Y-5.612
X3.5202Y-4.058
X3.7198Y-5.612
X3.7202Y-4.058
T5
G00X3.0238Y-4.8756
M15
G01X3.0238Y-4.9544
M16
G05
G00X3.1025Y-5.1
M15
G01X3.1813Y-5.1
M16
G05
G00X3.26Y-4.8756
M15
G01X3.26Y-4.9544
M16
G05
M30
