%TF.GenerationSoftware,KiCad,Pcbnew,8.0.7*%
%TF.CreationDate,2025-02-08T15:19:53+05:30*%
%TF.ProjectId,Bread_Board_Power_supply,42726561-645f-4426-9f61-72645f506f77,rev?*%
%TF.SameCoordinates,Original*%
%TF.FileFunction,Legend,Top*%
%TF.FilePolarity,Positive*%
%FSLAX46Y46*%
G04 Gerber Fmt 4.6, Leading zero omitted, Abs format (unit mm)*
G04 Created by KiCad (PCBNEW 8.0.7) date 2025-02-08 15:19:53*
%MOMM*%
%LPD*%
G01*
G04 APERTURE LIST*
%ADD10C,0.100000*%
%ADD11C,0.150000*%
%ADD12C,0.120000*%
G04 APERTURE END LIST*
D10*
X78887217Y-147096895D02*
X78506265Y-147096895D01*
X78506265Y-147096895D02*
X78468169Y-147477847D01*
X78468169Y-147477847D02*
X78506265Y-147439752D01*
X78506265Y-147439752D02*
X78582455Y-147401657D01*
X78582455Y-147401657D02*
X78772931Y-147401657D01*
X78772931Y-147401657D02*
X78849122Y-147439752D01*
X78849122Y-147439752D02*
X78887217Y-147477847D01*
X78887217Y-147477847D02*
X78925312Y-147554038D01*
X78925312Y-147554038D02*
X78925312Y-147744514D01*
X78925312Y-147744514D02*
X78887217Y-147820704D01*
X78887217Y-147820704D02*
X78849122Y-147858800D01*
X78849122Y-147858800D02*
X78772931Y-147896895D01*
X78772931Y-147896895D02*
X78582455Y-147896895D01*
X78582455Y-147896895D02*
X78506265Y-147858800D01*
X78506265Y-147858800D02*
X78468169Y-147820704D01*
X79191979Y-147363561D02*
X79382455Y-147896895D01*
X79382455Y-147896895D02*
X79572932Y-147363561D01*
X88827693Y-135170038D02*
X88732455Y-135122419D01*
X88732455Y-135122419D02*
X88589598Y-135122419D01*
X88589598Y-135122419D02*
X88446741Y-135170038D01*
X88446741Y-135170038D02*
X88351503Y-135265276D01*
X88351503Y-135265276D02*
X88303884Y-135360514D01*
X88303884Y-135360514D02*
X88256265Y-135550990D01*
X88256265Y-135550990D02*
X88256265Y-135693847D01*
X88256265Y-135693847D02*
X88303884Y-135884323D01*
X88303884Y-135884323D02*
X88351503Y-135979561D01*
X88351503Y-135979561D02*
X88446741Y-136074800D01*
X88446741Y-136074800D02*
X88589598Y-136122419D01*
X88589598Y-136122419D02*
X88684836Y-136122419D01*
X88684836Y-136122419D02*
X88827693Y-136074800D01*
X88827693Y-136074800D02*
X88875312Y-136027180D01*
X88875312Y-136027180D02*
X88875312Y-135693847D01*
X88875312Y-135693847D02*
X88684836Y-135693847D01*
X89303884Y-136122419D02*
X89303884Y-135122419D01*
X89303884Y-135122419D02*
X89875312Y-136122419D01*
X89875312Y-136122419D02*
X89875312Y-135122419D01*
X90351503Y-136122419D02*
X90351503Y-135122419D01*
X90351503Y-135122419D02*
X90589598Y-135122419D01*
X90589598Y-135122419D02*
X90732455Y-135170038D01*
X90732455Y-135170038D02*
X90827693Y-135265276D01*
X90827693Y-135265276D02*
X90875312Y-135360514D01*
X90875312Y-135360514D02*
X90922931Y-135550990D01*
X90922931Y-135550990D02*
X90922931Y-135693847D01*
X90922931Y-135693847D02*
X90875312Y-135884323D01*
X90875312Y-135884323D02*
X90827693Y-135979561D01*
X90827693Y-135979561D02*
X90732455Y-136074800D01*
X90732455Y-136074800D02*
X90589598Y-136122419D01*
X90589598Y-136122419D02*
X90351503Y-136122419D01*
X101884990Y-100172306D02*
X101846895Y-100267544D01*
X101846895Y-100267544D02*
X101846895Y-100410401D01*
X101846895Y-100410401D02*
X101884990Y-100553258D01*
X101884990Y-100553258D02*
X101961180Y-100648496D01*
X101961180Y-100648496D02*
X102037371Y-100696115D01*
X102037371Y-100696115D02*
X102189752Y-100743734D01*
X102189752Y-100743734D02*
X102304038Y-100743734D01*
X102304038Y-100743734D02*
X102456419Y-100696115D01*
X102456419Y-100696115D02*
X102532609Y-100648496D01*
X102532609Y-100648496D02*
X102608800Y-100553258D01*
X102608800Y-100553258D02*
X102646895Y-100410401D01*
X102646895Y-100410401D02*
X102646895Y-100315163D01*
X102646895Y-100315163D02*
X102608800Y-100172306D01*
X102608800Y-100172306D02*
X102570704Y-100124687D01*
X102570704Y-100124687D02*
X102304038Y-100124687D01*
X102304038Y-100124687D02*
X102304038Y-100315163D01*
X102646895Y-99696115D02*
X101846895Y-99696115D01*
X101846895Y-99696115D02*
X102646895Y-99124687D01*
X102646895Y-99124687D02*
X101846895Y-99124687D01*
X102646895Y-98648496D02*
X101846895Y-98648496D01*
X101846895Y-98648496D02*
X101846895Y-98410401D01*
X101846895Y-98410401D02*
X101884990Y-98267544D01*
X101884990Y-98267544D02*
X101961180Y-98172306D01*
X101961180Y-98172306D02*
X102037371Y-98124687D01*
X102037371Y-98124687D02*
X102189752Y-98077068D01*
X102189752Y-98077068D02*
X102304038Y-98077068D01*
X102304038Y-98077068D02*
X102456419Y-98124687D01*
X102456419Y-98124687D02*
X102532609Y-98172306D01*
X102532609Y-98172306D02*
X102608800Y-98267544D01*
X102608800Y-98267544D02*
X102646895Y-98410401D01*
X102646895Y-98410401D02*
X102646895Y-98648496D01*
X83430074Y-147096895D02*
X83925312Y-147096895D01*
X83925312Y-147096895D02*
X83658646Y-147401657D01*
X83658646Y-147401657D02*
X83772931Y-147401657D01*
X83772931Y-147401657D02*
X83849122Y-147439752D01*
X83849122Y-147439752D02*
X83887217Y-147477847D01*
X83887217Y-147477847D02*
X83925312Y-147554038D01*
X83925312Y-147554038D02*
X83925312Y-147744514D01*
X83925312Y-147744514D02*
X83887217Y-147820704D01*
X83887217Y-147820704D02*
X83849122Y-147858800D01*
X83849122Y-147858800D02*
X83772931Y-147896895D01*
X83772931Y-147896895D02*
X83544360Y-147896895D01*
X83544360Y-147896895D02*
X83468169Y-147858800D01*
X83468169Y-147858800D02*
X83430074Y-147820704D01*
X84191979Y-147363561D02*
X84382455Y-147896895D01*
X84382455Y-147896895D02*
X84572932Y-147363561D01*
X78158074Y-97902895D02*
X78653312Y-97902895D01*
X78653312Y-97902895D02*
X78386646Y-98207657D01*
X78386646Y-98207657D02*
X78500931Y-98207657D01*
X78500931Y-98207657D02*
X78577122Y-98245752D01*
X78577122Y-98245752D02*
X78615217Y-98283847D01*
X78615217Y-98283847D02*
X78653312Y-98360038D01*
X78653312Y-98360038D02*
X78653312Y-98550514D01*
X78653312Y-98550514D02*
X78615217Y-98626704D01*
X78615217Y-98626704D02*
X78577122Y-98664800D01*
X78577122Y-98664800D02*
X78500931Y-98702895D01*
X78500931Y-98702895D02*
X78272360Y-98702895D01*
X78272360Y-98702895D02*
X78196169Y-98664800D01*
X78196169Y-98664800D02*
X78158074Y-98626704D01*
X78919979Y-98169561D02*
X79110455Y-98702895D01*
X79110455Y-98702895D02*
X79300932Y-98169561D01*
X70244360Y-116372419D02*
X70434836Y-116372419D01*
X70434836Y-116372419D02*
X70530074Y-116420038D01*
X70530074Y-116420038D02*
X70625312Y-116515276D01*
X70625312Y-116515276D02*
X70672931Y-116705752D01*
X70672931Y-116705752D02*
X70672931Y-117039085D01*
X70672931Y-117039085D02*
X70625312Y-117229561D01*
X70625312Y-117229561D02*
X70530074Y-117324800D01*
X70530074Y-117324800D02*
X70434836Y-117372419D01*
X70434836Y-117372419D02*
X70244360Y-117372419D01*
X70244360Y-117372419D02*
X70149122Y-117324800D01*
X70149122Y-117324800D02*
X70053884Y-117229561D01*
X70053884Y-117229561D02*
X70006265Y-117039085D01*
X70006265Y-117039085D02*
X70006265Y-116705752D01*
X70006265Y-116705752D02*
X70053884Y-116515276D01*
X70053884Y-116515276D02*
X70149122Y-116420038D01*
X70149122Y-116420038D02*
X70244360Y-116372419D01*
X71434836Y-116848609D02*
X71101503Y-116848609D01*
X71101503Y-117372419D02*
X71101503Y-116372419D01*
X71101503Y-116372419D02*
X71577693Y-116372419D01*
X72291979Y-116848609D02*
X71958646Y-116848609D01*
X71958646Y-117372419D02*
X71958646Y-116372419D01*
X71958646Y-116372419D02*
X72434836Y-116372419D01*
X101884990Y-143922306D02*
X101846895Y-144017544D01*
X101846895Y-144017544D02*
X101846895Y-144160401D01*
X101846895Y-144160401D02*
X101884990Y-144303258D01*
X101884990Y-144303258D02*
X101961180Y-144398496D01*
X101961180Y-144398496D02*
X102037371Y-144446115D01*
X102037371Y-144446115D02*
X102189752Y-144493734D01*
X102189752Y-144493734D02*
X102304038Y-144493734D01*
X102304038Y-144493734D02*
X102456419Y-144446115D01*
X102456419Y-144446115D02*
X102532609Y-144398496D01*
X102532609Y-144398496D02*
X102608800Y-144303258D01*
X102608800Y-144303258D02*
X102646895Y-144160401D01*
X102646895Y-144160401D02*
X102646895Y-144065163D01*
X102646895Y-144065163D02*
X102608800Y-143922306D01*
X102608800Y-143922306D02*
X102570704Y-143874687D01*
X102570704Y-143874687D02*
X102304038Y-143874687D01*
X102304038Y-143874687D02*
X102304038Y-144065163D01*
X102646895Y-143446115D02*
X101846895Y-143446115D01*
X101846895Y-143446115D02*
X102646895Y-142874687D01*
X102646895Y-142874687D02*
X101846895Y-142874687D01*
X102646895Y-142398496D02*
X101846895Y-142398496D01*
X101846895Y-142398496D02*
X101846895Y-142160401D01*
X101846895Y-142160401D02*
X101884990Y-142017544D01*
X101884990Y-142017544D02*
X101961180Y-141922306D01*
X101961180Y-141922306D02*
X102037371Y-141874687D01*
X102037371Y-141874687D02*
X102189752Y-141827068D01*
X102189752Y-141827068D02*
X102304038Y-141827068D01*
X102304038Y-141827068D02*
X102456419Y-141874687D01*
X102456419Y-141874687D02*
X102532609Y-141922306D01*
X102532609Y-141922306D02*
X102608800Y-142017544D01*
X102608800Y-142017544D02*
X102646895Y-142160401D01*
X102646895Y-142160401D02*
X102646895Y-142398496D01*
X76244360Y-116372419D02*
X76434836Y-116372419D01*
X76434836Y-116372419D02*
X76530074Y-116420038D01*
X76530074Y-116420038D02*
X76625312Y-116515276D01*
X76625312Y-116515276D02*
X76672931Y-116705752D01*
X76672931Y-116705752D02*
X76672931Y-117039085D01*
X76672931Y-117039085D02*
X76625312Y-117229561D01*
X76625312Y-117229561D02*
X76530074Y-117324800D01*
X76530074Y-117324800D02*
X76434836Y-117372419D01*
X76434836Y-117372419D02*
X76244360Y-117372419D01*
X76244360Y-117372419D02*
X76149122Y-117324800D01*
X76149122Y-117324800D02*
X76053884Y-117229561D01*
X76053884Y-117229561D02*
X76006265Y-117039085D01*
X76006265Y-117039085D02*
X76006265Y-116705752D01*
X76006265Y-116705752D02*
X76053884Y-116515276D01*
X76053884Y-116515276D02*
X76149122Y-116420038D01*
X76149122Y-116420038D02*
X76244360Y-116372419D01*
X77101503Y-117372419D02*
X77101503Y-116372419D01*
X77101503Y-116372419D02*
X77672931Y-117372419D01*
X77672931Y-117372419D02*
X77672931Y-116372419D01*
X94002693Y-109420038D02*
X93907455Y-109372419D01*
X93907455Y-109372419D02*
X93764598Y-109372419D01*
X93764598Y-109372419D02*
X93621741Y-109420038D01*
X93621741Y-109420038D02*
X93526503Y-109515276D01*
X93526503Y-109515276D02*
X93478884Y-109610514D01*
X93478884Y-109610514D02*
X93431265Y-109800990D01*
X93431265Y-109800990D02*
X93431265Y-109943847D01*
X93431265Y-109943847D02*
X93478884Y-110134323D01*
X93478884Y-110134323D02*
X93526503Y-110229561D01*
X93526503Y-110229561D02*
X93621741Y-110324800D01*
X93621741Y-110324800D02*
X93764598Y-110372419D01*
X93764598Y-110372419D02*
X93859836Y-110372419D01*
X93859836Y-110372419D02*
X94002693Y-110324800D01*
X94002693Y-110324800D02*
X94050312Y-110277180D01*
X94050312Y-110277180D02*
X94050312Y-109943847D01*
X94050312Y-109943847D02*
X93859836Y-109943847D01*
X94478884Y-110372419D02*
X94478884Y-109372419D01*
X94478884Y-109372419D02*
X95050312Y-110372419D01*
X95050312Y-110372419D02*
X95050312Y-109372419D01*
X95526503Y-110372419D02*
X95526503Y-109372419D01*
X95526503Y-109372419D02*
X95764598Y-109372419D01*
X95764598Y-109372419D02*
X95907455Y-109420038D01*
X95907455Y-109420038D02*
X96002693Y-109515276D01*
X96002693Y-109515276D02*
X96050312Y-109610514D01*
X96050312Y-109610514D02*
X96097931Y-109800990D01*
X96097931Y-109800990D02*
X96097931Y-109943847D01*
X96097931Y-109943847D02*
X96050312Y-110134323D01*
X96050312Y-110134323D02*
X96002693Y-110229561D01*
X96002693Y-110229561D02*
X95907455Y-110324800D01*
X95907455Y-110324800D02*
X95764598Y-110372419D01*
X95764598Y-110372419D02*
X95526503Y-110372419D01*
X83822217Y-97852095D02*
X83441265Y-97852095D01*
X83441265Y-97852095D02*
X83403169Y-98233047D01*
X83403169Y-98233047D02*
X83441265Y-98194952D01*
X83441265Y-98194952D02*
X83517455Y-98156857D01*
X83517455Y-98156857D02*
X83707931Y-98156857D01*
X83707931Y-98156857D02*
X83784122Y-98194952D01*
X83784122Y-98194952D02*
X83822217Y-98233047D01*
X83822217Y-98233047D02*
X83860312Y-98309238D01*
X83860312Y-98309238D02*
X83860312Y-98499714D01*
X83860312Y-98499714D02*
X83822217Y-98575904D01*
X83822217Y-98575904D02*
X83784122Y-98614000D01*
X83784122Y-98614000D02*
X83707931Y-98652095D01*
X83707931Y-98652095D02*
X83517455Y-98652095D01*
X83517455Y-98652095D02*
X83441265Y-98614000D01*
X83441265Y-98614000D02*
X83403169Y-98575904D01*
X84126979Y-98118761D02*
X84317455Y-98652095D01*
X84317455Y-98652095D02*
X84507932Y-98118761D01*
D11*
X99766666Y-140562295D02*
X99766666Y-141133723D01*
X99766666Y-141133723D02*
X99733333Y-141248009D01*
X99733333Y-141248009D02*
X99666666Y-141324200D01*
X99666666Y-141324200D02*
X99566666Y-141362295D01*
X99566666Y-141362295D02*
X99500000Y-141362295D01*
X100399999Y-140562295D02*
X100266666Y-140562295D01*
X100266666Y-140562295D02*
X100199999Y-140600390D01*
X100199999Y-140600390D02*
X100166666Y-140638485D01*
X100166666Y-140638485D02*
X100099999Y-140752771D01*
X100099999Y-140752771D02*
X100066666Y-140905152D01*
X100066666Y-140905152D02*
X100066666Y-141209914D01*
X100066666Y-141209914D02*
X100099999Y-141286104D01*
X100099999Y-141286104D02*
X100133333Y-141324200D01*
X100133333Y-141324200D02*
X100199999Y-141362295D01*
X100199999Y-141362295D02*
X100333333Y-141362295D01*
X100333333Y-141362295D02*
X100399999Y-141324200D01*
X100399999Y-141324200D02*
X100433333Y-141286104D01*
X100433333Y-141286104D02*
X100466666Y-141209914D01*
X100466666Y-141209914D02*
X100466666Y-141019438D01*
X100466666Y-141019438D02*
X100433333Y-140943247D01*
X100433333Y-140943247D02*
X100399999Y-140905152D01*
X100399999Y-140905152D02*
X100333333Y-140867057D01*
X100333333Y-140867057D02*
X100199999Y-140867057D01*
X100199999Y-140867057D02*
X100133333Y-140905152D01*
X100133333Y-140905152D02*
X100099999Y-140943247D01*
X100099999Y-140943247D02*
X100066666Y-141019438D01*
X76266666Y-144562295D02*
X76266666Y-145133723D01*
X76266666Y-145133723D02*
X76233333Y-145248009D01*
X76233333Y-145248009D02*
X76166666Y-145324200D01*
X76166666Y-145324200D02*
X76066666Y-145362295D01*
X76066666Y-145362295D02*
X76000000Y-145362295D01*
X76533333Y-144562295D02*
X76999999Y-144562295D01*
X76999999Y-144562295D02*
X76699999Y-145362295D01*
X82133333Y-113862295D02*
X81900000Y-113481342D01*
X81733333Y-113862295D02*
X81733333Y-113062295D01*
X81733333Y-113062295D02*
X82000000Y-113062295D01*
X82000000Y-113062295D02*
X82066667Y-113100390D01*
X82066667Y-113100390D02*
X82100000Y-113138485D01*
X82100000Y-113138485D02*
X82133333Y-113214676D01*
X82133333Y-113214676D02*
X82133333Y-113328961D01*
X82133333Y-113328961D02*
X82100000Y-113405152D01*
X82100000Y-113405152D02*
X82066667Y-113443247D01*
X82066667Y-113443247D02*
X82000000Y-113481342D01*
X82000000Y-113481342D02*
X81733333Y-113481342D01*
X82800000Y-113862295D02*
X82400000Y-113862295D01*
X82600000Y-113862295D02*
X82600000Y-113062295D01*
X82600000Y-113062295D02*
X82533333Y-113176580D01*
X82533333Y-113176580D02*
X82466667Y-113252771D01*
X82466667Y-113252771D02*
X82400000Y-113290866D01*
X85600000Y-113062295D02*
X86033333Y-113062295D01*
X86033333Y-113062295D02*
X85800000Y-113367057D01*
X85800000Y-113367057D02*
X85900000Y-113367057D01*
X85900000Y-113367057D02*
X85966666Y-113405152D01*
X85966666Y-113405152D02*
X86000000Y-113443247D01*
X86000000Y-113443247D02*
X86033333Y-113519438D01*
X86033333Y-113519438D02*
X86033333Y-113709914D01*
X86033333Y-113709914D02*
X86000000Y-113786104D01*
X86000000Y-113786104D02*
X85966666Y-113824200D01*
X85966666Y-113824200D02*
X85900000Y-113862295D01*
X85900000Y-113862295D02*
X85700000Y-113862295D01*
X85700000Y-113862295D02*
X85633333Y-113824200D01*
X85633333Y-113824200D02*
X85600000Y-113786104D01*
X86266667Y-113062295D02*
X86700000Y-113062295D01*
X86700000Y-113062295D02*
X86466667Y-113367057D01*
X86466667Y-113367057D02*
X86566667Y-113367057D01*
X86566667Y-113367057D02*
X86633333Y-113405152D01*
X86633333Y-113405152D02*
X86666667Y-113443247D01*
X86666667Y-113443247D02*
X86700000Y-113519438D01*
X86700000Y-113519438D02*
X86700000Y-113709914D01*
X86700000Y-113709914D02*
X86666667Y-113786104D01*
X86666667Y-113786104D02*
X86633333Y-113824200D01*
X86633333Y-113824200D02*
X86566667Y-113862295D01*
X86566667Y-113862295D02*
X86366667Y-113862295D01*
X86366667Y-113862295D02*
X86300000Y-113824200D01*
X86300000Y-113824200D02*
X86266667Y-113786104D01*
X87133334Y-113062295D02*
X87200000Y-113062295D01*
X87200000Y-113062295D02*
X87266667Y-113100390D01*
X87266667Y-113100390D02*
X87300000Y-113138485D01*
X87300000Y-113138485D02*
X87333334Y-113214676D01*
X87333334Y-113214676D02*
X87366667Y-113367057D01*
X87366667Y-113367057D02*
X87366667Y-113557533D01*
X87366667Y-113557533D02*
X87333334Y-113709914D01*
X87333334Y-113709914D02*
X87300000Y-113786104D01*
X87300000Y-113786104D02*
X87266667Y-113824200D01*
X87266667Y-113824200D02*
X87200000Y-113862295D01*
X87200000Y-113862295D02*
X87133334Y-113862295D01*
X87133334Y-113862295D02*
X87066667Y-113824200D01*
X87066667Y-113824200D02*
X87033334Y-113786104D01*
X87033334Y-113786104D02*
X87000000Y-113709914D01*
X87000000Y-113709914D02*
X86966667Y-113557533D01*
X86966667Y-113557533D02*
X86966667Y-113367057D01*
X86966667Y-113367057D02*
X87000000Y-113214676D01*
X87000000Y-113214676D02*
X87033334Y-113138485D01*
X87033334Y-113138485D02*
X87066667Y-113100390D01*
X87066667Y-113100390D02*
X87133334Y-113062295D01*
X76383333Y-135612295D02*
X76150000Y-135231342D01*
X75983333Y-135612295D02*
X75983333Y-134812295D01*
X75983333Y-134812295D02*
X76250000Y-134812295D01*
X76250000Y-134812295D02*
X76316667Y-134850390D01*
X76316667Y-134850390D02*
X76350000Y-134888485D01*
X76350000Y-134888485D02*
X76383333Y-134964676D01*
X76383333Y-134964676D02*
X76383333Y-135078961D01*
X76383333Y-135078961D02*
X76350000Y-135155152D01*
X76350000Y-135155152D02*
X76316667Y-135193247D01*
X76316667Y-135193247D02*
X76250000Y-135231342D01*
X76250000Y-135231342D02*
X75983333Y-135231342D01*
X76616667Y-134812295D02*
X77050000Y-134812295D01*
X77050000Y-134812295D02*
X76816667Y-135117057D01*
X76816667Y-135117057D02*
X76916667Y-135117057D01*
X76916667Y-135117057D02*
X76983333Y-135155152D01*
X76983333Y-135155152D02*
X77016667Y-135193247D01*
X77016667Y-135193247D02*
X77050000Y-135269438D01*
X77050000Y-135269438D02*
X77050000Y-135459914D01*
X77050000Y-135459914D02*
X77016667Y-135536104D01*
X77016667Y-135536104D02*
X76983333Y-135574200D01*
X76983333Y-135574200D02*
X76916667Y-135612295D01*
X76916667Y-135612295D02*
X76716667Y-135612295D01*
X76716667Y-135612295D02*
X76650000Y-135574200D01*
X76650000Y-135574200D02*
X76616667Y-135536104D01*
X80500000Y-134812295D02*
X80166666Y-134812295D01*
X80166666Y-134812295D02*
X80133333Y-135193247D01*
X80133333Y-135193247D02*
X80166666Y-135155152D01*
X80166666Y-135155152D02*
X80233333Y-135117057D01*
X80233333Y-135117057D02*
X80400000Y-135117057D01*
X80400000Y-135117057D02*
X80466666Y-135155152D01*
X80466666Y-135155152D02*
X80500000Y-135193247D01*
X80500000Y-135193247D02*
X80533333Y-135269438D01*
X80533333Y-135269438D02*
X80533333Y-135459914D01*
X80533333Y-135459914D02*
X80500000Y-135536104D01*
X80500000Y-135536104D02*
X80466666Y-135574200D01*
X80466666Y-135574200D02*
X80400000Y-135612295D01*
X80400000Y-135612295D02*
X80233333Y-135612295D01*
X80233333Y-135612295D02*
X80166666Y-135574200D01*
X80166666Y-135574200D02*
X80133333Y-135536104D01*
X81133333Y-134812295D02*
X81000000Y-134812295D01*
X81000000Y-134812295D02*
X80933333Y-134850390D01*
X80933333Y-134850390D02*
X80900000Y-134888485D01*
X80900000Y-134888485D02*
X80833333Y-135002771D01*
X80833333Y-135002771D02*
X80800000Y-135155152D01*
X80800000Y-135155152D02*
X80800000Y-135459914D01*
X80800000Y-135459914D02*
X80833333Y-135536104D01*
X80833333Y-135536104D02*
X80866667Y-135574200D01*
X80866667Y-135574200D02*
X80933333Y-135612295D01*
X80933333Y-135612295D02*
X81066667Y-135612295D01*
X81066667Y-135612295D02*
X81133333Y-135574200D01*
X81133333Y-135574200D02*
X81166667Y-135536104D01*
X81166667Y-135536104D02*
X81200000Y-135459914D01*
X81200000Y-135459914D02*
X81200000Y-135269438D01*
X81200000Y-135269438D02*
X81166667Y-135193247D01*
X81166667Y-135193247D02*
X81133333Y-135155152D01*
X81133333Y-135155152D02*
X81066667Y-135117057D01*
X81066667Y-135117057D02*
X80933333Y-135117057D01*
X80933333Y-135117057D02*
X80866667Y-135155152D01*
X80866667Y-135155152D02*
X80833333Y-135193247D01*
X80833333Y-135193247D02*
X80800000Y-135269438D01*
X81633334Y-134812295D02*
X81700000Y-134812295D01*
X81700000Y-134812295D02*
X81766667Y-134850390D01*
X81766667Y-134850390D02*
X81800000Y-134888485D01*
X81800000Y-134888485D02*
X81833334Y-134964676D01*
X81833334Y-134964676D02*
X81866667Y-135117057D01*
X81866667Y-135117057D02*
X81866667Y-135307533D01*
X81866667Y-135307533D02*
X81833334Y-135459914D01*
X81833334Y-135459914D02*
X81800000Y-135536104D01*
X81800000Y-135536104D02*
X81766667Y-135574200D01*
X81766667Y-135574200D02*
X81700000Y-135612295D01*
X81700000Y-135612295D02*
X81633334Y-135612295D01*
X81633334Y-135612295D02*
X81566667Y-135574200D01*
X81566667Y-135574200D02*
X81533334Y-135536104D01*
X81533334Y-135536104D02*
X81500000Y-135459914D01*
X81500000Y-135459914D02*
X81466667Y-135307533D01*
X81466667Y-135307533D02*
X81466667Y-135117057D01*
X81466667Y-135117057D02*
X81500000Y-134964676D01*
X81500000Y-134964676D02*
X81533334Y-134888485D01*
X81533334Y-134888485D02*
X81566667Y-134850390D01*
X81566667Y-134850390D02*
X81633334Y-134812295D01*
X77516666Y-102812295D02*
X77516666Y-103383723D01*
X77516666Y-103383723D02*
X77483333Y-103498009D01*
X77483333Y-103498009D02*
X77416666Y-103574200D01*
X77416666Y-103574200D02*
X77316666Y-103612295D01*
X77316666Y-103612295D02*
X77250000Y-103612295D01*
X77816666Y-102888485D02*
X77849999Y-102850390D01*
X77849999Y-102850390D02*
X77916666Y-102812295D01*
X77916666Y-102812295D02*
X78083333Y-102812295D01*
X78083333Y-102812295D02*
X78149999Y-102850390D01*
X78149999Y-102850390D02*
X78183333Y-102888485D01*
X78183333Y-102888485D02*
X78216666Y-102964676D01*
X78216666Y-102964676D02*
X78216666Y-103040866D01*
X78216666Y-103040866D02*
X78183333Y-103155152D01*
X78183333Y-103155152D02*
X77783333Y-103612295D01*
X77783333Y-103612295D02*
X78216666Y-103612295D01*
X94266666Y-135812295D02*
X94266666Y-136383723D01*
X94266666Y-136383723D02*
X94233333Y-136498009D01*
X94233333Y-136498009D02*
X94166666Y-136574200D01*
X94166666Y-136574200D02*
X94066666Y-136612295D01*
X94066666Y-136612295D02*
X94000000Y-136612295D01*
X94933333Y-135812295D02*
X94599999Y-135812295D01*
X94599999Y-135812295D02*
X94566666Y-136193247D01*
X94566666Y-136193247D02*
X94599999Y-136155152D01*
X94599999Y-136155152D02*
X94666666Y-136117057D01*
X94666666Y-136117057D02*
X94833333Y-136117057D01*
X94833333Y-136117057D02*
X94899999Y-136155152D01*
X94899999Y-136155152D02*
X94933333Y-136193247D01*
X94933333Y-136193247D02*
X94966666Y-136269438D01*
X94966666Y-136269438D02*
X94966666Y-136459914D01*
X94966666Y-136459914D02*
X94933333Y-136536104D01*
X94933333Y-136536104D02*
X94899999Y-136574200D01*
X94899999Y-136574200D02*
X94833333Y-136612295D01*
X94833333Y-136612295D02*
X94666666Y-136612295D01*
X94666666Y-136612295D02*
X94599999Y-136574200D01*
X94599999Y-136574200D02*
X94566666Y-136536104D01*
X86036104Y-139616666D02*
X86074200Y-139649999D01*
X86074200Y-139649999D02*
X86112295Y-139749999D01*
X86112295Y-139749999D02*
X86112295Y-139816666D01*
X86112295Y-139816666D02*
X86074200Y-139916666D01*
X86074200Y-139916666D02*
X85998009Y-139983333D01*
X85998009Y-139983333D02*
X85921819Y-140016666D01*
X85921819Y-140016666D02*
X85769438Y-140049999D01*
X85769438Y-140049999D02*
X85655152Y-140049999D01*
X85655152Y-140049999D02*
X85502771Y-140016666D01*
X85502771Y-140016666D02*
X85426580Y-139983333D01*
X85426580Y-139983333D02*
X85350390Y-139916666D01*
X85350390Y-139916666D02*
X85312295Y-139816666D01*
X85312295Y-139816666D02*
X85312295Y-139749999D01*
X85312295Y-139749999D02*
X85350390Y-139649999D01*
X85350390Y-139649999D02*
X85388485Y-139616666D01*
X85312295Y-139383333D02*
X85312295Y-138949999D01*
X85312295Y-138949999D02*
X85617057Y-139183333D01*
X85617057Y-139183333D02*
X85617057Y-139083333D01*
X85617057Y-139083333D02*
X85655152Y-139016666D01*
X85655152Y-139016666D02*
X85693247Y-138983333D01*
X85693247Y-138983333D02*
X85769438Y-138949999D01*
X85769438Y-138949999D02*
X85959914Y-138949999D01*
X85959914Y-138949999D02*
X86036104Y-138983333D01*
X86036104Y-138983333D02*
X86074200Y-139016666D01*
X86074200Y-139016666D02*
X86112295Y-139083333D01*
X86112295Y-139083333D02*
X86112295Y-139283333D01*
X86112295Y-139283333D02*
X86074200Y-139349999D01*
X86074200Y-139349999D02*
X86036104Y-139383333D01*
X86112295Y-137666666D02*
X86112295Y-138066666D01*
X86112295Y-137866666D02*
X85312295Y-137866666D01*
X85312295Y-137866666D02*
X85426580Y-137933333D01*
X85426580Y-137933333D02*
X85502771Y-138000000D01*
X85502771Y-138000000D02*
X85540866Y-138066666D01*
X85578961Y-137066666D02*
X86112295Y-137066666D01*
X85578961Y-137366666D02*
X85998009Y-137366666D01*
X85998009Y-137366666D02*
X86074200Y-137333333D01*
X86074200Y-137333333D02*
X86112295Y-137266666D01*
X86112295Y-137266666D02*
X86112295Y-137166666D01*
X86112295Y-137166666D02*
X86074200Y-137099999D01*
X86074200Y-137099999D02*
X86036104Y-137066666D01*
X85693247Y-136500000D02*
X85693247Y-136733333D01*
X86112295Y-136733333D02*
X85312295Y-136733333D01*
X85312295Y-136733333D02*
X85312295Y-136400000D01*
X82286104Y-107366666D02*
X82324200Y-107399999D01*
X82324200Y-107399999D02*
X82362295Y-107499999D01*
X82362295Y-107499999D02*
X82362295Y-107566666D01*
X82362295Y-107566666D02*
X82324200Y-107666666D01*
X82324200Y-107666666D02*
X82248009Y-107733333D01*
X82248009Y-107733333D02*
X82171819Y-107766666D01*
X82171819Y-107766666D02*
X82019438Y-107799999D01*
X82019438Y-107799999D02*
X81905152Y-107799999D01*
X81905152Y-107799999D02*
X81752771Y-107766666D01*
X81752771Y-107766666D02*
X81676580Y-107733333D01*
X81676580Y-107733333D02*
X81600390Y-107666666D01*
X81600390Y-107666666D02*
X81562295Y-107566666D01*
X81562295Y-107566666D02*
X81562295Y-107499999D01*
X81562295Y-107499999D02*
X81600390Y-107399999D01*
X81600390Y-107399999D02*
X81638485Y-107366666D01*
X81638485Y-107099999D02*
X81600390Y-107066666D01*
X81600390Y-107066666D02*
X81562295Y-106999999D01*
X81562295Y-106999999D02*
X81562295Y-106833333D01*
X81562295Y-106833333D02*
X81600390Y-106766666D01*
X81600390Y-106766666D02*
X81638485Y-106733333D01*
X81638485Y-106733333D02*
X81714676Y-106699999D01*
X81714676Y-106699999D02*
X81790866Y-106699999D01*
X81790866Y-106699999D02*
X81905152Y-106733333D01*
X81905152Y-106733333D02*
X82362295Y-107133333D01*
X82362295Y-107133333D02*
X82362295Y-106699999D01*
X81562295Y-105400000D02*
X81562295Y-105333333D01*
X81562295Y-105333333D02*
X81600390Y-105266666D01*
X81600390Y-105266666D02*
X81638485Y-105233333D01*
X81638485Y-105233333D02*
X81714676Y-105200000D01*
X81714676Y-105200000D02*
X81867057Y-105166666D01*
X81867057Y-105166666D02*
X82057533Y-105166666D01*
X82057533Y-105166666D02*
X82209914Y-105200000D01*
X82209914Y-105200000D02*
X82286104Y-105233333D01*
X82286104Y-105233333D02*
X82324200Y-105266666D01*
X82324200Y-105266666D02*
X82362295Y-105333333D01*
X82362295Y-105333333D02*
X82362295Y-105400000D01*
X82362295Y-105400000D02*
X82324200Y-105466666D01*
X82324200Y-105466666D02*
X82286104Y-105500000D01*
X82286104Y-105500000D02*
X82209914Y-105533333D01*
X82209914Y-105533333D02*
X82057533Y-105566666D01*
X82057533Y-105566666D02*
X81867057Y-105566666D01*
X81867057Y-105566666D02*
X81714676Y-105533333D01*
X81714676Y-105533333D02*
X81638485Y-105500000D01*
X81638485Y-105500000D02*
X81600390Y-105466666D01*
X81600390Y-105466666D02*
X81562295Y-105400000D01*
X82286104Y-104866666D02*
X82324200Y-104833333D01*
X82324200Y-104833333D02*
X82362295Y-104866666D01*
X82362295Y-104866666D02*
X82324200Y-104899999D01*
X82324200Y-104899999D02*
X82286104Y-104866666D01*
X82286104Y-104866666D02*
X82362295Y-104866666D01*
X82362295Y-104166666D02*
X82362295Y-104566666D01*
X82362295Y-104366666D02*
X81562295Y-104366666D01*
X81562295Y-104366666D02*
X81676580Y-104433333D01*
X81676580Y-104433333D02*
X81752771Y-104500000D01*
X81752771Y-104500000D02*
X81790866Y-104566666D01*
X81828961Y-103566666D02*
X82362295Y-103566666D01*
X81828961Y-103866666D02*
X82248009Y-103866666D01*
X82248009Y-103866666D02*
X82324200Y-103833333D01*
X82324200Y-103833333D02*
X82362295Y-103766666D01*
X82362295Y-103766666D02*
X82362295Y-103666666D01*
X82362295Y-103666666D02*
X82324200Y-103599999D01*
X82324200Y-103599999D02*
X82286104Y-103566666D01*
X81943247Y-103000000D02*
X81943247Y-103233333D01*
X82362295Y-103233333D02*
X81562295Y-103233333D01*
X81562295Y-103233333D02*
X81562295Y-102900000D01*
X95412295Y-125466666D02*
X94612295Y-125466666D01*
X94612295Y-125466666D02*
X94612295Y-125299999D01*
X94612295Y-125299999D02*
X94650390Y-125199999D01*
X94650390Y-125199999D02*
X94726580Y-125133333D01*
X94726580Y-125133333D02*
X94802771Y-125099999D01*
X94802771Y-125099999D02*
X94955152Y-125066666D01*
X94955152Y-125066666D02*
X95069438Y-125066666D01*
X95069438Y-125066666D02*
X95221819Y-125099999D01*
X95221819Y-125099999D02*
X95298009Y-125133333D01*
X95298009Y-125133333D02*
X95374200Y-125199999D01*
X95374200Y-125199999D02*
X95412295Y-125299999D01*
X95412295Y-125299999D02*
X95412295Y-125466666D01*
X95412295Y-124399999D02*
X95412295Y-124799999D01*
X95412295Y-124599999D02*
X94612295Y-124599999D01*
X94612295Y-124599999D02*
X94726580Y-124666666D01*
X94726580Y-124666666D02*
X94802771Y-124733333D01*
X94802771Y-124733333D02*
X94840866Y-124799999D01*
X91262295Y-125400000D02*
X91262295Y-125733333D01*
X91262295Y-125733333D02*
X90462295Y-125733333D01*
X90843247Y-125166666D02*
X90843247Y-124933333D01*
X91262295Y-124833333D02*
X91262295Y-125166666D01*
X91262295Y-125166666D02*
X90462295Y-125166666D01*
X90462295Y-125166666D02*
X90462295Y-124833333D01*
X91262295Y-124533333D02*
X90462295Y-124533333D01*
X90462295Y-124533333D02*
X90462295Y-124366666D01*
X90462295Y-124366666D02*
X90500390Y-124266666D01*
X90500390Y-124266666D02*
X90576580Y-124200000D01*
X90576580Y-124200000D02*
X90652771Y-124166666D01*
X90652771Y-124166666D02*
X90805152Y-124133333D01*
X90805152Y-124133333D02*
X90919438Y-124133333D01*
X90919438Y-124133333D02*
X91071819Y-124166666D01*
X91071819Y-124166666D02*
X91148009Y-124200000D01*
X91148009Y-124200000D02*
X91224200Y-124266666D01*
X91224200Y-124266666D02*
X91262295Y-124366666D01*
X91262295Y-124366666D02*
X91262295Y-124533333D01*
X76283333Y-142062295D02*
X76050000Y-141681342D01*
X75883333Y-142062295D02*
X75883333Y-141262295D01*
X75883333Y-141262295D02*
X76150000Y-141262295D01*
X76150000Y-141262295D02*
X76216667Y-141300390D01*
X76216667Y-141300390D02*
X76250000Y-141338485D01*
X76250000Y-141338485D02*
X76283333Y-141414676D01*
X76283333Y-141414676D02*
X76283333Y-141528961D01*
X76283333Y-141528961D02*
X76250000Y-141605152D01*
X76250000Y-141605152D02*
X76216667Y-141643247D01*
X76216667Y-141643247D02*
X76150000Y-141681342D01*
X76150000Y-141681342D02*
X75883333Y-141681342D01*
X76550000Y-141338485D02*
X76583333Y-141300390D01*
X76583333Y-141300390D02*
X76650000Y-141262295D01*
X76650000Y-141262295D02*
X76816667Y-141262295D01*
X76816667Y-141262295D02*
X76883333Y-141300390D01*
X76883333Y-141300390D02*
X76916667Y-141338485D01*
X76916667Y-141338485D02*
X76950000Y-141414676D01*
X76950000Y-141414676D02*
X76950000Y-141490866D01*
X76950000Y-141490866D02*
X76916667Y-141605152D01*
X76916667Y-141605152D02*
X76516667Y-142062295D01*
X76516667Y-142062295D02*
X76950000Y-142062295D01*
X80100000Y-141312295D02*
X80533333Y-141312295D01*
X80533333Y-141312295D02*
X80300000Y-141617057D01*
X80300000Y-141617057D02*
X80400000Y-141617057D01*
X80400000Y-141617057D02*
X80466666Y-141655152D01*
X80466666Y-141655152D02*
X80500000Y-141693247D01*
X80500000Y-141693247D02*
X80533333Y-141769438D01*
X80533333Y-141769438D02*
X80533333Y-141959914D01*
X80533333Y-141959914D02*
X80500000Y-142036104D01*
X80500000Y-142036104D02*
X80466666Y-142074200D01*
X80466666Y-142074200D02*
X80400000Y-142112295D01*
X80400000Y-142112295D02*
X80200000Y-142112295D01*
X80200000Y-142112295D02*
X80133333Y-142074200D01*
X80133333Y-142074200D02*
X80100000Y-142036104D01*
X80766667Y-141312295D02*
X81200000Y-141312295D01*
X81200000Y-141312295D02*
X80966667Y-141617057D01*
X80966667Y-141617057D02*
X81066667Y-141617057D01*
X81066667Y-141617057D02*
X81133333Y-141655152D01*
X81133333Y-141655152D02*
X81166667Y-141693247D01*
X81166667Y-141693247D02*
X81200000Y-141769438D01*
X81200000Y-141769438D02*
X81200000Y-141959914D01*
X81200000Y-141959914D02*
X81166667Y-142036104D01*
X81166667Y-142036104D02*
X81133333Y-142074200D01*
X81133333Y-142074200D02*
X81066667Y-142112295D01*
X81066667Y-142112295D02*
X80866667Y-142112295D01*
X80866667Y-142112295D02*
X80800000Y-142074200D01*
X80800000Y-142074200D02*
X80766667Y-142036104D01*
X81633334Y-141312295D02*
X81700000Y-141312295D01*
X81700000Y-141312295D02*
X81766667Y-141350390D01*
X81766667Y-141350390D02*
X81800000Y-141388485D01*
X81800000Y-141388485D02*
X81833334Y-141464676D01*
X81833334Y-141464676D02*
X81866667Y-141617057D01*
X81866667Y-141617057D02*
X81866667Y-141807533D01*
X81866667Y-141807533D02*
X81833334Y-141959914D01*
X81833334Y-141959914D02*
X81800000Y-142036104D01*
X81800000Y-142036104D02*
X81766667Y-142074200D01*
X81766667Y-142074200D02*
X81700000Y-142112295D01*
X81700000Y-142112295D02*
X81633334Y-142112295D01*
X81633334Y-142112295D02*
X81566667Y-142074200D01*
X81566667Y-142074200D02*
X81533334Y-142036104D01*
X81533334Y-142036104D02*
X81500000Y-141959914D01*
X81500000Y-141959914D02*
X81466667Y-141807533D01*
X81466667Y-141807533D02*
X81466667Y-141617057D01*
X81466667Y-141617057D02*
X81500000Y-141464676D01*
X81500000Y-141464676D02*
X81533334Y-141388485D01*
X81533334Y-141388485D02*
X81566667Y-141350390D01*
X81566667Y-141350390D02*
X81633334Y-141312295D01*
X68812295Y-130733333D02*
X69383723Y-130733333D01*
X69383723Y-130733333D02*
X69498009Y-130766666D01*
X69498009Y-130766666D02*
X69574200Y-130833333D01*
X69574200Y-130833333D02*
X69612295Y-130933333D01*
X69612295Y-130933333D02*
X69612295Y-131000000D01*
X69612295Y-130033333D02*
X69612295Y-130433333D01*
X69612295Y-130233333D02*
X68812295Y-130233333D01*
X68812295Y-130233333D02*
X68926580Y-130300000D01*
X68926580Y-130300000D02*
X69002771Y-130366667D01*
X69002771Y-130366667D02*
X69040866Y-130433333D01*
X85443247Y-129816665D02*
X85481342Y-129716665D01*
X85481342Y-129716665D02*
X85519438Y-129683331D01*
X85519438Y-129683331D02*
X85595628Y-129649998D01*
X85595628Y-129649998D02*
X85709914Y-129649998D01*
X85709914Y-129649998D02*
X85786104Y-129683331D01*
X85786104Y-129683331D02*
X85824200Y-129716665D01*
X85824200Y-129716665D02*
X85862295Y-129783331D01*
X85862295Y-129783331D02*
X85862295Y-130049998D01*
X85862295Y-130049998D02*
X85062295Y-130049998D01*
X85062295Y-130049998D02*
X85062295Y-129816665D01*
X85062295Y-129816665D02*
X85100390Y-129749998D01*
X85100390Y-129749998D02*
X85138485Y-129716665D01*
X85138485Y-129716665D02*
X85214676Y-129683331D01*
X85214676Y-129683331D02*
X85290866Y-129683331D01*
X85290866Y-129683331D02*
X85367057Y-129716665D01*
X85367057Y-129716665D02*
X85405152Y-129749998D01*
X85405152Y-129749998D02*
X85443247Y-129816665D01*
X85443247Y-129816665D02*
X85443247Y-130049998D01*
X85862295Y-129049998D02*
X85443247Y-129049998D01*
X85443247Y-129049998D02*
X85367057Y-129083331D01*
X85367057Y-129083331D02*
X85328961Y-129149998D01*
X85328961Y-129149998D02*
X85328961Y-129283331D01*
X85328961Y-129283331D02*
X85367057Y-129349998D01*
X85824200Y-129049998D02*
X85862295Y-129116665D01*
X85862295Y-129116665D02*
X85862295Y-129283331D01*
X85862295Y-129283331D02*
X85824200Y-129349998D01*
X85824200Y-129349998D02*
X85748009Y-129383331D01*
X85748009Y-129383331D02*
X85671819Y-129383331D01*
X85671819Y-129383331D02*
X85595628Y-129349998D01*
X85595628Y-129349998D02*
X85557533Y-129283331D01*
X85557533Y-129283331D02*
X85557533Y-129116665D01*
X85557533Y-129116665D02*
X85519438Y-129049998D01*
X85862295Y-128716665D02*
X85328961Y-128716665D01*
X85481342Y-128716665D02*
X85405152Y-128683332D01*
X85405152Y-128683332D02*
X85367057Y-128649998D01*
X85367057Y-128649998D02*
X85328961Y-128583332D01*
X85328961Y-128583332D02*
X85328961Y-128516665D01*
X85862295Y-128283332D02*
X85328961Y-128283332D01*
X85481342Y-128283332D02*
X85405152Y-128249999D01*
X85405152Y-128249999D02*
X85367057Y-128216665D01*
X85367057Y-128216665D02*
X85328961Y-128149999D01*
X85328961Y-128149999D02*
X85328961Y-128083332D01*
X85824200Y-127583332D02*
X85862295Y-127649999D01*
X85862295Y-127649999D02*
X85862295Y-127783332D01*
X85862295Y-127783332D02*
X85824200Y-127849999D01*
X85824200Y-127849999D02*
X85748009Y-127883332D01*
X85748009Y-127883332D02*
X85443247Y-127883332D01*
X85443247Y-127883332D02*
X85367057Y-127849999D01*
X85367057Y-127849999D02*
X85328961Y-127783332D01*
X85328961Y-127783332D02*
X85328961Y-127649999D01*
X85328961Y-127649999D02*
X85367057Y-127583332D01*
X85367057Y-127583332D02*
X85443247Y-127549999D01*
X85443247Y-127549999D02*
X85519438Y-127549999D01*
X85519438Y-127549999D02*
X85595628Y-127883332D01*
X85862295Y-127149999D02*
X85824200Y-127216666D01*
X85824200Y-127216666D02*
X85748009Y-127249999D01*
X85748009Y-127249999D02*
X85062295Y-127249999D01*
X85938485Y-127049999D02*
X85938485Y-126516665D01*
X85062295Y-126149999D02*
X85633723Y-126149999D01*
X85633723Y-126149999D02*
X85748009Y-126183332D01*
X85748009Y-126183332D02*
X85824200Y-126249999D01*
X85824200Y-126249999D02*
X85862295Y-126349999D01*
X85862295Y-126349999D02*
X85862295Y-126416666D01*
X85862295Y-125516666D02*
X85443247Y-125516666D01*
X85443247Y-125516666D02*
X85367057Y-125549999D01*
X85367057Y-125549999D02*
X85328961Y-125616666D01*
X85328961Y-125616666D02*
X85328961Y-125749999D01*
X85328961Y-125749999D02*
X85367057Y-125816666D01*
X85824200Y-125516666D02*
X85862295Y-125583333D01*
X85862295Y-125583333D02*
X85862295Y-125749999D01*
X85862295Y-125749999D02*
X85824200Y-125816666D01*
X85824200Y-125816666D02*
X85748009Y-125849999D01*
X85748009Y-125849999D02*
X85671819Y-125849999D01*
X85671819Y-125849999D02*
X85595628Y-125816666D01*
X85595628Y-125816666D02*
X85557533Y-125749999D01*
X85557533Y-125749999D02*
X85557533Y-125583333D01*
X85557533Y-125583333D02*
X85519438Y-125516666D01*
X85824200Y-124883333D02*
X85862295Y-124950000D01*
X85862295Y-124950000D02*
X85862295Y-125083333D01*
X85862295Y-125083333D02*
X85824200Y-125150000D01*
X85824200Y-125150000D02*
X85786104Y-125183333D01*
X85786104Y-125183333D02*
X85709914Y-125216666D01*
X85709914Y-125216666D02*
X85481342Y-125216666D01*
X85481342Y-125216666D02*
X85405152Y-125183333D01*
X85405152Y-125183333D02*
X85367057Y-125150000D01*
X85367057Y-125150000D02*
X85328961Y-125083333D01*
X85328961Y-125083333D02*
X85328961Y-124950000D01*
X85328961Y-124950000D02*
X85367057Y-124883333D01*
X85862295Y-124583333D02*
X85062295Y-124583333D01*
X85557533Y-124516666D02*
X85862295Y-124316666D01*
X85328961Y-124316666D02*
X85633723Y-124583333D01*
X85938485Y-124183333D02*
X85938485Y-123649999D01*
X85824200Y-123516666D02*
X85862295Y-123416666D01*
X85862295Y-123416666D02*
X85862295Y-123250000D01*
X85862295Y-123250000D02*
X85824200Y-123183333D01*
X85824200Y-123183333D02*
X85786104Y-123150000D01*
X85786104Y-123150000D02*
X85709914Y-123116666D01*
X85709914Y-123116666D02*
X85633723Y-123116666D01*
X85633723Y-123116666D02*
X85557533Y-123150000D01*
X85557533Y-123150000D02*
X85519438Y-123183333D01*
X85519438Y-123183333D02*
X85481342Y-123250000D01*
X85481342Y-123250000D02*
X85443247Y-123383333D01*
X85443247Y-123383333D02*
X85405152Y-123450000D01*
X85405152Y-123450000D02*
X85367057Y-123483333D01*
X85367057Y-123483333D02*
X85290866Y-123516666D01*
X85290866Y-123516666D02*
X85214676Y-123516666D01*
X85214676Y-123516666D02*
X85138485Y-123483333D01*
X85138485Y-123483333D02*
X85100390Y-123450000D01*
X85100390Y-123450000D02*
X85062295Y-123383333D01*
X85062295Y-123383333D02*
X85062295Y-123216666D01*
X85062295Y-123216666D02*
X85100390Y-123116666D01*
X85328961Y-122883333D02*
X85862295Y-122749999D01*
X85862295Y-122749999D02*
X85481342Y-122616666D01*
X85481342Y-122616666D02*
X85862295Y-122483333D01*
X85862295Y-122483333D02*
X85328961Y-122349999D01*
X85862295Y-122083333D02*
X85328961Y-122083333D01*
X85062295Y-122083333D02*
X85100390Y-122116666D01*
X85100390Y-122116666D02*
X85138485Y-122083333D01*
X85138485Y-122083333D02*
X85100390Y-122050000D01*
X85100390Y-122050000D02*
X85062295Y-122083333D01*
X85062295Y-122083333D02*
X85138485Y-122083333D01*
X85328961Y-121850000D02*
X85328961Y-121583333D01*
X85062295Y-121750000D02*
X85748009Y-121750000D01*
X85748009Y-121750000D02*
X85824200Y-121716667D01*
X85824200Y-121716667D02*
X85862295Y-121650000D01*
X85862295Y-121650000D02*
X85862295Y-121583333D01*
X85824200Y-121050000D02*
X85862295Y-121116667D01*
X85862295Y-121116667D02*
X85862295Y-121250000D01*
X85862295Y-121250000D02*
X85824200Y-121316667D01*
X85824200Y-121316667D02*
X85786104Y-121350000D01*
X85786104Y-121350000D02*
X85709914Y-121383333D01*
X85709914Y-121383333D02*
X85481342Y-121383333D01*
X85481342Y-121383333D02*
X85405152Y-121350000D01*
X85405152Y-121350000D02*
X85367057Y-121316667D01*
X85367057Y-121316667D02*
X85328961Y-121250000D01*
X85328961Y-121250000D02*
X85328961Y-121116667D01*
X85328961Y-121116667D02*
X85367057Y-121050000D01*
X85862295Y-120750000D02*
X85062295Y-120750000D01*
X85862295Y-120450000D02*
X85443247Y-120450000D01*
X85443247Y-120450000D02*
X85367057Y-120483333D01*
X85367057Y-120483333D02*
X85328961Y-120550000D01*
X85328961Y-120550000D02*
X85328961Y-120650000D01*
X85328961Y-120650000D02*
X85367057Y-120716667D01*
X85367057Y-120716667D02*
X85405152Y-120750000D01*
X99766666Y-97312295D02*
X99766666Y-97883723D01*
X99766666Y-97883723D02*
X99733333Y-97998009D01*
X99733333Y-97998009D02*
X99666666Y-98074200D01*
X99666666Y-98074200D02*
X99566666Y-98112295D01*
X99566666Y-98112295D02*
X99500000Y-98112295D01*
X100033333Y-97312295D02*
X100466666Y-97312295D01*
X100466666Y-97312295D02*
X100233333Y-97617057D01*
X100233333Y-97617057D02*
X100333333Y-97617057D01*
X100333333Y-97617057D02*
X100399999Y-97655152D01*
X100399999Y-97655152D02*
X100433333Y-97693247D01*
X100433333Y-97693247D02*
X100466666Y-97769438D01*
X100466666Y-97769438D02*
X100466666Y-97959914D01*
X100466666Y-97959914D02*
X100433333Y-98036104D01*
X100433333Y-98036104D02*
X100399999Y-98074200D01*
X100399999Y-98074200D02*
X100333333Y-98112295D01*
X100333333Y-98112295D02*
X100133333Y-98112295D01*
X100133333Y-98112295D02*
X100066666Y-98074200D01*
X100066666Y-98074200D02*
X100033333Y-98036104D01*
X69216666Y-109062295D02*
X69216666Y-109709914D01*
X69216666Y-109709914D02*
X69250000Y-109786104D01*
X69250000Y-109786104D02*
X69283333Y-109824200D01*
X69283333Y-109824200D02*
X69350000Y-109862295D01*
X69350000Y-109862295D02*
X69483333Y-109862295D01*
X69483333Y-109862295D02*
X69550000Y-109824200D01*
X69550000Y-109824200D02*
X69583333Y-109786104D01*
X69583333Y-109786104D02*
X69616666Y-109709914D01*
X69616666Y-109709914D02*
X69616666Y-109062295D01*
X70316666Y-109862295D02*
X69916666Y-109862295D01*
X70116666Y-109862295D02*
X70116666Y-109062295D01*
X70116666Y-109062295D02*
X70049999Y-109176580D01*
X70049999Y-109176580D02*
X69983333Y-109252771D01*
X69983333Y-109252771D02*
X69916666Y-109290866D01*
X74862295Y-105166667D02*
X74862295Y-105500000D01*
X74862295Y-105500000D02*
X74062295Y-105500000D01*
X74862295Y-104933333D02*
X74062295Y-104933333D01*
X74062295Y-104933333D02*
X74633723Y-104700000D01*
X74633723Y-104700000D02*
X74062295Y-104466666D01*
X74062295Y-104466666D02*
X74862295Y-104466666D01*
X74062295Y-104200000D02*
X74062295Y-103733333D01*
X74062295Y-103733333D02*
X74862295Y-104033333D01*
X74405152Y-103366666D02*
X74367057Y-103433333D01*
X74367057Y-103433333D02*
X74328961Y-103466666D01*
X74328961Y-103466666D02*
X74252771Y-103499999D01*
X74252771Y-103499999D02*
X74214676Y-103499999D01*
X74214676Y-103499999D02*
X74138485Y-103466666D01*
X74138485Y-103466666D02*
X74100390Y-103433333D01*
X74100390Y-103433333D02*
X74062295Y-103366666D01*
X74062295Y-103366666D02*
X74062295Y-103233333D01*
X74062295Y-103233333D02*
X74100390Y-103166666D01*
X74100390Y-103166666D02*
X74138485Y-103133333D01*
X74138485Y-103133333D02*
X74214676Y-103099999D01*
X74214676Y-103099999D02*
X74252771Y-103099999D01*
X74252771Y-103099999D02*
X74328961Y-103133333D01*
X74328961Y-103133333D02*
X74367057Y-103166666D01*
X74367057Y-103166666D02*
X74405152Y-103233333D01*
X74405152Y-103233333D02*
X74405152Y-103366666D01*
X74405152Y-103366666D02*
X74443247Y-103433333D01*
X74443247Y-103433333D02*
X74481342Y-103466666D01*
X74481342Y-103466666D02*
X74557533Y-103499999D01*
X74557533Y-103499999D02*
X74709914Y-103499999D01*
X74709914Y-103499999D02*
X74786104Y-103466666D01*
X74786104Y-103466666D02*
X74824200Y-103433333D01*
X74824200Y-103433333D02*
X74862295Y-103366666D01*
X74862295Y-103366666D02*
X74862295Y-103233333D01*
X74862295Y-103233333D02*
X74824200Y-103166666D01*
X74824200Y-103166666D02*
X74786104Y-103133333D01*
X74786104Y-103133333D02*
X74709914Y-103099999D01*
X74709914Y-103099999D02*
X74557533Y-103099999D01*
X74557533Y-103099999D02*
X74481342Y-103133333D01*
X74481342Y-103133333D02*
X74443247Y-103166666D01*
X74443247Y-103166666D02*
X74405152Y-103233333D01*
X74062295Y-102666666D02*
X74062295Y-102599999D01*
X74062295Y-102599999D02*
X74100390Y-102533332D01*
X74100390Y-102533332D02*
X74138485Y-102499999D01*
X74138485Y-102499999D02*
X74214676Y-102466666D01*
X74214676Y-102466666D02*
X74367057Y-102433332D01*
X74367057Y-102433332D02*
X74557533Y-102433332D01*
X74557533Y-102433332D02*
X74709914Y-102466666D01*
X74709914Y-102466666D02*
X74786104Y-102499999D01*
X74786104Y-102499999D02*
X74824200Y-102533332D01*
X74824200Y-102533332D02*
X74862295Y-102599999D01*
X74862295Y-102599999D02*
X74862295Y-102666666D01*
X74862295Y-102666666D02*
X74824200Y-102733332D01*
X74824200Y-102733332D02*
X74786104Y-102766666D01*
X74786104Y-102766666D02*
X74709914Y-102799999D01*
X74709914Y-102799999D02*
X74557533Y-102833332D01*
X74557533Y-102833332D02*
X74367057Y-102833332D01*
X74367057Y-102833332D02*
X74214676Y-102799999D01*
X74214676Y-102799999D02*
X74138485Y-102766666D01*
X74138485Y-102766666D02*
X74100390Y-102733332D01*
X74100390Y-102733332D02*
X74062295Y-102666666D01*
X74062295Y-101799999D02*
X74062295Y-102133332D01*
X74062295Y-102133332D02*
X74443247Y-102166665D01*
X74443247Y-102166665D02*
X74405152Y-102133332D01*
X74405152Y-102133332D02*
X74367057Y-102066665D01*
X74367057Y-102066665D02*
X74367057Y-101899999D01*
X74367057Y-101899999D02*
X74405152Y-101833332D01*
X74405152Y-101833332D02*
X74443247Y-101799999D01*
X74443247Y-101799999D02*
X74519438Y-101766665D01*
X74519438Y-101766665D02*
X74709914Y-101766665D01*
X74709914Y-101766665D02*
X74786104Y-101799999D01*
X74786104Y-101799999D02*
X74824200Y-101833332D01*
X74824200Y-101833332D02*
X74862295Y-101899999D01*
X74862295Y-101899999D02*
X74862295Y-102066665D01*
X74862295Y-102066665D02*
X74824200Y-102133332D01*
X74824200Y-102133332D02*
X74786104Y-102166665D01*
X74938485Y-101633332D02*
X74938485Y-101099998D01*
X74062295Y-101033332D02*
X74062295Y-100633332D01*
X74862295Y-100833332D02*
X74062295Y-100833332D01*
X74062295Y-100266666D02*
X74062295Y-100133332D01*
X74062295Y-100133332D02*
X74100390Y-100066666D01*
X74100390Y-100066666D02*
X74176580Y-99999999D01*
X74176580Y-99999999D02*
X74328961Y-99966666D01*
X74328961Y-99966666D02*
X74595628Y-99966666D01*
X74595628Y-99966666D02*
X74748009Y-99999999D01*
X74748009Y-99999999D02*
X74824200Y-100066666D01*
X74824200Y-100066666D02*
X74862295Y-100133332D01*
X74862295Y-100133332D02*
X74862295Y-100266666D01*
X74862295Y-100266666D02*
X74824200Y-100333332D01*
X74824200Y-100333332D02*
X74748009Y-100399999D01*
X74748009Y-100399999D02*
X74595628Y-100433332D01*
X74595628Y-100433332D02*
X74328961Y-100433332D01*
X74328961Y-100433332D02*
X74176580Y-100399999D01*
X74176580Y-100399999D02*
X74100390Y-100333332D01*
X74100390Y-100333332D02*
X74062295Y-100266666D01*
X74138485Y-99699999D02*
X74100390Y-99666666D01*
X74100390Y-99666666D02*
X74062295Y-99599999D01*
X74062295Y-99599999D02*
X74062295Y-99433333D01*
X74062295Y-99433333D02*
X74100390Y-99366666D01*
X74100390Y-99366666D02*
X74138485Y-99333333D01*
X74138485Y-99333333D02*
X74214676Y-99299999D01*
X74214676Y-99299999D02*
X74290866Y-99299999D01*
X74290866Y-99299999D02*
X74405152Y-99333333D01*
X74405152Y-99333333D02*
X74862295Y-99733333D01*
X74862295Y-99733333D02*
X74862295Y-99299999D01*
X74138485Y-99033332D02*
X74100390Y-98999999D01*
X74100390Y-98999999D02*
X74062295Y-98933332D01*
X74062295Y-98933332D02*
X74062295Y-98766666D01*
X74062295Y-98766666D02*
X74100390Y-98699999D01*
X74100390Y-98699999D02*
X74138485Y-98666666D01*
X74138485Y-98666666D02*
X74214676Y-98633332D01*
X74214676Y-98633332D02*
X74290866Y-98633332D01*
X74290866Y-98633332D02*
X74405152Y-98666666D01*
X74405152Y-98666666D02*
X74862295Y-99066666D01*
X74862295Y-99066666D02*
X74862295Y-98633332D01*
X74062295Y-98199999D02*
X74062295Y-98133332D01*
X74062295Y-98133332D02*
X74100390Y-98066665D01*
X74100390Y-98066665D02*
X74138485Y-98033332D01*
X74138485Y-98033332D02*
X74214676Y-97999999D01*
X74214676Y-97999999D02*
X74367057Y-97966665D01*
X74367057Y-97966665D02*
X74557533Y-97966665D01*
X74557533Y-97966665D02*
X74709914Y-97999999D01*
X74709914Y-97999999D02*
X74786104Y-98033332D01*
X74786104Y-98033332D02*
X74824200Y-98066665D01*
X74824200Y-98066665D02*
X74862295Y-98133332D01*
X74862295Y-98133332D02*
X74862295Y-98199999D01*
X74862295Y-98199999D02*
X74824200Y-98266665D01*
X74824200Y-98266665D02*
X74786104Y-98299999D01*
X74786104Y-98299999D02*
X74709914Y-98333332D01*
X74709914Y-98333332D02*
X74557533Y-98366665D01*
X74557533Y-98366665D02*
X74367057Y-98366665D01*
X74367057Y-98366665D02*
X74214676Y-98333332D01*
X74214676Y-98333332D02*
X74138485Y-98299999D01*
X74138485Y-98299999D02*
X74100390Y-98266665D01*
X74100390Y-98266665D02*
X74062295Y-98199999D01*
X76036104Y-111366666D02*
X76074200Y-111399999D01*
X76074200Y-111399999D02*
X76112295Y-111499999D01*
X76112295Y-111499999D02*
X76112295Y-111566666D01*
X76112295Y-111566666D02*
X76074200Y-111666666D01*
X76074200Y-111666666D02*
X75998009Y-111733333D01*
X75998009Y-111733333D02*
X75921819Y-111766666D01*
X75921819Y-111766666D02*
X75769438Y-111799999D01*
X75769438Y-111799999D02*
X75655152Y-111799999D01*
X75655152Y-111799999D02*
X75502771Y-111766666D01*
X75502771Y-111766666D02*
X75426580Y-111733333D01*
X75426580Y-111733333D02*
X75350390Y-111666666D01*
X75350390Y-111666666D02*
X75312295Y-111566666D01*
X75312295Y-111566666D02*
X75312295Y-111499999D01*
X75312295Y-111499999D02*
X75350390Y-111399999D01*
X75350390Y-111399999D02*
X75388485Y-111366666D01*
X76112295Y-110699999D02*
X76112295Y-111099999D01*
X76112295Y-110899999D02*
X75312295Y-110899999D01*
X75312295Y-110899999D02*
X75426580Y-110966666D01*
X75426580Y-110966666D02*
X75502771Y-111033333D01*
X75502771Y-111033333D02*
X75540866Y-111099999D01*
X75112295Y-109249999D02*
X75112295Y-109649999D01*
X75112295Y-109449999D02*
X74312295Y-109449999D01*
X74312295Y-109449999D02*
X74426580Y-109516666D01*
X74426580Y-109516666D02*
X74502771Y-109583333D01*
X74502771Y-109583333D02*
X74540866Y-109649999D01*
X74312295Y-108816666D02*
X74312295Y-108749999D01*
X74312295Y-108749999D02*
X74350390Y-108683332D01*
X74350390Y-108683332D02*
X74388485Y-108649999D01*
X74388485Y-108649999D02*
X74464676Y-108616666D01*
X74464676Y-108616666D02*
X74617057Y-108583332D01*
X74617057Y-108583332D02*
X74807533Y-108583332D01*
X74807533Y-108583332D02*
X74959914Y-108616666D01*
X74959914Y-108616666D02*
X75036104Y-108649999D01*
X75036104Y-108649999D02*
X75074200Y-108683332D01*
X75074200Y-108683332D02*
X75112295Y-108749999D01*
X75112295Y-108749999D02*
X75112295Y-108816666D01*
X75112295Y-108816666D02*
X75074200Y-108883332D01*
X75074200Y-108883332D02*
X75036104Y-108916666D01*
X75036104Y-108916666D02*
X74959914Y-108949999D01*
X74959914Y-108949999D02*
X74807533Y-108983332D01*
X74807533Y-108983332D02*
X74617057Y-108983332D01*
X74617057Y-108983332D02*
X74464676Y-108949999D01*
X74464676Y-108949999D02*
X74388485Y-108916666D01*
X74388485Y-108916666D02*
X74350390Y-108883332D01*
X74350390Y-108883332D02*
X74312295Y-108816666D01*
X74578961Y-107983332D02*
X75112295Y-107983332D01*
X74578961Y-108283332D02*
X74998009Y-108283332D01*
X74998009Y-108283332D02*
X75074200Y-108249999D01*
X75074200Y-108249999D02*
X75112295Y-108183332D01*
X75112295Y-108183332D02*
X75112295Y-108083332D01*
X75112295Y-108083332D02*
X75074200Y-108016665D01*
X75074200Y-108016665D02*
X75036104Y-107983332D01*
X74693247Y-107416666D02*
X74693247Y-107649999D01*
X75112295Y-107649999D02*
X74312295Y-107649999D01*
X74312295Y-107649999D02*
X74312295Y-107316666D01*
X89016666Y-109062295D02*
X89016666Y-109633723D01*
X89016666Y-109633723D02*
X88983333Y-109748009D01*
X88983333Y-109748009D02*
X88916666Y-109824200D01*
X88916666Y-109824200D02*
X88816666Y-109862295D01*
X88816666Y-109862295D02*
X88750000Y-109862295D01*
X89649999Y-109328961D02*
X89649999Y-109862295D01*
X89483333Y-109024200D02*
X89316666Y-109595628D01*
X89316666Y-109595628D02*
X89749999Y-109595628D01*
X68566666Y-112574200D02*
X68666666Y-112612295D01*
X68666666Y-112612295D02*
X68833333Y-112612295D01*
X68833333Y-112612295D02*
X68899999Y-112574200D01*
X68899999Y-112574200D02*
X68933333Y-112536104D01*
X68933333Y-112536104D02*
X68966666Y-112459914D01*
X68966666Y-112459914D02*
X68966666Y-112383723D01*
X68966666Y-112383723D02*
X68933333Y-112307533D01*
X68933333Y-112307533D02*
X68899999Y-112269438D01*
X68899999Y-112269438D02*
X68833333Y-112231342D01*
X68833333Y-112231342D02*
X68699999Y-112193247D01*
X68699999Y-112193247D02*
X68633333Y-112155152D01*
X68633333Y-112155152D02*
X68599999Y-112117057D01*
X68599999Y-112117057D02*
X68566666Y-112040866D01*
X68566666Y-112040866D02*
X68566666Y-111964676D01*
X68566666Y-111964676D02*
X68599999Y-111888485D01*
X68599999Y-111888485D02*
X68633333Y-111850390D01*
X68633333Y-111850390D02*
X68699999Y-111812295D01*
X68699999Y-111812295D02*
X68866666Y-111812295D01*
X68866666Y-111812295D02*
X68966666Y-111850390D01*
X69200000Y-111812295D02*
X69366666Y-112612295D01*
X69366666Y-112612295D02*
X69500000Y-112040866D01*
X69500000Y-112040866D02*
X69633333Y-112612295D01*
X69633333Y-112612295D02*
X69800000Y-111812295D01*
X70433333Y-112612295D02*
X70033333Y-112612295D01*
X70233333Y-112612295D02*
X70233333Y-111812295D01*
X70233333Y-111812295D02*
X70166666Y-111926580D01*
X70166666Y-111926580D02*
X70100000Y-112002771D01*
X70100000Y-112002771D02*
X70033333Y-112040866D01*
X69062295Y-137033333D02*
X69709914Y-137033333D01*
X69709914Y-137033333D02*
X69786104Y-137000000D01*
X69786104Y-137000000D02*
X69824200Y-136966666D01*
X69824200Y-136966666D02*
X69862295Y-136900000D01*
X69862295Y-136900000D02*
X69862295Y-136766666D01*
X69862295Y-136766666D02*
X69824200Y-136700000D01*
X69824200Y-136700000D02*
X69786104Y-136666666D01*
X69786104Y-136666666D02*
X69709914Y-136633333D01*
X69709914Y-136633333D02*
X69062295Y-136633333D01*
X69138485Y-136333333D02*
X69100390Y-136300000D01*
X69100390Y-136300000D02*
X69062295Y-136233333D01*
X69062295Y-136233333D02*
X69062295Y-136066667D01*
X69062295Y-136066667D02*
X69100390Y-136000000D01*
X69100390Y-136000000D02*
X69138485Y-135966667D01*
X69138485Y-135966667D02*
X69214676Y-135933333D01*
X69214676Y-135933333D02*
X69290866Y-135933333D01*
X69290866Y-135933333D02*
X69405152Y-135966667D01*
X69405152Y-135966667D02*
X69862295Y-136366667D01*
X69862295Y-136366667D02*
X69862295Y-135933333D01*
X74862295Y-147266667D02*
X74862295Y-147600000D01*
X74862295Y-147600000D02*
X74062295Y-147600000D01*
X74862295Y-147033333D02*
X74062295Y-147033333D01*
X74062295Y-147033333D02*
X74633723Y-146800000D01*
X74633723Y-146800000D02*
X74062295Y-146566666D01*
X74062295Y-146566666D02*
X74862295Y-146566666D01*
X74062295Y-146300000D02*
X74062295Y-145866666D01*
X74062295Y-145866666D02*
X74367057Y-146100000D01*
X74367057Y-146100000D02*
X74367057Y-146000000D01*
X74367057Y-146000000D02*
X74405152Y-145933333D01*
X74405152Y-145933333D02*
X74443247Y-145900000D01*
X74443247Y-145900000D02*
X74519438Y-145866666D01*
X74519438Y-145866666D02*
X74709914Y-145866666D01*
X74709914Y-145866666D02*
X74786104Y-145900000D01*
X74786104Y-145900000D02*
X74824200Y-145933333D01*
X74824200Y-145933333D02*
X74862295Y-146000000D01*
X74862295Y-146000000D02*
X74862295Y-146200000D01*
X74862295Y-146200000D02*
X74824200Y-146266666D01*
X74824200Y-146266666D02*
X74786104Y-146300000D01*
X74862295Y-145199999D02*
X74862295Y-145599999D01*
X74862295Y-145399999D02*
X74062295Y-145399999D01*
X74062295Y-145399999D02*
X74176580Y-145466666D01*
X74176580Y-145466666D02*
X74252771Y-145533333D01*
X74252771Y-145533333D02*
X74290866Y-145599999D01*
X74062295Y-144966666D02*
X74062295Y-144499999D01*
X74062295Y-144499999D02*
X74862295Y-144799999D01*
X74938485Y-144399999D02*
X74938485Y-143866665D01*
X74062295Y-143799999D02*
X74062295Y-143399999D01*
X74862295Y-143599999D02*
X74062295Y-143599999D01*
X74062295Y-143033333D02*
X74062295Y-142899999D01*
X74062295Y-142899999D02*
X74100390Y-142833333D01*
X74100390Y-142833333D02*
X74176580Y-142766666D01*
X74176580Y-142766666D02*
X74328961Y-142733333D01*
X74328961Y-142733333D02*
X74595628Y-142733333D01*
X74595628Y-142733333D02*
X74748009Y-142766666D01*
X74748009Y-142766666D02*
X74824200Y-142833333D01*
X74824200Y-142833333D02*
X74862295Y-142899999D01*
X74862295Y-142899999D02*
X74862295Y-143033333D01*
X74862295Y-143033333D02*
X74824200Y-143099999D01*
X74824200Y-143099999D02*
X74748009Y-143166666D01*
X74748009Y-143166666D02*
X74595628Y-143199999D01*
X74595628Y-143199999D02*
X74328961Y-143199999D01*
X74328961Y-143199999D02*
X74176580Y-143166666D01*
X74176580Y-143166666D02*
X74100390Y-143099999D01*
X74100390Y-143099999D02*
X74062295Y-143033333D01*
X74557533Y-142433333D02*
X74557533Y-141900000D01*
X74138485Y-141599999D02*
X74100390Y-141566666D01*
X74100390Y-141566666D02*
X74062295Y-141499999D01*
X74062295Y-141499999D02*
X74062295Y-141333333D01*
X74062295Y-141333333D02*
X74100390Y-141266666D01*
X74100390Y-141266666D02*
X74138485Y-141233333D01*
X74138485Y-141233333D02*
X74214676Y-141199999D01*
X74214676Y-141199999D02*
X74290866Y-141199999D01*
X74290866Y-141199999D02*
X74405152Y-141233333D01*
X74405152Y-141233333D02*
X74862295Y-141633333D01*
X74862295Y-141633333D02*
X74862295Y-141199999D01*
X74138485Y-140933332D02*
X74100390Y-140899999D01*
X74100390Y-140899999D02*
X74062295Y-140833332D01*
X74062295Y-140833332D02*
X74062295Y-140666666D01*
X74062295Y-140666666D02*
X74100390Y-140599999D01*
X74100390Y-140599999D02*
X74138485Y-140566666D01*
X74138485Y-140566666D02*
X74214676Y-140533332D01*
X74214676Y-140533332D02*
X74290866Y-140533332D01*
X74290866Y-140533332D02*
X74405152Y-140566666D01*
X74405152Y-140566666D02*
X74862295Y-140966666D01*
X74862295Y-140966666D02*
X74862295Y-140533332D01*
X74062295Y-140099999D02*
X74062295Y-140033332D01*
X74062295Y-140033332D02*
X74100390Y-139966665D01*
X74100390Y-139966665D02*
X74138485Y-139933332D01*
X74138485Y-139933332D02*
X74214676Y-139899999D01*
X74214676Y-139899999D02*
X74367057Y-139866665D01*
X74367057Y-139866665D02*
X74557533Y-139866665D01*
X74557533Y-139866665D02*
X74709914Y-139899999D01*
X74709914Y-139899999D02*
X74786104Y-139933332D01*
X74786104Y-139933332D02*
X74824200Y-139966665D01*
X74824200Y-139966665D02*
X74862295Y-140033332D01*
X74862295Y-140033332D02*
X74862295Y-140099999D01*
X74862295Y-140099999D02*
X74824200Y-140166665D01*
X74824200Y-140166665D02*
X74786104Y-140199999D01*
X74786104Y-140199999D02*
X74709914Y-140233332D01*
X74709914Y-140233332D02*
X74557533Y-140266665D01*
X74557533Y-140266665D02*
X74367057Y-140266665D01*
X74367057Y-140266665D02*
X74214676Y-140233332D01*
X74214676Y-140233332D02*
X74138485Y-140199999D01*
X74138485Y-140199999D02*
X74100390Y-140166665D01*
X74100390Y-140166665D02*
X74062295Y-140099999D01*
D12*
%TO.C,J6*%
X98670000Y-141920000D02*
X100000000Y-141920000D01*
X98670000Y-143250000D02*
X98670000Y-141920000D01*
X98670000Y-144520000D02*
X98670000Y-147120000D01*
X98670000Y-144520000D02*
X101330000Y-144520000D01*
X98670000Y-147120000D02*
X101330000Y-147120000D01*
X101330000Y-144520000D02*
X101330000Y-147120000D01*
%TO.C,J7*%
X77615000Y-143670000D02*
X77615000Y-146330000D01*
X82755000Y-143670000D02*
X77615000Y-143670000D01*
X82755000Y-143670000D02*
X82755000Y-146330000D01*
X82755000Y-146330000D02*
X77615000Y-146330000D01*
X84025000Y-143670000D02*
X85355000Y-143670000D01*
X85355000Y-143670000D02*
X85355000Y-145000000D01*
%TO.C,R1*%
X86170000Y-110830000D02*
X82330000Y-110830000D01*
X86170000Y-112670000D02*
X82330000Y-112670000D01*
%TO.C,R3*%
X80920000Y-136030000D02*
X77080000Y-136030000D01*
X80920000Y-137870000D02*
X77080000Y-137870000D01*
%TO.C,J2*%
X77537000Y-102041000D02*
X77537000Y-100711000D01*
X78867000Y-102041000D02*
X77537000Y-102041000D01*
X80137000Y-99381000D02*
X85277000Y-99381000D01*
X80137000Y-102041000D02*
X80137000Y-99381000D01*
X80137000Y-102041000D02*
X85277000Y-102041000D01*
X85277000Y-102041000D02*
X85277000Y-99381000D01*
%TO.C,J5*%
X86563000Y-146705000D02*
X86563000Y-147445000D01*
X86563000Y-147445000D02*
X87063000Y-147445000D01*
X86803000Y-137284000D02*
X86803000Y-147205000D01*
X86803000Y-137284000D02*
X97083000Y-137284000D01*
X86803000Y-140244000D02*
X97083000Y-140244000D01*
X86803000Y-145145000D02*
X97083000Y-145145000D01*
X86803000Y-146645000D02*
X97083000Y-146645000D01*
X86803000Y-147205000D02*
X97083000Y-147205000D01*
X93256000Y-143568000D02*
X93209000Y-143614000D01*
X93449000Y-143784000D02*
X93414000Y-143819000D01*
X95553000Y-141270000D02*
X95518000Y-141306000D01*
X95758000Y-141476000D02*
X95711000Y-141522000D01*
X97083000Y-137284000D02*
X97083000Y-147205000D01*
X87867573Y-143228042D02*
G75*
G02*
X87868000Y-141861000I1535420J683041D01*
G01*
X88719958Y-141009573D02*
G75*
G02*
X90087000Y-141010000I683041J-1535420D01*
G01*
X89431805Y-144225253D02*
G75*
G02*
X88719000Y-144080000I-28806J1680254D01*
G01*
X90086318Y-144079756D02*
G75*
G02*
X89403000Y-144225000I-683318J1534756D01*
G01*
X90938427Y-141861958D02*
G75*
G02*
X90938000Y-143229000I-1535427J-683042D01*
G01*
X96163000Y-142545000D02*
G75*
G02*
X92803000Y-142545000I-1680000J0D01*
G01*
X92803000Y-142545000D02*
G75*
G02*
X96163000Y-142545000I1680000J0D01*
G01*
%TO.C,C3*%
X83265000Y-138238748D02*
X83265000Y-138761252D01*
X84735000Y-138238748D02*
X84735000Y-138761252D01*
%TO.C,C2*%
X83037000Y-106121252D02*
X83037000Y-104698748D01*
X84857000Y-106121252D02*
X84857000Y-104698748D01*
%TO.C,D1*%
X91915000Y-123350000D02*
X91915000Y-127235000D01*
X91915000Y-127235000D02*
X94185000Y-127235000D01*
X94185000Y-127235000D02*
X94185000Y-123350000D01*
%TO.C,R2*%
X77080000Y-139030000D02*
X80920000Y-139030000D01*
X77080000Y-140870000D02*
X80920000Y-140870000D01*
%TO.C,J1*%
X69004000Y-120241000D02*
X83704000Y-120241000D01*
X69004000Y-129441000D02*
X69004000Y-120241000D01*
X77804000Y-129441000D02*
X69004000Y-129441000D01*
X82854000Y-120041000D02*
X83904000Y-120041000D01*
X83704000Y-120241000D02*
X83704000Y-122841000D01*
X83704000Y-126741000D02*
X83704000Y-129441000D01*
X83704000Y-129441000D02*
X81804000Y-129441000D01*
X83904000Y-121091000D02*
X83904000Y-120041000D01*
%TO.C,J3*%
X98670000Y-98670000D02*
X100000000Y-98670000D01*
X98670000Y-100000000D02*
X98670000Y-98670000D01*
X98670000Y-101270000D02*
X98670000Y-103870000D01*
X98670000Y-101270000D02*
X101330000Y-101270000D01*
X98670000Y-103870000D02*
X101330000Y-103870000D01*
X101330000Y-101270000D02*
X101330000Y-103870000D01*
%TO.C,U1*%
X68925000Y-98380000D02*
X73566000Y-98380000D01*
X68925000Y-101649000D02*
X70435000Y-101649000D01*
X68925000Y-105350000D02*
X70435000Y-105350000D01*
X68925000Y-108620000D02*
X68925000Y-98380000D01*
X68925000Y-108620000D02*
X73566000Y-108620000D01*
X70435000Y-108620000D02*
X70435000Y-98380000D01*
X73566000Y-108620000D02*
X73566000Y-98380000D01*
%TO.C,C1*%
X80620000Y-108250000D02*
G75*
G02*
X75380000Y-108250000I-2620000J0D01*
G01*
X75380000Y-108250000D02*
G75*
G02*
X80620000Y-108250000I2620000J0D01*
G01*
%TO.C,J4*%
X86813000Y-108334000D02*
X86813000Y-98413000D01*
X88138000Y-104142000D02*
X88185000Y-104096000D01*
X88343000Y-104348000D02*
X88378000Y-104312000D01*
X90447000Y-101834000D02*
X90482000Y-101799000D01*
X90640000Y-102050000D02*
X90687000Y-102004000D01*
X97093000Y-98413000D02*
X86813000Y-98413000D01*
X97093000Y-98973000D02*
X86813000Y-98973000D01*
X97093000Y-100473000D02*
X86813000Y-100473000D01*
X97093000Y-105374000D02*
X86813000Y-105374000D01*
X97093000Y-108334000D02*
X86813000Y-108334000D01*
X97093000Y-108334000D02*
X97093000Y-98413000D01*
X97333000Y-98173000D02*
X96833000Y-98173000D01*
X97333000Y-98913000D02*
X97333000Y-98173000D01*
X92957573Y-103756042D02*
G75*
G02*
X92958000Y-102389000I1535427J683042D01*
G01*
X93809682Y-101538244D02*
G75*
G02*
X94493000Y-101393000I683318J-1534756D01*
G01*
X94464195Y-101392747D02*
G75*
G02*
X95177000Y-101538000I28806J-1680254D01*
G01*
X95176042Y-104608427D02*
G75*
G02*
X93809000Y-104608000I-683041J1535420D01*
G01*
X96028427Y-102389958D02*
G75*
G02*
X96028000Y-103757000I-1535420J-683041D01*
G01*
X91093000Y-103073000D02*
G75*
G02*
X87733000Y-103073000I-1680000J0D01*
G01*
X87733000Y-103073000D02*
G75*
G02*
X91093000Y-103073000I1680000J0D01*
G01*
%TO.C,SW1*%
X79110000Y-115810000D02*
X68890000Y-115810000D01*
X68890000Y-113090000D01*
X79110000Y-113090000D01*
X79110000Y-115810000D01*
%TO.C,U2*%
X68980000Y-137340000D02*
X73621000Y-137340000D01*
X68980000Y-140609000D02*
X70490000Y-140609000D01*
X68980000Y-144310000D02*
X70490000Y-144310000D01*
X68980000Y-147580000D02*
X68980000Y-137340000D01*
X68980000Y-147580000D02*
X73621000Y-147580000D01*
X70490000Y-147580000D02*
X70490000Y-137340000D01*
X73621000Y-147580000D02*
X73621000Y-137340000D01*
%TD*%
M02*
